<svg id="visual" viewBox="0 0 900 600" width="900" height="600" xmlns="http://www.w3.org/2000/svg" xmlns:xlink="http://www.w3.org/1999/xlink" version="1.1"><rect x="0" y="0" width="900" height="600" fill="#001220"></rect><path d="M0 383L21.5 381C43 379 86 375 128.8 379.7C171.7 384.3 214.3 397.7 257.2 397.7C300 397.7 343 384.3 385.8 390.5C428.7 396.7 471.3 422.3 514.2 434C557 445.7 600 443.3 642.8 441C685.7 438.7 728.3 436.3 771.2 423C814 409.7 857 385.3 878.5 373.2L900 361L900 601L878.5 601C857 601 814 601 771.2 601C728.3 601 685.7 601 642.8 601C600 601 557 601 514.2 601C471.3 601 428.7 601 385.8 601C343 601 300 601 257.2 601C214.3 601 171.7 601 128.8 601C86 601 43 601 21.5 601L0 601Z" fill="#fa7268"></path><path d="M0 441L21.5 447.2C43 453.3 86 465.7 128.8 467.8C171.7 470 214.3 462 257.2 449.2C300 436.3 343 418.7 385.8 411.2C428.7 403.7 471.3 406.3 514.2 418.8C557 431.3 600 453.7 642.8 459.5C685.7 465.3 728.3 454.7 771.2 453.2C814 451.7 857 459.3 878.5 463.2L900 467L900 601L878.5 601C857 601 814 601 771.2 601C728.3 601 685.7 601 642.8 601C600 601 557 601 514.2 601C471.3 601 428.7 601 385.8 601C343 601 300 601 257.2 601C214.3 601 171.7 601 128.8 601C86 601 43 601 21.5 601L0 601Z" fill="#ef5f67"></path><path d="M0 497L21.5 499.2C43 501.3 86 505.7 128.8 502C171.7 498.3 214.3 486.7 257.2 480.8C300 475 343 475 385.8 480.2C428.7 485.3 471.3 495.7 514.2 497.5C557 499.3 600 492.7 642.8 492.2C685.7 491.7 728.3 497.3 771.2 500.8C814 504.3 857 505.7 878.5 506.3L900 507L900 601L878.5 601C857 601 814 601 771.2 601C728.3 601 685.7 601 642.8 601C600 601 557 601 514.2 601C471.3 601 428.7 601 385.8 601C343 601 300 601 257.2 601C214.3 601 171.7 601 128.8 601C86 601 43 601 21.5 601L0 601Z" fill="#e34c67"></path><path d="M0 519L21.5 515.5C43 512 86 505 128.8 501.8C171.7 498.7 214.3 499.3 257.2 506.3C300 513.3 343 526.7 385.8 529.8C428.7 533 471.3 526 514.2 519C557 512 600 505 642.8 505C685.7 505 728.3 512 771.2 516.7C814 521.3 857 523.7 878.5 524.8L900 526L900 601L878.5 601C857 601 814 601 771.2 601C728.3 601 685.7 601 642.8 601C600 601 557 601 514.2 601C471.3 601 428.7 601 385.8 601C343 601 300 601 257.2 601C214.3 601 171.7 601 128.8 601C86 601 43 601 21.5 601L0 601Z" fill="#d53867"></path><path d="M0 544L21.5 541C43 538 86 532 128.8 532.7C171.7 533.3 214.3 540.7 257.2 547.3C300 554 343 560 385.8 563.8C428.7 567.7 471.3 569.3 514.2 570.2C557 571 600 571 642.8 567.2C685.7 563.3 728.3 555.7 771.2 551.5C814 547.3 857 546.7 878.5 546.3L900 546L900 601L878.5 601C857 601 814 601 771.2 601C728.3 601 685.7 601 642.8 601C600 601 557 601 514.2 601C471.3 601 428.7 601 385.8 601C343 601 300 601 257.2 601C214.3 601 171.7 601 128.8 601C86 601 43 601 21.5 601L0 601Z" fill="#c62368"></path></svg>