<svg id="visual" viewBox="0 0 900 600" width="900" height="600" xmlns="http://www.w3.org/2000/svg" xmlns:xlink="http://www.w3.org/1999/xlink" version="1.1"><rect x="0" y="0" width="900" height="600" fill="#002233"></rect><path d="M0 397L21.5 404.2C43 411.3 86 425.7 128.8 429.3C171.7 433 214.3 426 257.2 435C300 444 343 469 385.8 484.7C428.7 500.3 471.3 506.7 514.2 506.2C557 505.7 600 498.3 642.8 481C685.7 463.7 728.3 436.3 771.2 431.7C814 427 857 445 878.5 454L900 463L900 601L878.5 601C857 601 814 601 771.2 601C728.3 601 685.7 601 642.8 601C600 601 557 601 514.2 601C471.3 601 428.7 601 385.8 601C343 601 300 601 257.2 601C214.3 601 171.7 601 128.8 601C86 601 43 601 21.5 601L0 601Z" fill="#0066FF" stroke-linecap="round" stroke-linejoin="miter"></path></svg>