<svg id="visual" viewBox="0 0 900 600" width="900" height="600" xmlns="http://www.w3.org/2000/svg" xmlns:xlink="http://www.w3.org/1999/xlink" version="1.1"><rect x="0" y="0" width="900" height="600" fill="#002233"></rect><path d="M0 481L21.5 475.8C43 470.7 86 460.3 128.8 458.3C171.7 456.3 214.3 462.7 257.2 457.3C300 452 343 435 385.8 422.3C428.7 409.7 471.3 401.3 514.2 417.2C557 433 600 473 642.8 488.3C685.7 503.7 728.3 494.3 771.2 488.3C814 482.3 857 479.7 878.5 478.3L900 477L900 601L878.5 601C857 601 814 601 771.2 601C728.3 601 685.7 601 642.8 601C600 601 557 601 514.2 601C471.3 601 428.7 601 385.8 601C343 601 300 601 257.2 601C214.3 601 171.7 601 128.8 601C86 601 43 601 21.5 601L0 601Z" fill="#0066FF" stroke-linecap="round" stroke-linejoin="miter"></path></svg>