<?xml version="1.0" encoding="UTF-8" standalone="no"?>
<svg
   id="Big"
   viewBox="0 0 3609.1148 939.68002"
   version="1.1"
   sodipodi:docname="simplyshrimp.svg"
   inkscape:version="1.4.3 (0d15f75042, 2025-12-25)"
   width="3609.1147"
   height="939.68005"
   xmlns:inkscape="http://www.inkscape.org/namespaces/inkscape"
   xmlns:sodipodi="http://sodipodi.sourceforge.net/DTD/sodipodi-0.dtd"
   xmlns:xlink="http://www.w3.org/1999/xlink"
   xmlns="http://www.w3.org/2000/svg"
   xmlns:svg="http://www.w3.org/2000/svg">
  <sodipodi:namedview
     id="namedview26"
     pagecolor="#000000"
     bordercolor="#000000"
     borderopacity="0.25"
     inkscape:showpageshadow="2"
     inkscape:pageopacity="0.0"
     inkscape:pagecheckerboard="0"
     inkscape:deskcolor="#d1d1d1"
     showgrid="false"
     showguides="false"
     inkscape:zoom="0.18646941"
     inkscape:cx="1930.6116"
     inkscape:cy="-547.00661"
     inkscape:window-width="1920"
     inkscape:window-height="1011"
     inkscape:window-x="0"
     inkscape:window-y="0"
     inkscape:window-maximized="1"
     inkscape:current-layer="SimplyPrint_White" />
  <defs
     id="defs2">
    <style
       id="style1">
      .cls-1 {
        fill: url(#linear-gradient-12);
      }

      .cls-1, .cls-2, .cls-3, .cls-4, .cls-5, .cls-6, .cls-7, .cls-8, .cls-9, .cls-10, .cls-11, .cls-12, .cls-13, .cls-14, .cls-15, .cls-16, .cls-17, .cls-18, .cls-19 {
        stroke-width: 0px;
      }

      .cls-2 {
        fill: url(#linear-gradient-17);
      }

      .cls-3 {
        fill: url(#linear-gradient);
      }

      .cls-4 {
        fill: url(#linear-gradient-6);
      }

      .cls-5 {
        fill: url(#linear-gradient-15);
      }

      .cls-6 {
        fill: url(#linear-gradient-11);
      }

      .cls-7 {
        fill: url(#linear-gradient-5);
      }

      .cls-8 {
        fill: url(#linear-gradient-13);
      }

      .cls-9 {
        fill: url(#linear-gradient-16);
      }

      .cls-10 {
        fill: #fff;
      }

      .cls-11 {
        fill: url(#linear-gradient-14);
      }

      .cls-12 {
        fill: url(#linear-gradient-2);
      }

      .cls-13 {
        fill: url(#linear-gradient-7);
      }

      .cls-14 {
        fill: url(#linear-gradient-3);
      }

      .cls-15 {
        fill: url(#linear-gradient-9);
      }

      .cls-16 {
        fill: url(#linear-gradient-8);
      }

      .cls-17 {
        fill: url(#linear-gradient-18);
      }

      .cls-18 {
        fill: url(#linear-gradient-10);
      }

      .cls-19 {
        fill: url(#linear-gradient-4);
      }
    </style>
    <linearGradient
       id="linear-gradient"
       x1="478.09"
       y1="-7156.8901"
       x2="-94.349998"
       y2="-6249.7798"
       gradientTransform="translate(0,6888)"
       gradientUnits="userSpaceOnUse">
      <stop
         offset="0"
         stop-color="#29abe2"
         id="stop1" />
      <stop
         offset="1"
         stop-color="#1d30b8"
         id="stop2" />
    </linearGradient>
    <linearGradient
       id="linear-gradient-2"
       x1="824.27002"
       y1="-6938.4302"
       x2="251.83"
       y2="-6031.3198"
       xlink:href="#linear-gradient" />
    <linearGradient
       id="linear-gradient-3"
       x1="1203.6899"
       y1="-6698.9902"
       x2="631.21002"
       y2="-5791.8799"
       xlink:href="#linear-gradient" />
    <linearGradient
       id="linear-gradient-4"
       x1="857.46997"
       y1="-6917.4502"
       x2="285.03"
       y2="-6010.3398"
       xlink:href="#linear-gradient" />
    <linearGradient
       id="linear-gradient-5"
       x1="703.09998"
       y1="-7061.6401"
       x2="130.62"
       y2="-6154.5298"
       gradientTransform="rotate(29.89,-12762.473,-2762.2576)"
       xlink:href="#linear-gradient" />
    <linearGradient
       id="linear-gradient-6"
       x1="506.51001"
       y1="-7247.3101"
       x2="-65.93"
       y2="-6340.2002"
       gradientTransform="rotate(60.11,-5833.3468,-3181.608)"
       xlink:href="#linear-gradient" />
    <linearGradient
       id="linear-gradient-7"
       x1="637.63"
       y1="-7056.23"
       x2="65.190002"
       y2="-6149.1201"
       xlink:href="#linear-gradient" />
    <linearGradient
       id="linear-gradient-8"
       x1="840.87"
       y1="-6927.9302"
       x2="268.42999"
       y2="-6020.8198"
       xlink:href="#linear-gradient" />
    <linearGradient
       id="linear-gradient-9"
       x1="950.60999"
       y1="-6789.5098"
       x2="617.53998"
       y2="-6261.75"
       xlink:href="#linear-gradient" />
    <linearGradient
       id="linear-gradient-10"
       x1="1053.67"
       y1="-6417.3999"
       x2="743.54999"
       y2="-5925.98"
       xlink:href="#linear-gradient" />
    <linearGradient
       id="linear-gradient-11"
       x1="824.27002"
       y1="-6938.4302"
       x2="251.83"
       y2="-6031.3198"
       xlink:href="#linear-gradient" />
    <linearGradient
       id="linear-gradient-12"
       x1="1203.6899"
       y1="-6698.9902"
       x2="631.21002"
       y2="-5791.8799"
       xlink:href="#linear-gradient" />
    <linearGradient
       id="linear-gradient-13"
       x1="857.46997"
       y1="-6917.4502"
       x2="285.03"
       y2="-6010.3398"
       xlink:href="#linear-gradient" />
    <linearGradient
       id="linear-gradient-14"
       x1="319.82001"
       y1="-6872.1201"
       x2="-21.700001"
       y2="-6330.96"
       xlink:href="#linear-gradient" />
    <linearGradient
       id="linear-gradient-15"
       x1="703.09998"
       y1="-7061.6401"
       x2="130.62"
       y2="-6154.5298"
       gradientTransform="rotate(29.89,-12762.473,-2762.2576)"
       xlink:href="#linear-gradient" />
    <linearGradient
       id="linear-gradient-16"
       x1="506.51001"
       y1="-7247.3101"
       x2="-65.93"
       y2="-6340.2002"
       gradientTransform="rotate(60.11,-5833.3468,-3181.608)"
       xlink:href="#linear-gradient" />
    <linearGradient
       id="linear-gradient-17"
       x1="1172.61"
       y1="430.92999"
       x2="494.63"
       y2="-743.28998"
       gradientTransform="matrix(1,0,0,-1,0,216.01)"
       xlink:href="#linear-gradient" />
    <linearGradient
       id="linear-gradient-18"
       x1="3225.46"
       y1="-5.8699999"
       x2="2646.3301"
       y2="911.83002"
       xlink:href="#linear-gradient" />
    <linearGradient
       inkscape:collect="always"
       xlink:href="#linear-gradient"
       id="linearGradient26"
       gradientUnits="userSpaceOnUse"
       gradientTransform="translate(0,6888)"
       x1="478.09"
       y1="-7156.8901"
       x2="-94.349998"
       y2="-6249.7798" />
    <linearGradient
       inkscape:collect="always"
       xlink:href="#linear-gradient"
       id="linearGradient27"
       gradientUnits="userSpaceOnUse"
       gradientTransform="translate(0,6888)"
       x1="478.09"
       y1="-7156.8901"
       x2="-94.349998"
       y2="-6249.7798" />
  </defs>
  <g
     id="Hexagon"
     transform="translate(0.00464112,-1.21)">
    <path
       class="cls-3"
       d="M 333.74,46.47 V 4.4 C 280.13,4.48 230.6,33.08 203.72,79.47 l 36.46,21.05 c 19.32,-33.4 54.96,-54 93.55,-54.05 z"
       id="path2"
       style="fill:url(#linearGradient26)" />
    <path
       class="cls-12"
       d="m 701.06,4.4 v 42.07 c 38.53,0.14 74.08,20.72 93.4,54.05 L 830.92,79.47 C 804.05,33.14 754.61,4.56 701.06,4.4 Z"
       id="path3"
       style="fill:url(#linear-gradient-2)" />
    <path
       class="cls-14"
       d="m 701.06,898.78 v 42.11 c 53.62,-0.08 103.16,-28.68 130.05,-75.07 l -36.46,-21.05 c -19.34,33.39 -55,53.97 -93.59,54.01 z"
       id="path4"
       style="fill:url(#linear-gradient-3)" />
    <path
       class="cls-19"
       d="m 333.74,940.89 v -42.11 c -38.53,-0.09 -74.1,-20.66 -93.4,-54.01 l -36.46,21.05 c 26.85,46.34 76.3,74.92 129.86,75.07 z"
       id="path5"
       style="fill:url(#linear-gradient-4)" />
    <rect
       class="cls-7"
       x="106.32"
       y="592.60999"
       width="42.110001"
       height="210.45"
       transform="rotate(-30,127.37687,697.83053)"
       id="rect5"
       style="fill:url(#linear-gradient-5)" />
    <rect
       class="cls-4"
       x="22.120001"
       y="226.42"
       width="210.45"
       height="42.110001"
       transform="rotate(-60,127.34226,247.47673)"
       id="rect6"
       style="fill:url(#linear-gradient-6)" />
    <rect
       class="cls-13"
       x="412.19"
       y="1.21"
       width="210.45"
       height="42.110001"
       id="rect7"
       style="fill:url(#linear-gradient-7)" />
    <path
       class="cls-16"
       d="m 781.97,701.41 v 0 l -41.95,72.62 c -15.08,26 -42.83,42.03 -72.89,42.11 H 367.72 c -30.08,-0.03 -57.86,-16.08 -72.93,-42.11 L 145.08,514.89 c -14.98,-26.06 -14.98,-58.12 0,-84.17 L 294.79,171.27 c 15.07,-26.03 42.85,-42.07 72.93,-42.11 h 299.41 c 30.07,0.03 57.84,16.08 72.89,42.11 l 41.95,72.62 h 48.61 L 776.49,150.22 C 753.89,111.19 712.24,87.13 667.14,87.06 H 367.73 c -45.11,0.07 -86.77,24.13 -109.39,63.16 L 108.62,409.5 c -22.45,39.1 -22.45,87.18 0,126.28 l 149.71,259.29 c 22.62,39.03 64.28,63.09 109.39,63.16 h 299.41 c 45.1,-0.07 86.75,-24.13 109.35,-63.16 l 54.09,-93.67 h -48.6 z"
       id="path7"
       style="fill:url(#linear-gradient-8)" />
    <polygon
       class="cls-15"
       points="836.6,166.83 881.08,243.88 929.73,243.88 873.07,145.78 "
       id="polygon7"
       style="fill:url(#linear-gradient-9)" />
    <polygon
       class="cls-18"
       points="873.07,799.47 929.69,701.41 881.08,701.41 836.6,778.42 "
       id="polygon8"
       style="fill:url(#linear-gradient-10)" />
    <path
       class="cls-6"
       d="m 701.06,4.4 v 42.07 c 38.53,0.14 74.08,20.72 93.4,54.05 L 830.92,79.47 C 804.05,33.14 754.61,4.56 701.06,4.4 Z"
       id="path8"
       style="fill:url(#linear-gradient-11)" />
    <path
       class="cls-1"
       d="m 701.06,898.78 v 42.11 c 53.62,-0.08 103.16,-28.68 130.05,-75.07 l -36.46,-21.05 c -19.34,33.39 -55,53.97 -93.59,54.01 z"
       id="path9"
       style="fill:url(#linear-gradient-12)" />
    <path
       class="cls-8"
       d="m 333.74,940.89 v -42.11 c -38.53,-0.09 -74.1,-20.66 -93.4,-54.01 l -36.46,21.05 c 26.85,46.34 76.3,74.92 129.86,75.07 z"
       id="path10"
       style="fill:url(#linear-gradient-13)" />
    <path
       class="cls-11"
       d="M 20.05,547.73 56.51,526.56 C 37.29,493.1 37.29,451.95 56.51,418.49 L 20.05,397.44 C 6.71,420.24 -0.21,446.22 0,472.63 c 0.05,26.35 6.95,52.24 20.04,75.11 z"
       id="path11"
       style="fill:url(#linear-gradient-14)" />
    <path
       class="cls-3"
       d="M 333.74,46.47 V 4.4 C 280.13,4.48 230.6,33.08 203.72,79.47 l 36.46,21.05 c 19.32,-33.4 54.96,-54 93.55,-54.05 z"
       id="path12"
       style="fill:url(#linearGradient27)" />
    <rect
       class="cls-5"
       x="106.32"
       y="592.60999"
       width="42.110001"
       height="210.45"
       transform="rotate(-30,127.37687,697.83053)"
       id="rect12"
       style="fill:url(#linear-gradient-15)" />
    <rect
       class="cls-9"
       x="22.120001"
       y="226.42"
       width="210.45"
       height="42.110001"
       transform="rotate(-60,127.34226,247.47673)"
       id="rect13"
       style="fill:url(#linear-gradient-16)" />
    <rect
       class="cls-2"
       x="412.19"
       y="898.78003"
       width="210.45"
       height="42.110001"
       id="rect14"
       style="fill:url(#linear-gradient-17)" />
  </g>
  <g
     id="SimplyPrint_White"
     data-name="SimplyPrint White"
     transform="translate(0.00464112,-1.21)">
    <path
       class="cls-10"
       d="m 487.2,553.57 c 0.67,-12.67 -4.95,-24.86 -15.01,-32.59 -9.96,-7.6 -27.93,-15.58 -53.91,-23.96 -21.23,-6.46 -41.87,-14.73 -61.68,-24.74 -41.3,-22.32 -61.96,-52.38 -61.96,-90.15 -0.27,-18.86 5.56,-37.3 16.61,-52.58 12.21,-16.29 28.74,-28.82 47.72,-36.17 22.17,-8.91 45.88,-13.33 69.77,-12.99 23.9,-0.43 47.59,4.39 69.42,14.12 19.24,8.51 35.66,22.32 47.33,39.83 11.28,17.34 17.15,37.65 16.84,58.34 h -74.91 c 0,-16.65 -5.19,-29.61 -15.56,-38.89 -10.37,-9.28 -25.16,-13.86 -44.38,-13.73 -18.33,0 -32.59,3.89 -42.78,11.67 -9.81,7.05 -15.52,18.49 -15.25,30.57 0,11.82 5.95,21.73 17.85,29.71 11.9,7.99 29.43,15.48 52.58,22.48 42.63,12.96 73.74,28.87 93.34,47.72 19.28,18.47 29.88,44.21 29.21,70.9 0,31.48 -11.9,56.11 -35.7,73.9 -23.8,17.79 -55.85,26.73 -96.14,26.84 -26.29,0.28 -52.34,-5.02 -76.43,-15.56 -21.16,-8.66 -39.43,-23.15 -52.7,-41.77 -12.24,-18.32 -18.56,-39.97 -18.09,-62 h 75.18 c 0,40.14 23.97,60.19 71.91,60.17 17.81,0 31.71,-3.62 41.69,-10.85 9.82,-6.88 15.47,-18.28 15.01,-30.26 z"
       id="path14" />
    <path
       class="cls-10"
       d="m 2075.5244,558.52744 c 0.67,-12.67 -4.95,-24.86 -15.01,-32.59 -9.96,-7.6 -27.93,-15.58 -53.91,-23.96 -21.23,-6.46 -41.87,-14.73 -61.68,-24.74 -41.3,-22.32 -61.96,-52.38 -61.96,-90.15 -0.27,-18.86 5.56,-37.3 16.61,-52.58 12.21,-16.29 28.74,-28.82 47.72,-36.17 22.17,-8.91 45.88,-13.33 69.77,-12.99 23.9,-0.43 47.59,4.39 69.42,14.12 19.24,8.51 35.66,22.32 47.33,39.83 11.28,17.34 17.15,37.65 16.84,58.34 h -74.91 c 0,-16.65 -5.19,-29.61 -15.56,-38.89 -10.37,-9.28 -25.16,-13.86 -44.38,-13.73 -18.33,0 -32.59,3.89 -42.78,11.67 -9.81,7.05 -15.52,18.49 -15.25,30.57 0,11.82 5.95,21.73 17.85,29.71 11.9,7.99 29.43,15.48 52.58,22.48 42.63,12.96 73.74,28.87 93.34,47.72 19.28,18.47 29.88,44.21 29.21,70.9 0,31.48 -11.9,56.11 -35.7,73.9 -23.8,17.79 -55.85,26.73 -96.14,26.84 -26.29,0.28 -52.34,-5.02 -76.43,-15.56 -21.16,-8.66 -39.43,-23.15 -52.7,-41.77 -12.24,-18.32 -18.56,-39.97 -18.09,-62 h 75.18 c 0,40.14 23.97,60.19 71.91,60.17 17.81,0 31.71,-3.62 41.69,-10.85 9.82,-6.88 15.47,-18.28 15.01,-30.26 z"
       id="path14-6"
       style="fill:#ffffff;stroke-width:0px" />
    <path
       class="cls-10"
       d="m 607.8,308.93 c -0.31,-10.05 3.63,-19.76 10.85,-26.76 17.22,-13.96 41.86,-13.96 59.08,0 14.69,14.89 14.69,38.82 0,53.71 -17.06,14 -41.63,14 -58.69,0 -7.46,-6.94 -11.56,-16.77 -11.24,-26.95 z m 76.66,340.12 H 612.04 V 378.94 h 72.42 z"
       id="path15" />
    <path
       class="cls-10"
       d="m 811.57,378.94 2.26,30.22 c 19.14,-23.34 45.06,-35 77.79,-35 34.82,0 58.72,13.73 71.68,41.19 18.9,-27.72 45.92,-41.58 81.05,-41.58 29.27,0 51.08,8.53 65.42,25.59 14.34,17.06 21.49,42.74 21.47,77.05 v 172.57 h -72.42 V 476.64 c 0,-15.3 -2.99,-26.49 -8.98,-33.56 -5.99,-7.08 -16.57,-10.62 -31.74,-10.62 -21.62,0 -36.6,10.37 -44.92,31.11 l 0.23,185.56 H 901.22 V 476.91 c 0,-15.56 -3.07,-26.89 -9.22,-33.99 -6.18,-6.96 -16.65,-10.46 -31.46,-10.46 -20.51,0 -35.33,8.49 -44.45,25.48 V 648.98 H 743.9 V 378.94 Z"
       id="path16" />
    <path
       class="cls-10"
       d="m 2857.14,379.01 2.26,30.22 c 19.14,-23.34 45.06,-35 77.79,-35 34.82,0 58.72,13.73 71.68,41.19 18.9,-27.72 45.92,-41.58 81.05,-41.58 29.27,0 51.08,8.53 65.42,25.59 14.34,17.06 21.49,42.74 21.47,77.05 v 172.57 h -72.42 V 476.71 c 0,-15.3 -2.99,-26.49 -8.98,-33.56 -5.99,-7.08 -16.57,-10.62 -31.74,-10.62 -21.62,0 -36.6,10.37 -44.92,31.11 l 0.23,185.56 h -72.19 V 476.98 c 0,-15.56 -3.07,-26.89 -9.22,-33.99 -6.18,-6.96 -16.65,-10.46 -31.46,-10.46 -20.51,0 -35.33,8.49 -44.45,25.48 v 191.04 h -72.19 V 379.01 Z"
       id="path16-6"
       style="fill:#ffffff;stroke-width:0px" />
    <path
       class="cls-10"
       d="m 2264.49,373.959 2.26,102.22 c 19.14,-23.34 45.06,-35 77.79,-35 98.3637,2.47902 70.2976,40.30736 81.79,202.97 h -72.19 v -100.22 c 0,-15.56 -3.07,-26.89 -9.22,-33.99 -6.18,-6.96 -16.65,-10.46 -31.46,-10.46 -20.51,0 -35.33,8.49 -44.45,25.48 v 119.04 h -72.19 v -270.04 z"
       id="path16-6-9"
       style="fill:#ffffff;stroke-width:0px"
       sodipodi:nodetypes="ccsccscsccccc" />
    <path
       class="cls-10"
       d="m 1429.89,516.35 c 0,41.49 -9.44,74.83 -28.31,100.03 -18.88,25.2 -44.39,37.73 -76.54,37.57 -27.3,0 -49.34,-9.49 -66.12,-28.47 v 127.38 h -72.26 V 378.94 h 66.94 l 2.49,26.49 c 16.59,-20.62 41.84,-32.32 68.3,-31.66 33.29,0 59.22,12.32 77.79,36.95 18.57,24.63 27.8,58.6 27.69,101.9 l 0.04,3.73 z m -72.15,-5.17 c 0,-25.12 -4.46,-44.57 -13.38,-58.34 -8.32,-13.34 -23.19,-21.16 -38.89,-20.46 -22.64,0 -38.19,8.66 -46.67,25.98 v 110.61 c 8.84,17.81 24.58,26.72 47.22,26.72 34.51,0.05 51.75,-28.12 51.73,-84.51 z"
       id="path17" />
    <path
       class="cls-10"
       d="m 3475.46,516.4465 c 0,41.49 -9.44,74.83 -28.31,100.03 -18.88,25.2 -44.39,37.73 -76.54,37.57 -27.3,0 -49.34,-9.49 -66.12,-28.47 v 127.38 h -72.26 v -373.92 h 66.94 l 2.49,26.49 c 16.59,-20.62 41.84,-32.32 68.3,-31.66 33.29,0 59.22,12.32 77.79,36.95 18.57,24.63 27.8,58.6 27.69,101.9 l 0.04,3.73 z m -72.15,-5.17 c 0,-25.12 -4.46,-44.57 -13.38,-58.34 -8.32,-13.34 -23.19,-21.16 -38.89,-20.46 -22.64,0 -38.19,8.66 -46.67,25.98 v 110.61 c 8.84,17.81 24.58,26.72 47.22,26.72 34.51,0.05 51.75,-28.12 51.73,-84.51 z"
       id="path17-3"
       style="fill:#ffffff;stroke-width:0px" />
    <path
       class="cls-10"
       d="m 1550.77,648.97 h -72.42 v -383.6 h 72.42 z"
       id="path18" />
    <path
       class="cls-10"
       d="m 1711.09,546.84 49.94,-167.9 h 77.44 l -108.63,312.16 -5.99,14.23 c -16.18,35.31 -42.82,52.97 -79.93,52.97 -10.83,-0.04 -21.6,-1.64 -31.97,-4.74 v -54.92 l 11.01,0.27 c 13.64,0 23.83,-2.09 30.57,-6.26 7.42,-4.99 12.99,-12.27 15.87,-20.73 l 8.48,-22.21 -94.63,-270.77 h 77.79 l 50.06,167.9 z"
       id="path19" />
    <path
       class="cls-10"
       d="m 2620.66,446.42 c -8.61,-1.24 -17.29,-1.91 -25.98,-1.98 -27.3,0 -45.21,9.24 -53.71,27.73 v 176.81 h -72.15 V 378.94 H 2537 l 1.98,32.24 c 14.52,-24.81 34.59,-37.22 60.21,-37.22 7.6,-0.04 15.16,1.05 22.44,3.23 z"
       id="path21" />
    <path
       class="cls-10"
       d="m 2654.85,308.93 c -0.3,-10.12 3.73,-19.88 11.08,-26.84 17.18,-14.03 41.86,-14.03 59.04,0 14.74,14.87 14.74,38.84 0,53.71 -17.06,14 -41.63,14 -58.69,0 -7.5,-6.9 -11.66,-16.69 -11.43,-26.88 z m 76.7,340.12 h -72.42 V 378.94 h 72.42 z"
       id="path22" />
  </g>
  <g
     id="Copyright_White"
     data-name="Copyright White"
     transform="translate(518.00464,-1.21)">
    <path
       class="cls-17"
       d="m 3091.11,314.32 c 0,37.53 -29.46,66.99 -67.8,66.99 -38.34,0 -68.2,-29.46 -68.2,-66.99 0,-37.53 30.27,-66.18 68.2,-66.18 37.93,0 67.8,29.46 67.8,66.18 z m -119.04,0 c 0,29.46 21.79,52.87 51.65,52.87 29.86,0 50.44,-23.41 50.44,-52.46 0,-29.05 -21.39,-53.27 -50.85,-53.27 -29.46,0 -51.25,23.81 -51.25,52.87 z m 40.76,34.71 h -15.33 v -66.18 c 6.05,-1.21 14.53,-2.02 25.42,-2.02 12.51,0 18.16,2.02 23,4.84 3.63,2.83 6.46,8.07 6.46,14.53 0,7.26 -5.65,12.91 -13.72,15.34 v 0.81 c 6.46,2.42 10.09,7.26 12.11,16.14 2.02,10.09 3.23,14.12 4.84,16.55 h -16.54 c -2.02,-2.42 -3.23,-8.47 -5.25,-16.14 -1.21,-7.26 -5.25,-10.49 -13.72,-10.49 h -7.27 v 26.63 z m 0.41,-37.53 h 7.26 c 8.48,0 15.33,-2.82 15.33,-9.68 0,-6.05 -4.44,-10.09 -14.12,-10.09 -4.03,0 -6.86,0.4 -8.47,0.81 v 18.97 z"
       id="path25"
       style="fill:url(#linear-gradient-18)" />
    <path
       class="cls-10"
       d="m 3091.11,314.32 c 0,37.53 -29.46,66.99 -67.8,66.99 -38.34,0 -68.2,-29.46 -68.2,-66.99 0,-37.53 30.27,-66.18 68.2,-66.18 37.93,0 67.8,29.46 67.8,66.18 z m -119.04,0 c 0,29.46 21.79,52.87 51.65,52.87 29.86,0 50.44,-23.41 50.44,-52.46 0,-29.05 -21.39,-53.27 -50.85,-53.27 -29.46,0 -51.25,23.81 -51.25,52.87 z m 40.76,34.71 h -15.33 v -66.18 c 6.05,-1.21 14.53,-2.02 25.42,-2.02 12.51,0 18.16,2.02 23,4.84 3.63,2.83 6.46,8.07 6.46,14.53 0,7.26 -5.65,12.91 -13.72,15.34 v 0.81 c 6.46,2.42 10.09,7.26 12.11,16.14 2.02,10.09 3.23,14.12 4.84,16.55 h -16.54 c -2.02,-2.42 -3.23,-8.47 -5.25,-16.14 -1.21,-7.26 -5.25,-10.49 -13.72,-10.49 h -7.27 v 26.63 z m 0.41,-37.53 h 7.26 c 8.48,0 15.33,-2.82 15.33,-9.68 0,-6.05 -4.44,-10.09 -14.12,-10.09 -4.03,0 -6.86,0.4 -8.47,0.81 v 18.97 z"
       id="path26" />
  </g>
</svg>
