<?xml version="1.0" encoding="UTF-8" standalone="no"?>
<!-- Created with Inkscape (http://www.inkscape.org/) -->

<svg
   width="210mm"
   height="297mm"
   viewBox="0 0 210 297"
   version="1.1"
   id="svg5"
   sodipodi:docname="background.svg"
   inkscape:version="1.1.2 (0a00cf5339, 2022-02-04)"
   xmlns:inkscape="http://www.inkscape.org/namespaces/inkscape"
   xmlns:sodipodi="http://sodipodi.sourceforge.net/DTD/sodipodi-0.dtd"
   xmlns="http://www.w3.org/2000/svg"
   xmlns:svg="http://www.w3.org/2000/svg">
  <sodipodi:namedview
     id="namedview7"
     pagecolor="#ffffff"
     bordercolor="#666666"
     borderopacity="1.0"
     inkscape:pageshadow="2"
     inkscape:pageopacity="0.0"
     inkscape:pagecheckerboard="0"
     inkscape:document-units="mm"
     showgrid="true"
     inkscape:zoom="0.74742565"
     inkscape:cx="628.82509"
     inkscape:cy="378.63298"
     inkscape:window-width="1920"
     inkscape:window-height="1011"
     inkscape:window-x="0"
     inkscape:window-y="32"
     inkscape:window-maximized="1"
     inkscape:current-layer="layer1">
    <inkscape:grid
       type="xygrid"
       id="grid861" />
  </sodipodi:namedview>
  <defs
     id="defs2" />
  <g
     inkscape:label="Layer 1"
     inkscape:groupmode="layer"
     id="layer1">
    <path
       style="fill:none;stroke:#000000;stroke-width:0.264583px;stroke-linecap:butt;stroke-linejoin:miter;stroke-opacity:1"
       d="m 0,0 10.583333,10.583333 h 10.583333 15.875 L 47.624999,0 H 58.208333 68.791666 L 79.374999,10.583333 H 89.958332 100.54167 L 111.125,0 h 10.58333 10.58333 L 142.875,10.583333 h 10.58333 10.58333 L 174.625,0 h 10.58333 10.58333 L 206.375,10.583333 h 10.58333"
       id="path863"
       sodipodi:nodetypes="ccccccccccccccccccccc" />
    <path
       style="fill:none;stroke:#000000;stroke-width:0.264583px;stroke-linecap:butt;stroke-linejoin:miter;stroke-opacity:1"
       d="M 216.95834,31.75 206.375,21.166667 h -10.58333 -15.875 L 169.33334,31.75 H 158.75 148.16667 L 137.58334,21.166667 H 127 116.41667 L 105.83334,31.75 H 95.250003 84.666673 L 74.083333,21.166667 H 63.500003 52.916673 L 42.333333,31.75 H 31.750003 21.166673 L 10.583333,21.166667 H 3.1233333e-6"
       id="path863-5"
       sodipodi:nodetypes="ccccccccccccccccccccc" />
    <path
       style="fill:none;stroke:#000000;stroke-width:0.264583px;stroke-linecap:butt;stroke-linejoin:miter;stroke-opacity:1"
       d="M 216.95833,71.4375 206.375,60.854167 h -10.58334 -15.875 L 169.33333,71.4375 H 158.75 148.16666 L 137.58333,60.854167 H 127 116.41666 L 105.83333,71.4375 H 95.25 84.66667 L 74.08333,60.854167 H 63.5 52.91667 L 42.33333,71.4375 H 31.75 21.16667 L 10.58333,60.854167 H 3.0092431e-7"
       id="path863-3"
       sodipodi:nodetypes="ccccccccccccccccccccc" />
    <path
       style="fill:none;stroke:#000000;stroke-width:0.264583px;stroke-linecap:butt;stroke-linejoin:miter;stroke-opacity:1"
       d="M -9.6990757e-6,39.6875 10.58333,50.270833 h 10.58333 15.875 L 47.62499,39.6875 h 10.58334 10.58333 l 10.58333,10.583333 h 10.58334 10.58333 L 111.12499,39.6875 h 10.58334 10.58333 L 142.875,50.270833 h 10.58333 10.58333 L 174.625,39.6875 h 10.58333 10.58333 L 206.375,50.270833 h 10.58333"
       id="path863-5-5"
       sodipodi:nodetypes="ccccccccccccccccccccc" />
    <path
       style="fill:none;stroke:#000000;stroke-width:0.264583px;stroke-linecap:butt;stroke-linejoin:miter;stroke-opacity:1"
       d="M 6.6666666e-6,79.375 10.58334,89.958333 h 10.583333 15.875 L 47.625006,79.375 H 58.20834 68.791673 L 79.375006,89.958333 H 89.958339 100.54168 L 111.12501,79.375 h 10.58332 10.58333 L 142.875,89.958333 h 10.58333 10.58333 L 174.625,79.375 h 10.58333 10.58333 L 206.375,89.958333 h 10.58333"
       id="path863-6"
       sodipodi:nodetypes="ccccccccccccccccccccc" />
    <path
       style="fill:none;stroke:#000000;stroke-width:0.264583px;stroke-linecap:butt;stroke-linejoin:miter;stroke-opacity:1"
       d="M 216.95834,111.125 206.375,100.54167 h -10.58333 -15.875 L 169.33334,111.125 H 158.75 148.16667 L 137.58334,100.54167 H 127 116.41668 L 105.83335,111.125 H 95.25001 84.66668 L 74.08334,100.54167 H 63.50001 52.91668 L 42.33334,111.125 H 31.75001 21.16668 L 10.58334,100.54167 H 9.6666666e-6"
       id="path863-5-2"
       sodipodi:nodetypes="ccccccccccccccccccccc" />
    <path
       style="fill:none;stroke:#000000;stroke-width:0.264583px;stroke-linecap:butt;stroke-linejoin:miter;stroke-opacity:1"
       d="M 216.95833,150.8125 206.375,140.22917 h -10.58334 -15.875 L 169.33333,150.8125 H 158.75 148.16666 L 137.58333,140.22917 H 127 116.41667 L 105.83334,150.8125 H 95.250007 84.666677 L 74.083337,140.22917 H 63.500007 52.916677 L 42.333337,150.8125 H 31.750007 21.166677 L 10.583337,140.22917 H 6.6666666e-6"
       id="path863-3-9"
       sodipodi:nodetypes="ccccccccccccccccccccc" />
    <path
       style="fill:none;stroke:#000000;stroke-width:0.264583px;stroke-linecap:butt;stroke-linejoin:miter;stroke-opacity:1"
       d="M -3.3333334e-6,119.0625 10.583337,129.64583 h 10.58333 15.875 l 10.58333,-10.58333 h 10.58334 10.58333 l 10.58333,10.58333 h 10.58334 10.583333 L 111.125,119.0625 h 10.58333 10.58333 l 10.58334,10.58333 h 10.58333 10.58333 L 174.625,119.0625 h 10.58333 10.58333 l 10.58334,10.58333 h 10.58333"
       id="path863-5-5-1"
       sodipodi:nodetypes="ccccccccccccccccccccc" />
    <path
       style="fill:none;stroke:#000000;stroke-width:0.264583px;stroke-linecap:butt;stroke-linejoin:miter;stroke-opacity:1"
       d="M 6.6666663e-7,158.75 10.583334,169.33333 h 10.583333 15.875 L 47.625,158.75 h 10.583334 10.583333 l 10.58333,10.58333 h 10.58334 10.583343 L 111.12501,158.75 h 10.58332 10.58333 l 10.58334,10.58333 h 10.58333 10.58333 L 174.625,158.75 h 10.58333 10.58333 l 10.58334,10.58333 h 10.58333"
       id="path863-6-2"
       sodipodi:nodetypes="ccccccccccccccccccccc" />
    <path
       style="fill:none;stroke:#000000;stroke-width:0.264583px;stroke-linecap:butt;stroke-linejoin:miter;stroke-opacity:1"
       d="M 216.95834,190.5 206.375,179.91667 h -10.58333 -15.875 L 169.33334,190.5 H 158.75 148.16667 L 137.58334,179.91667 H 127 116.41668 L 105.83335,190.5 H 95.250007 84.666677 L 74.083337,179.91667 H 63.500004 52.916674 L 42.333334,190.5 H 31.750004 21.166674 L 10.583334,179.91667 H 3.6666666e-6"
       id="path863-5-2-7"
       sodipodi:nodetypes="ccccccccccccccccccccc" />
    <path
       style="fill:none;stroke:#000000;stroke-width:0.264583px;stroke-linecap:butt;stroke-linejoin:miter;stroke-opacity:1"
       d="M 216.95833,230.1875 206.375,219.60417 h -10.58334 -15.875 L 169.33333,230.1875 H 158.75 148.16666 L 137.58333,219.60417 H 127 116.41667 L 105.83334,230.1875 H 95.249997 84.666667 L 74.083327,219.60417 H 63.500001 52.916671 L 42.333331,230.1875 H 31.750001 21.166671 L 10.583331,219.60417 H 6.6666661e-7"
       id="path863-3-9-0"
       sodipodi:nodetypes="ccccccccccccccccccccc" />
    <path
       style="fill:none;stroke:#000000;stroke-width:0.264583px;stroke-linecap:butt;stroke-linejoin:miter;stroke-opacity:1"
       d="M -9.3333334e-6,198.4375 10.583331,209.02083 h 10.58333 15.875 l 10.58333,-10.58333 h 10.58334 10.58333 l 10.583326,10.58333 h 10.58334 10.583343 L 111.125,198.4375 h 10.58333 10.58333 l 10.58334,10.58333 h 10.58333 10.58333 L 174.625,198.4375 h 10.58333 10.58333 l 10.58334,10.58333 h 10.58333"
       id="path863-5-5-1-9"
       sodipodi:nodetypes="ccccccccccccccccccccc" />
    <path
       style="fill:none;stroke:#000000;stroke-width:0.264583px;stroke-linecap:butt;stroke-linejoin:miter;stroke-opacity:1"
       d="M -6.6333334e-6,238.125 10.583327,248.70833 h 10.583333 15.875 L 47.624993,238.125 H 58.208327 68.79166 l 10.583333,10.58333 H 89.958326 100.54167 L 111.125,238.125 h 10.58332 10.58333 l 10.58334,10.58333 h 10.58333 10.58333 L 174.62499,238.125 h 10.58333 10.58333 l 10.58334,10.58333 h 10.58333"
       id="path863-6-3"
       sodipodi:nodetypes="ccccccccccccccccccccc" />
    <path
       style="fill:none;stroke:#000000;stroke-width:0.264583px;stroke-linecap:butt;stroke-linejoin:miter;stroke-opacity:1"
       d="m 216.95833,269.875 -10.58334,-10.58333 h -10.58333 -15.875 L 169.33333,269.875 H 158.74999 148.16666 L 137.58333,259.29167 H 126.99999 116.41667 L 105.83334,269.875 H 95.249997 84.666667 L 74.083327,259.29167 H 63.499997 52.916667 L 42.333327,269.875 H 31.749997 21.166667 L 10.583327,259.29167 H -3.6333334e-6"
       id="path863-5-2-6"
       sodipodi:nodetypes="ccccccccccccccccccccc" />
    <path
       style="fill:none;stroke:#000000;stroke-width:0.264583px;stroke-linecap:butt;stroke-linejoin:miter;stroke-opacity:1"
       d="m 216.95832,309.5625 -10.58333,-10.58333 h -10.58334 -15.875 L 169.33332,309.5625 H 158.74999 148.16665 L 137.58332,298.97917 H 126.99999 116.41666 L 105.83333,309.5625 H 95.249987 84.666664 L 74.083324,298.97917 H 63.499994 52.916664 L 42.333324,309.5625 H 31.749994 21.166664 L 10.583324,298.97917 H -6.6333334e-6"
       id="path863-3-9-06"
       sodipodi:nodetypes="ccccccccccccccccccccc" />
    <path
       style="fill:none;stroke:#000000;stroke-width:0.264583px;stroke-linecap:butt;stroke-linejoin:miter;stroke-opacity:1"
       d="M -1.6633333e-5,277.8125 10.583324,288.39583 h 10.58333 15.875 l 10.58333,-10.58333 h 10.58334 10.58333 l 10.58333,10.58333 h 10.58334 10.583336 l 10.58333,-10.58333 h 10.58333 10.58333 l 10.58334,10.58333 h 10.58333 10.58333 l 10.58334,-10.58333 h 10.58333 10.58333 l 10.58334,10.58333 h 10.58333"
       id="path863-5-5-1-2"
       sodipodi:nodetypes="ccccccccccccccccccccc" />
    <path
       style="fill:none;stroke:#000000;stroke-width:0.264583px;stroke-linecap:butt;stroke-linejoin:miter;stroke-opacity:1"
       d="M 0,0 V 301.625 H 211.66666 V 0 Z"
       id="path2647" />
    <path
       style="opacity:0.45;fill:#ff0000;stroke-width:1.33793"
       d="M 60.875621,99.006504 40.840192,78.937618 H 21.089058 1.3379257 V 41.158522 3.3794261 L 20.420106,22.427562 39.502287,41.475698 H 89.674492 139.8467 L 159.88212,21.406812 179.91755,1.3379257 h 39.50227 39.50227 l 20.03542,20.0688863 20.03543,20.068886 h 40.84019 40.8402 L 400.70876,21.406812 420.74418,1.3379257 h 39.50227 39.50227 l 20.03542,20.0688863 20.03543,20.068886 h 40.17123 40.17124 L 640.19746,21.406812 660.23288,1.3379257 h 39.50228 39.50227 l 20.03542,20.0688863 20.03542,20.068886 h 9.7167 9.71669 V 69.201773 96.92785 l -9.06458,-8.995117 -9.06457,-8.995115 H 729.78818 678.96384 L 658.92842,99.006504 638.893,119.07539 H 600.05969 561.22638 L 541.19096,99.006504 521.15553,78.937618 h -40.84019 -40.8402 L 419.43972,99.006504 399.40429,119.07539 H 359.90202 320.39975 L 300.36433,99.006504 280.3289,78.937618 h -40.84019 -40.8402 L 178.61308,99.006504 158.57766,119.07539 H 119.74435 80.911049 Z"
       id="path2686"
       transform="scale(0.26458333)" />
    <path
       style="opacity:0.45;fill:#ff0000;stroke-width:1.33793"
       d="M 60.875621,248.85419 40.840192,228.7853 H 21.089058 1.3379257 v -37.7791 -37.77909 l 19.0821803,19.04813 19.082181,19.04814 h 50.841168 50.841175 l 20.03542,-20.06889 20.03542,-20.06888 h 38.83331 38.83331 l 20.03542,20.06888 20.03543,20.06889 h 40.84019 40.8402 l 20.03543,-20.06889 20.03542,-20.06888 h 39.50227 39.50227 l 20.03542,20.06888 20.03543,20.06889 h 40.17123 40.17124 l 20.03542,-20.06889 20.03542,-20.06888 h 39.50228 39.50227 l 20.03542,20.06888 20.03542,20.06889 h 9.7167 9.71669 v 27.72607 27.72608 l -9.06458,-8.99512 -9.06457,-8.99511 H 729.78818 678.96384 L 658.92842,248.85419 638.893,268.92307 H 600.05969 561.22638 L 541.19096,248.85419 521.15553,228.7853 h -40.84019 -40.8402 l -20.03542,20.06889 -20.03543,20.06888 H 359.90202 320.39975 L 300.36433,248.85419 280.3289,228.7853 h -40.84019 -40.8402 l -20.03543,20.06889 -20.03542,20.06888 H 119.74435 80.911049 Z"
       id="path2725"
       transform="scale(0.26458333)" />
    <path
       style="opacity:0.45;fill:#ff0000;stroke-width:1.33793"
       d="M 60.875621,398.70187 40.840192,378.63298 H 21.089058 1.3379257 v -37.77909 -37.7791 l 19.0821803,19.04813 19.082181,19.04814 h 50.841168 50.841175 l 20.03542,-20.06889 20.03542,-20.06888 h 38.83331 38.83331 l 20.03542,20.06888 20.03543,20.06889 h 40.84019 40.8402 l 20.03543,-20.06889 20.03542,-20.06888 h 39.50227 39.50227 l 20.03542,20.06888 20.03543,20.06889 h 40.17123 40.17124 l 20.03542,-20.06889 20.03542,-20.06888 h 39.50228 39.50227 l 20.03542,20.06888 20.03542,20.06889 h 9.7167 9.71669 v 27.72608 27.72607 l -9.06458,-8.99511 -9.06457,-8.99512 h -50.82433 -50.82434 l -20.03542,20.06889 -20.03542,20.06888 h -38.83331 -38.83331 l -20.03542,-20.06888 -20.03543,-20.06889 h -40.84019 -40.8402 l -20.03542,20.06889 -20.03543,20.06888 H 359.90202 320.39975 L 300.36433,398.70187 280.3289,378.63298 h -40.17123 -40.17124 l -20.03542,20.06889 -20.03542,20.06888 H 120.41332 80.911049 Z"
       id="path2764"
       transform="scale(0.26458333)" />
    <path
       style="opacity:0.45;fill:#ff0000;stroke-width:1.33793"
       d="M 60.875621,548.54955 40.840192,528.48066 H 21.089058 1.3379257 v -37.77909 -37.7791 l 19.0821803,19.04814 19.082181,19.04813 h 50.841168 50.841175 l 20.03542,-20.06888 20.03542,-20.06889 h 38.83331 38.83331 l 20.03542,20.06889 20.03543,20.06888 h 40.84019 40.8402 l 20.03543,-20.06888 20.03542,-20.06889 h 38.83331 38.8333 l 20.03543,20.06889 20.03542,20.06888 h 41.50916 41.50916 l 20.03543,-20.06888 20.03542,-20.06889 h 38.83331 38.83331 l 20.03542,20.06889 20.03542,20.06888 h 9.7167 9.71669 v 27.72608 27.72607 l -9.06458,-8.99511 -9.06457,-8.99512 h -50.82433 -50.82434 l -20.03542,20.06889 -20.03542,20.06888 h -39.50227 -39.50227 l -20.03543,-20.06888 -20.03542,-20.06889 h -40.17124 -40.17123 l -20.03542,20.06889 -20.03543,20.06888 H 359.90202 320.39975 L 300.36433,548.54955 280.3289,528.48066 h -40.17123 -40.17124 l -20.03542,20.06889 -20.03542,20.06888 H 120.41332 80.911049 Z"
       id="path2803"
       transform="scale(0.26458333)" />
    <path
       style="opacity:0.45;fill:#ff0000;stroke-width:1.33793"
       d="M 60.875621,698.39723 40.840192,678.32834 H 21.089058 1.3379257 v -37.77909 -37.7791 l 19.0821803,19.04814 19.082181,19.04813 h 50.841168 50.841175 l 20.03542,-20.06888 20.03542,-20.06889 h 38.83331 38.83331 l 20.03542,20.06889 20.03543,20.06888 h 40.84019 40.8402 l 20.03543,-20.06888 20.03542,-20.06889 h 38.83331 38.8333 l 20.03543,20.06889 20.03542,20.06888 h 41.50916 41.50916 l 20.03543,-20.06888 20.03542,-20.06889 h 38.83331 38.83331 l 20.03542,20.06889 20.03542,20.06888 h 9.7167 9.71669 v 27.72608 27.72608 l -9.06458,-8.99512 -9.06457,-8.99512 h -50.15537 -50.15537 l -20.03542,20.06889 -20.03543,20.06889 h -40.17123 -40.17123 l -20.03543,-20.06889 -20.03542,-20.06889 h -40.17124 -40.17123 l -20.03542,20.06889 -20.03543,20.06889 H 359.90202 320.39975 L 300.36433,698.39723 280.3289,678.32834 h -40.17123 -40.17124 l -20.03542,20.06889 -20.03542,20.06889 H 120.41332 80.911049 Z"
       id="path2842"
       transform="scale(0.26458333)" />
    <path
       style="opacity:0.45;fill:#ff0000;stroke-width:1.33793"
       d="M 60.206658,848.91387 40.841347,829.51395 H 21.089636 1.3379257 v -38.44806 -38.44806 l 19.0821803,19.04814 19.082181,19.04813 h 50.841168 50.841175 l 20.03542,-20.06888 20.03542,-20.06889 h 38.83331 38.83331 l 20.03542,20.06889 20.03543,20.06888 h 40.84019 40.8402 l 20.03543,-20.06888 20.03542,-20.06889 h 38.83331 38.8333 l 20.03543,20.06889 20.03542,20.06888 h 41.50916 41.50916 l 20.03543,-20.06888 20.03542,-20.06889 h 38.83331 38.83331 l 20.03542,20.06889 20.03542,20.06888 h 9.7167 9.71669 v 27.72331 27.72331 l -8.39804,-8.32338 -8.39803,-8.32339 h -51.49145 -51.49145 l -19.36531,19.39992 -19.36531,19.39993 H 600.05969 559.8873 l -19.36531,-19.39993 -19.36531,-19.39992 h -41.51031 -41.51031 l -19.36531,19.39992 -19.36531,19.39993 H 359.90202 320.3986 l -19.36531,-19.39993 -19.36531,-19.39992 h -41.51031 -41.51031 l -19.36531,19.39992 -19.36531,19.39993 H 119.74435 79.571969 Z"
       id="path2881"
       transform="scale(0.26458333)" />
    <path
       style="opacity:0.45;fill:#ff0000;stroke-width:1.33793"
       d="M 60.875621,999.43052 40.840192,979.36163 H 21.089058 1.3379257 v -37.77848 -37.77847 l 18.4137953,18.37855 18.413797,18.37856 h 51.510129 51.510133 l 19.36531,-19.39993 19.36531,-19.39992 h 40.17238 40.17239 l 19.36531,19.39992 19.36531,19.39993 h 41.51031 41.51031 l 19.36531,-19.39993 19.36531,-19.39992 h 39.50342 39.50342 l 19.36531,19.39992 19.36531,19.39993 h 41.51031 41.51031 l 19.36531,-19.39993 19.36531,-19.39992 h 40.21479 40.21478 l 19.23457,19.39992 19.23457,19.39993 h 9.80561 9.80561 v 28.39503 28.39504 l -9.06458,-8.99511 -9.06457,-8.99512 h -50.82433 -50.82434 l -20.03542,20.06889 -20.03542,20.06888 h -38.83331 -38.83331 l -20.03542,-20.06888 -20.03543,-20.06889 h -41.50916 -41.50916 l -20.03542,20.06889 -20.03542,20.06888 h -38.16435 -38.16434 l -20.03543,-20.06888 -20.03542,-20.06889 h -41.50916 -41.50916 l -20.03543,20.06889 -20.03542,20.06888 H 119.74435 80.911049 Z"
       id="path2920"
       transform="scale(0.26458333)" />
    <path
       style="opacity:0.45;fill:#ff0000;stroke-width:1.33793"
       d="m 45.489475,1133.8921 -4.538691,-4.6828 H 21.144355 1.3379257 v -37.7791 -37.7791 l 19.0821803,19.0482 19.082181,19.0481 H 89.674492 139.8467 l 20.03542,-20.0689 20.03543,-20.0689 h 40.17123 40.17124 l 20.03542,20.0689 20.03542,20.0689 h 40.17124 40.17123 l 20.03543,-20.0689 20.03542,-20.0689 h 39.50227 39.50227 l 20.03542,20.0689 20.03543,20.0689 h 40.17123 40.17124 l 20.03542,-20.0689 20.03542,-20.0689 h 39.50228 39.50227 l 20.03542,20.0689 20.03542,20.0689 h 9.7167 9.71669 v 23.4137 23.4137 h -4.42028 c -3.2953,0 -5.57542,-1.1918 -8.95898,-4.6827 l -4.53868,-4.6828 h -50.98524 -50.98523 l -4.53868,4.6828 -4.53869,4.6827 H 600.05969 530.3435 l -4.53869,-4.6827 -4.53868,-4.6828 h -40.95079 -40.95079 l -4.53869,4.6828 -4.53868,4.6827 h -69.7162 -69.71619 l -4.53868,-4.6827 -4.53869,-4.6828 h -41.61975 -41.61975 l -4.53869,4.6828 -4.53869,4.6827 H 119.74435 50.028166 Z"
       id="path2959"
       transform="scale(0.26458333)" />
    <path
       style="opacity:0.45;fill:#00ff00;fill-opacity:1;stroke-width:1.33793"
       d="M 281.63337,20.068886 262.93825,1.3379257 h 76.89488 76.89489 L 398.0329,20.068886 379.33779,38.799846 h -39.50466 -39.50465 z"
       id="path2998"
       transform="scale(0.26458333)" />
    <path
       style="opacity:0.45;fill:#00ff00;fill-opacity:1;stroke-width:1.33793"
       d="M 522.46,20.068886 503.76488,1.3379257 h 76.22592 76.22593 L 637.52161,20.068886 618.8265,38.799846 h -38.8357 -38.83569 z"
       id="path3259"
       transform="scale(0.26458333)" />
    <path
       style="opacity:0.45;fill:#00ff00;fill-opacity:1;stroke-width:1.33793"
       d="M 22.075774,20.068886 3.380663,1.3379257 H 90.309987 177.23932 L 158.5442,20.068886 139.84908,38.799846 H 90.309987 40.770886 Z"
       id="path3298"
       transform="scale(0.26458333)" />
    <path
       style="opacity:0.45;fill:#00ff00;fill-opacity:1;stroke-width:1.33793"
       d="M 21.055602,168.89692 1.3379257,149.14632 V 115.3799 81.613469 H 20.420095 39.502266 l 20.035429,20.068891 20.035428,20.06888 h 40.171227 40.17124 l 20.03542,-20.06888 20.03542,-20.068891 h 40.17124 40.17123 l 20.03543,20.068891 20.03542,20.06888 h 40.17123 40.17124 l 20.03542,-20.06888 20.03543,-20.068891 h 39.50227 39.50227 l 20.03542,20.068891 20.03543,20.06888 h 40.17123 40.17123 l 20.03543,-20.06888 20.03542,-20.068891 h 49.48852 49.48852 l 9.73142,9.666477 9.73143,9.666474 v 43.85055 43.85056 h -9.04772 -9.04774 l -20.03542,-20.06889 -20.03543,-20.06888 h -40.33738 -40.33736 l -19.79173,20.06888 -19.79172,20.06889 H 580.73733 541.1575 l -20.03543,-20.06889 -20.03542,-20.06888 h -40.8402 -40.8402 l -20.03542,20.06888 -20.03542,20.06889 h -39.50228 -39.50227 l -20.03542,-20.06889 -20.03542,-20.06888 h -40.17124 -40.17123 l -20.03543,20.06888 -20.03542,20.06889 H 90.309987 40.773277 Z"
       id="path3337"
       transform="scale(0.26458333)" />
    <path
       style="opacity:0.45;fill:#00ff00;fill-opacity:1;stroke-width:1.33793"
       d="M 761.9487,20.068886 743.25359,1.3379257 h 27.74403 27.74404 v 18.7309603 18.73096 h -9.04892 -9.04893 z"
       id="path3376"
       transform="scale(0.26458333)" />
    <path
       style="opacity:0.45;fill:#00ff00;fill-opacity:1;stroke-width:1.33793"
       d="M 21.055602,318.74461 1.3379257,298.994 V 265.22758 231.46115 H 20.420095 39.502266 l 20.035429,20.06889 20.035428,20.06888 h 40.171227 40.17124 l 20.03542,-20.06888 20.03542,-20.06889 h 39.50228 39.50227 l 20.03542,20.06889 20.03542,20.06888 h 40.8402 40.8402 l 20.03542,-20.06888 20.03543,-20.06889 h 39.50227 39.50227 l 20.03542,20.06889 20.03543,20.06888 h 40.17123 40.17123 l 20.03543,-20.06888 20.03542,-20.06889 h 49.48852 49.48852 l 9.73142,9.66648 9.73143,9.66647 v 43.85056 43.85055 h -9.04772 -9.04774 l -20.03542,-20.06889 -20.03543,-20.06888 h -40.17123 -40.17124 l -20.03542,20.06888 -20.03542,20.06889 H 579.9908 539.81957 l -20.03543,-20.06889 -20.03542,-20.06888 h -40.17123 -40.17124 l -20.03542,20.06888 -20.03542,20.06889 h -39.50228 -39.50227 l -20.03542,-20.06889 -20.03542,-20.06888 h -40.17124 -40.17123 l -20.03543,20.06888 -20.03542,20.06889 H 90.309987 40.773277 Z"
       id="path3415"
       transform="scale(0.26458333)" />
    <path
       style="opacity:0.45;fill:#00ff00;fill-opacity:1;stroke-width:1.33793"
       d="M 21.055602,468.59229 1.3379257,448.84168 V 415.07526 381.30883 H 20.420095 39.502266 l 20.035429,20.06889 20.035428,20.06888 h 40.171227 40.17124 l 20.03542,-20.06888 20.03542,-20.06889 h 39.50228 39.50227 l 20.03542,20.06889 20.03542,20.06888 h 40.8402 40.8402 l 20.03542,-20.06888 20.03543,-20.06889 h 39.50227 39.50227 l 20.03542,20.06889 20.03543,20.06888 h 40.17123 40.17123 l 20.03543,-20.06888 20.03542,-20.06889 h 49.48852 49.48852 l 9.73142,9.66648 9.73143,9.66648 v 43.85055 43.85055 h -9.04772 -9.04774 L 760.61078,468.274 740.57535,448.20512 H 700.40412 660.23288 L 640.19746,468.274 620.16204,488.34289 H 579.9908 539.81957 L 519.78414,468.274 499.74872,448.20512 H 459.57749 419.40625 L 399.37083,468.274 379.33541,488.34289 H 339.83313 300.33086 L 280.29544,468.274 260.26002,448.20512 H 220.08878 179.91755 L 159.88212,468.274 139.8467,488.34289 H 90.309987 40.773277 Z"
       id="path3454"
       transform="scale(0.26458333)" />
    <path
       style="opacity:0.45;fill:#00ff00;fill-opacity:1;stroke-width:1.33793"
       d="M 21.055602,619.77789 1.3379257,600.02729 V 565.5919 531.15651 H 20.420095 39.502266 l 20.035429,20.06889 20.035428,20.06889 h 40.840197 40.84019 l 20.03543,-20.06889 20.03542,-20.06889 h 38.83331 38.83331 l 20.03542,20.06889 20.03542,20.06889 h 40.8402 40.8402 l 20.03542,-20.06889 20.03543,-20.06889 h 39.50227 39.50227 l 20.03542,20.06889 20.03543,20.06889 h 40.17123 40.17123 l 20.03543,-20.06889 20.03542,-20.06889 h 49.48852 49.48852 l 9.73142,9.66648 9.73143,9.66648 v 44.51951 44.51952 h -8.37876 -8.37877 L 761.9487,619.45961 741.91328,599.39073 h -41.50916 -41.50916 l -20.03543,20.06888 -20.03542,20.06889 H 579.9908 541.1575 L 521.12207,619.45961 501.08665,599.39073 H 459.57749 418.06833 L 398.0329,619.45961 377.99748,639.5285 H 339.83313 301.66879 L 281.63337,619.45961 261.59794,599.39073 H 220.08878 178.57962 L 158.5442,619.45961 138.50877,639.5285 H 89.641024 40.773277 Z"
       id="path3493"
       transform="scale(0.26458333)" />
    <path
       style="opacity:0.45;fill:#00ff00;fill-opacity:1;stroke-width:1.33793"
       d="M 21.055602,919.47326 1.3379257,899.72265 V 865.28727 830.85188 H 20.420095 39.502266 l 20.035429,20.06888 20.035428,20.06889 h 40.840197 40.84019 l 20.03543,-20.06889 20.03542,-20.06888 h 38.83331 38.83331 l 20.03542,20.06888 20.03542,20.06889 h 40.8402 40.8402 l 20.03542,-20.06889 20.03543,-20.06888 h 38.8333 38.83331 l 20.03543,20.06888 20.03542,20.06889 h 41.50916 41.50916 l 20.03542,-20.06889 20.03543,-20.06888 h 48.81955 48.81956 l 9.73142,9.66647 9.73143,9.66648 v 44.51951 44.51952 h -9.04772 -9.04774 l -20.03542,-20.06889 -20.03543,-20.06888 h -40.84019 -40.8402 l -20.03543,20.06888 -20.03542,20.06889 H 579.9908 541.1575 l -20.03543,-20.06889 -20.03542,-20.06888 h -40.8402 -40.8402 l -20.03542,20.06888 -20.03542,20.06889 H 340.5021 301.66879 l -20.03542,-20.06889 -20.03543,-20.06888 h -41.50916 -41.50916 l -20.03542,20.06888 -20.03543,20.06889 H 89.641024 40.773277 Z"
       id="path3532"
       transform="scale(0.26458333)" />
    <path
       style="opacity:0.45;fill:#00ff00;fill-opacity:1;stroke-width:1.33793"
       d="M 21.055602,769.62558 1.3379257,749.87497 V 715.43958 681.0042 H 20.420095 39.502266 l 20.035429,20.06888 20.035428,20.06889 h 40.840197 40.84019 l 20.03543,-20.06889 20.03542,-20.06888 h 38.83331 38.83331 l 20.03542,20.06888 20.03542,20.06889 h 40.8402 40.8402 l 20.03542,-20.06889 20.03543,-20.06888 h 39.57983 39.57983 l 19.79172,20.06888 19.79173,20.06889 h 40.33736 40.33738 l 20.03543,-20.06889 20.03542,-20.06888 h 49.48852 49.48852 l 9.73142,9.66647 9.73143,9.66648 v 44.51951 44.51952 h -9.04772 -9.04774 l -20.03542,-20.06889 -20.03543,-20.06888 h -40.84019 -40.8402 l -20.03543,20.06888 -20.03542,20.06889 H 579.9908 541.1575 l -20.03543,-20.06889 -20.03542,-20.06888 h -40.8402 -40.8402 l -20.03542,20.06888 -20.03542,20.06889 H 340.5021 301.66879 l -20.03542,-20.06889 -20.03543,-20.06888 h -41.50916 -41.50916 l -20.03542,20.06888 -20.03543,20.06889 H 89.641024 40.773277 Z"
       id="path3571"
       transform="scale(0.26458333)" />
    <path
       style="opacity:0.45;fill:#00ff00;fill-opacity:1;stroke-width:1.33793"
       d="M 21.055602,1069.3209 1.3379257,1049.5703 v -34.4354 -34.43534 H 20.461209 39.584493 l 19.908783,20.06884 19.908781,20.0689 h 40.925723 40.92573 l 20.03543,-20.0689 20.03542,-20.06884 h 38.83331 38.83331 l 20.03542,20.06884 20.03542,20.0689 h 40.8402 40.8402 l 20.03542,-20.0689 20.03543,-20.06884 h 38.8333 38.83331 l 20.03543,20.06884 20.03542,20.0689 h 41.50916 41.50916 l 20.03542,-20.0689 20.03543,-20.06884 h 48.81955 48.81956 l 9.73142,9.66647 9.73143,9.66647 v 44.5195 44.5195 h -9.04772 -9.04774 l -20.03542,-20.0688 -20.03543,-20.0689 h -40.84019 -40.8402 l -20.03543,20.0689 -20.03542,20.0688 H 579.9908 541.1575 l -20.03543,-20.0688 -20.03542,-20.0689 h -40.8402 -40.8402 l -20.03542,20.0689 -20.03542,20.0688 h -39.50228 -39.50227 l -20.03542,-20.0688 -20.03542,-20.0689 h -40.8402 -40.8402 l -20.03542,20.0689 -20.03543,20.0688 H 89.641024 40.773277 Z"
       id="path3610"
       transform="scale(0.26458333)" />
    <path
       style="opacity:0.45;fill:#00ffff;fill-opacity:1;stroke-width:1.33793"
       d="M 62.213546,99.006504 42.178118,78.937618 H 21.758021 1.3379257 V 41.828103 4.7185887 L 19.751721,23.097143 38.165518,41.475698 H 89.67507 141.18463 L 161.22005,21.406812 181.25547,1.3379257 h 38.16435 38.16434 l 20.03543,20.0688863 20.03542,20.068886 h 42.17812 42.17813 L 402.04668,21.406812 422.08211,1.3379257 h 38.16434 38.16434 l 20.03543,20.0688863 20.03542,20.068886 h 41.50916 41.50916 L 641.53539,21.406812 661.57081,1.3379257 h 38.16435 38.16434 l 20.03542,20.0688863 20.03543,20.068886 h 10.38566 10.38565 v 27.054346 27.054344 l -8.39804,-8.323384 -8.39803,-8.323386 H 729.78576 677.62592 L 657.59049,99.006504 637.55507,119.07539 H 600.05969 562.56431 L 542.52888,99.006504 522.49346,78.937618 H 480.31534 438.13721 L 418.10179,99.006504 398.06637,119.07539 H 359.90202 321.73768 L 301.70225,99.006504 281.66683,78.937618 H 239.48871 197.31058 L 177.27516,99.006504 157.23973,119.07539 H 119.74435 82.248975 Z"
       id="path4598"
       transform="scale(0.26458333)" />
    <path
       style="opacity:0.45;fill:#00ffff;fill-opacity:1;stroke-width:1.33793"
       d="m 459.99466,230.45996 c 11.26734,-0.22403 29.32934,-0.22354 40.13778,0.001 10.80844,0.22462 1.58971,0.40792 -20.48607,0.40732 -22.07577,-6e-4 -30.91904,-0.18439 -19.65171,-0.40841 z"
       id="path4637"
       transform="scale(0.26458333)" />
    <path
       style="opacity:0.45;fill:#00ffff;fill-opacity:1;stroke-width:1.33793"
       d="M 62.213546,248.85419 42.178118,228.7853 H 21.758021 1.3379257 v -37.10952 -37.10951 l 18.4137953,18.37855 18.413797,18.37856 h 52.178515 52.178517 l 20.03543,-20.06889 20.03542,-20.06888 h 37.49538 37.49538 l 20.03543,20.06888 20.03542,20.06889 h 42.17812 42.17813 l 20.03542,-20.06889 20.03543,-20.06888 h 38.16434 38.16434 l 20.03543,20.06888 20.03542,20.06889 h 41.50916 41.50916 l 20.03543,-20.06889 20.03542,-20.06888 h 38.16435 38.16434 l 20.03542,20.06888 20.03543,20.06889 h 10.38566 10.38565 v 27.05434 27.05435 l -8.39804,-8.32338 -8.39803,-8.32339 h -52.15983 -52.15984 l -20.03543,20.06889 -20.03542,20.06888 H 600.05969 562.56431 L 542.52888,248.85419 522.49346,228.7853 h -42.17812 -42.17813 l -20.03542,20.06889 -20.03542,20.06888 H 359.90202 321.73768 L 301.70225,248.85419 281.66683,228.7853 h -42.17812 -42.17813 l -20.03542,20.06889 -20.03543,20.06888 H 119.74435 82.248975 Z"
       id="path4676"
       transform="scale(0.26458333)" />
    <path
       style="opacity:0.45;fill:#00ffff;fill-opacity:1;stroke-width:1.33793"
       d="M 62.213546,398.70187 42.178118,378.63298 H 21.758021 1.3379257 v -37.10951 -37.10952 l 18.4137953,18.37856 18.413797,18.37855 h 52.178515 52.178517 l 20.03543,-20.06889 20.03542,-20.06888 h 37.49538 37.49538 l 20.03543,20.06888 20.03542,20.06889 h 42.17812 42.17813 l 20.03542,-20.06889 20.03543,-20.06888 h 38.16434 38.16434 l 20.03543,20.06888 20.03542,20.06889 h 41.50916 41.50916 l 20.03543,-20.06889 20.03542,-20.06888 h 38.16435 38.16434 l 20.03542,20.06888 20.03543,20.06889 h 10.38566 10.38565 v 27.05435 27.05434 l -8.39804,-8.32338 -8.39803,-8.32339 h -52.15983 -52.15984 l -20.03543,20.06889 -20.03542,20.06888 h -37.49538 -37.49538 l -20.03543,-20.06888 -20.03542,-20.06889 h -42.17812 -42.17813 l -20.03542,20.06889 -20.03542,20.06888 h -38.16435 -38.16434 l -20.03543,-20.06888 -20.03542,-20.06889 h -41.50916 -41.50916 l -20.03543,20.06889 -20.03542,20.06888 H 120.41332 82.248975 Z"
       id="path4715"
       transform="scale(0.26458333)" />
    <path
       style="opacity:0.45;fill:#00ffff;fill-opacity:1;stroke-width:1.33793"
       d="M 62.213546,548.54955 42.178118,528.48066 H 21.758021 1.3379257 v -37.10951 -37.10952 l 18.4137953,18.37856 18.413797,18.37855 h 52.178515 52.178517 l 20.03543,-20.06888 20.03542,-20.06889 h 37.49538 37.49538 l 20.03543,20.06889 20.03542,20.06888 h 42.17812 42.17813 l 20.03542,-20.06888 20.03543,-20.06889 h 37.49538 37.49538 l 20.03542,20.06889 20.03543,20.06888 h 42.84708 42.84709 l 20.03542,-20.06888 20.03543,-20.06889 h 37.49538 37.49538 l 20.03542,20.06889 20.03543,20.06888 h 10.38566 10.38565 v 27.05435 27.05434 l -8.39804,-8.32338 -8.39803,-8.32339 h -52.15983 -52.15984 l -20.03543,20.06889 -20.03542,20.06888 h -38.16434 -38.16435 l -20.03542,-20.06888 -20.03543,-20.06889 h -41.50916 -41.50916 l -20.03542,20.06889 -20.03542,20.06888 h -38.16435 -38.16434 l -20.03543,-20.06888 -20.03542,-20.06889 h -41.50916 -41.50916 l -20.03543,20.06889 -20.03542,20.06888 H 120.41332 82.248975 Z"
       id="path4754"
       transform="scale(0.26458333)" />
    <path
       style="opacity:0.45;fill:#00ffff;fill-opacity:1;stroke-width:1.33793"
       d="M 62.213546,698.39723 42.178118,678.32834 H 21.758021 1.3379257 v -37.10951 -37.10952 l 18.4137953,18.37856 18.413797,18.37855 h 52.178515 52.178517 l 20.03543,-20.06888 20.03542,-20.06889 h 37.49538 37.49538 l 20.03543,20.06889 20.03542,20.06888 h 42.17812 42.17813 l 20.03542,-20.06888 20.03543,-20.06889 h 37.49538 37.49538 l 20.03542,20.06889 20.03543,20.06888 h 42.84708 42.84709 l 20.03542,-20.06888 20.03543,-20.06889 h 37.49538 37.49538 l 20.03542,20.06889 20.03543,20.06888 h 10.38566 10.38565 v 27.05435 27.05434 l -8.39804,-8.32338 -8.39803,-8.32339 h -51.49087 -51.49088 l -20.03542,20.06889 -20.03542,20.06889 h -38.83331 -38.83331 l -20.03542,-20.06889 -20.03543,-20.06889 h -41.50916 -41.50916 l -20.03542,20.06889 -20.03542,20.06889 h -38.16435 -38.16434 l -20.03543,-20.06889 -20.03542,-20.06889 h -41.50916 -41.50916 l -20.03543,20.06889 -20.03542,20.06889 H 120.41332 82.248975 Z"
       id="path4793"
       transform="scale(0.26458333)" />
    <path
       style="opacity:0.45;fill:#00ffff;fill-opacity:1;stroke-width:1.33793"
       d="M 61.544583,848.91387 42.179273,829.51395 H 21.758599 1.3379257 V 791.73547 753.957 l 18.4137953,18.37855 18.413797,18.37855 h 52.178515 52.178517 l 20.03543,-20.06888 20.03542,-20.06889 h 37.49538 37.49538 l 20.03543,20.06889 20.03542,20.06888 h 42.17812 42.17813 l 20.03542,-20.06888 20.03543,-20.06889 h 37.49538 37.49538 l 20.03542,20.06889 20.03543,20.06888 h 42.84708 42.84709 l 20.03542,-20.06888 20.03543,-20.06889 h 37.49538 37.49538 l 20.03542,20.06889 20.03543,20.06888 h 10.38566 10.38565 v 27.05112 27.05111 l -7.73187,-7.65119 -7.73186,-7.65119 h -52.82658 -52.82658 l -19.36531,19.39992 -19.36531,19.39993 h -38.83446 -38.83446 l -19.36531,-19.39993 -19.36531,-19.39992 h -42.84824 -42.84823 l -19.36531,19.39992 -19.36531,19.39993 h -38.1655 -38.16549 L 302.37121,848.91387 283.0059,829.51395 h -42.84823 -42.84824 l -19.36531,19.39992 -19.36531,19.39993 H 119.74435 80.909894 Z"
       id="path4832"
       transform="scale(0.26458333)" />
    <path
       style="opacity:0.45;fill:#00ffff;fill-opacity:1;stroke-width:1.33793"
       d="M 62.213546,999.43052 42.178118,979.36163 H 21.758021 1.3379257 v -37.10885 -37.10885 l 17.7454533,17.70893 17.745452,17.70893 H 89.676267 142.5237 l 19.36531,-19.39993 19.36531,-19.39992 h 38.83446 38.83446 l 19.36531,19.39992 19.36531,19.39993 h 42.84824 42.84823 l 19.36531,-19.39993 19.36531,-19.39992 h 38.1655 38.1655 l 19.36531,19.39992 19.36531,19.39993 h 42.84823 42.84824 l 19.36531,-19.39993 19.36531,-19.39992 h 38.83446 38.83446 l 19.36531,19.39992 19.36531,19.39993 h 10.38624 10.38622 v 27.7233 27.72331 l -8.39804,-8.32338 -8.39803,-8.32339 h -52.15983 -52.15984 l -20.03543,20.06889 -20.03542,20.06888 h -37.49538 -37.49538 l -20.03543,-20.06888 -20.03542,-20.06889 h -42.84709 -42.84708 l -20.03543,20.06889 -20.03542,20.06888 H 359.90202 323.0756 l -20.03542,-20.06888 -20.03543,-20.06889 h -42.84708 -42.84709 l -20.03542,20.06889 -20.03543,20.06888 H 119.74435 82.248975 Z"
       id="path4871"
       transform="scale(0.26458333)" />
    <path
       style="opacity:0.45;fill:#00ffff;fill-opacity:1;stroke-width:1.33793"
       d="m 46.8274,1133.8921 -4.53869,-4.6828 H 21.813318 1.3379257 v -37.1095 -37.1095 l 18.4137953,18.3785 18.413797,18.3786 h 51.509552 51.50956 l 20.03542,-20.0689 20.03542,-20.0689 h 38.83331 38.83331 l 20.03542,20.0689 20.03543,20.0689 h 41.50916 41.50916 l 20.03542,-20.0689 20.03543,-20.0689 h 38.16434 38.16434 l 20.03543,20.0689 20.03542,20.0689 h 41.50916 41.50916 l 20.03543,-20.0689 20.03542,-20.0689 h 38.16435 38.16434 l 20.03542,20.0689 20.03543,20.0689 h 10.38566 10.38565 v 23.52 23.52 l -4.34826,-0.9136 c -2.39154,-0.5025 -6.18312,-2.6576 -8.42573,-4.7891 l -4.07747,-3.8754 h -52.18744 -52.18743 l -4.53869,4.6828 -4.53868,4.6827 h -68.37827 -68.37827 l -4.53868,-4.6827 -4.53869,-4.6828 h -42.28871 -42.28872 l -4.53868,4.6828 -4.53869,4.6827 h -68.37827 -68.37826 l -4.53869,-4.6827 -4.53868,-4.6828 h -42.95768 -42.95768 l -4.53869,4.6828 -4.53868,4.6827 H 119.74435 51.366091 Z"
       id="path4910"
       transform="scale(0.26458333)" />
    <path
       style="opacity:0.45;fill:#00ffff;fill-opacity:1;stroke-width:1.33793"
       d="M 21.725104,168.22847 1.3379257,147.80941 V 114.71144 81.613469 H 19.751133 38.164341 l 20.035428,20.068891 20.035429,20.06888 h 41.509152 41.50916 l 20.03543,-20.06888 20.03542,-20.068891 h 38.83331 38.83331 l 20.03542,20.068891 20.03542,20.06888 h 41.50916 41.50916 l 20.03543,-20.06888 20.03542,-20.068891 h 38.16435 38.16434 l 20.03543,20.068891 20.03542,20.06888 h 41.50916 41.50916 l 20.03542,-20.06888 20.03543,-20.068891 h 48.21345 48.21344 l 10.33753,10.398525 10.33754,10.398526 v 43.1185 43.11851 h -8.37876 -8.37877 L 761.9487,168.57864 741.91328,148.50976 h -41.50916 -41.50916 l -20.03543,20.06888 -20.03542,20.06889 H 580.65977 542.49542 L 522.46,168.57864 502.42457,148.50976 h -42.17812 -42.17812 l -20.03543,20.06888 -20.03542,20.06889 h -38.16435 -38.16434 l -20.03542,-20.06889 -20.03543,-20.06888 h -41.50916 -41.50916 l -20.03542,20.06888 -20.03543,20.06889 H 90.310527 42.112283 Z"
       id="path4949"
       transform="scale(0.26458333)" />
    <path
       style="opacity:0.45;fill:#00ffff;fill-opacity:1;stroke-width:1.33793"
       d="M 523.79792,20.068886 505.10281,1.3379257 h 74.88799 74.888 L 636.18368,20.068886 617.48857,38.799846 H 579.9908 542.49303 Z"
       id="path4988"
       transform="scale(0.26458333)" />
    <path
       style="opacity:0.45;fill:#00ffff;fill-opacity:1;stroke-width:1.33793"
       d="M 282.97129,20.068886 264.27618,1.3379257 h 75.55695 75.55697 L 396.69498,20.068886 377.99987,38.799846 H 339.83313 301.6664 Z"
       id="path5027"
       transform="scale(0.26458333)" />
    <path
       style="opacity:0.45;fill:#00ffff;fill-opacity:1;stroke-width:1.33793"
       d="M 23.4137,20.068886 4.7185887,1.3379257 H 90.309987 175.90139 L 157.20627,20.068886 138.51116,38.799846 H 90.309987 42.108812 Z"
       id="path5066"
       transform="scale(0.26458333)" />
    <path
       style="opacity:0.45;fill:#00ffff;fill-opacity:1;stroke-width:1.33793"
       d="M 763.28663,20.068886 744.59152,1.3379257 h 27.07507 27.07507 v 18.7309603 18.73096 h -8.37996 -8.37996 z"
       id="path5105"
       transform="scale(0.26458333)" />
    <path
       style="opacity:0.45;fill:#00ffff;fill-opacity:1;stroke-width:1.33793"
       d="M 21.725104,318.07615 1.3379257,297.65709 V 264.55912 231.46115 H 19.751133 38.164341 l 20.035428,20.06889 20.035429,20.06888 h 41.509152 41.50916 l 20.03543,-20.06888 20.03542,-20.06889 h 38.16435 38.16434 l 20.03542,20.06889 20.03543,20.06888 h 42.17812 42.17812 l 20.03543,-20.06888 20.03542,-20.06889 h 38.16435 38.16434 l 20.03543,20.06889 20.03542,20.06888 h 41.50916 41.50916 l 20.03542,-20.06888 20.03543,-20.06889 h 48.21345 48.21344 l 10.33753,10.39853 10.33754,10.39852 v 43.1185 43.11851 h -8.37876 -8.37877 L 761.9487,318.42632 741.91328,298.35744 h -41.50916 -41.50916 l -20.03543,20.06888 -20.03542,20.06889 H 579.9908 541.1575 l -20.03543,-20.06889 -20.03542,-20.06888 h -41.50916 -41.50916 l -20.03543,20.06888 -20.03542,20.06889 h -38.16435 -38.16434 l -20.03542,-20.06889 -20.03543,-20.06888 h -41.50916 -41.50916 l -20.03542,20.06888 -20.03543,20.06889 H 90.310527 42.112283 Z"
       id="path5144"
       transform="scale(0.26458333)" />
    <path
       style="opacity:0.45;fill:#00ffff;fill-opacity:1;stroke-width:1.33793"
       d="M 21.725104,467.92383 1.3379257,447.50477 V 414.4068 381.30883 H 19.751133 38.164341 l 20.035428,20.06889 20.035429,20.06888 h 41.509152 41.50916 l 20.03543,-20.06888 20.03542,-20.06889 h 38.16435 38.16434 l 20.03542,20.06889 20.03543,20.06888 h 42.17812 42.17812 l 20.03543,-20.06888 20.03542,-20.06889 h 38.16435 38.16434 l 20.03543,20.06889 20.03542,20.06888 h 41.50916 41.50916 l 20.03542,-20.06888 20.03543,-20.06889 h 48.21345 48.21344 l 10.33753,10.39853 10.33754,10.39852 v 43.11851 43.1185 h -8.37876 -8.37877 L 761.9487,468.274 741.91328,448.20512 H 700.40412 658.89496 L 638.85953,468.274 618.82411,488.34289 H 579.9908 541.1575 L 521.12207,468.274 501.08665,448.20512 H 459.57749 418.06833 L 398.0329,468.274 377.99748,488.34289 H 339.83313 301.66879 L 281.63337,468.274 261.59794,448.20512 H 220.08878 178.57962 L 158.5442,468.274 138.50877,488.34289 H 90.310527 42.112283 Z"
       id="path5183"
       transform="scale(0.26458333)" />
    <path
       style="opacity:0.45;fill:#00ffff;fill-opacity:1;stroke-width:1.33793"
       d="M 21.725104,619.10944 1.3379257,598.69038 V 564.92345 531.15651 H 19.751133 38.164341 l 20.035428,20.06889 20.035429,20.06889 h 42.178122 42.17812 l 20.03542,-20.06889 20.03543,-20.06889 h 37.49538 37.49538 l 20.03542,20.06889 20.03543,20.06889 h 42.17812 42.17812 l 20.03543,-20.06889 20.03542,-20.06889 h 38.16435 38.16434 l 20.03543,20.06889 20.03542,20.06889 h 41.50916 41.50916 l 20.03542,-20.06889 20.03543,-20.06889 h 48.21345 48.21344 l 10.33753,10.39853 10.33754,10.39852 v 43.78747 43.78747 h -7.7098 -7.70981 L 763.28663,619.45961 743.2512,599.39073 h -42.84708 -42.84709 l -20.03542,20.06888 -20.03543,20.06889 H 579.9908 542.49542 L 522.46,619.45961 502.42457,599.39073 H 459.57749 416.7304 l -20.03542,20.06888 -20.03543,20.06889 H 339.83313 303.00672 L 282.97129,619.45961 262.93587,599.39073 H 220.08878 177.2417 l -20.03543,20.06888 -20.03542,20.06889 H 89.641564 42.112283 Z"
       id="path5222"
       transform="scale(0.26458333)" />
    <path
       style="opacity:0.45;fill:#00ffff;fill-opacity:1;stroke-width:1.33793"
       d="M 21.725104,768.95712 1.3379257,748.53806 V 714.77113 681.0042 H 19.751133 38.164341 l 20.035428,20.06888 20.035429,20.06889 h 42.178122 42.17812 l 20.03542,-20.06889 20.03543,-20.06888 h 37.49538 37.49538 l 20.03542,20.06888 20.03543,20.06889 h 42.17812 42.17812 l 20.03543,-20.06889 20.03542,-20.06888 h 38.16435 38.16434 l 20.03543,20.06888 20.03542,20.06889 h 41.50916 41.50916 l 20.03542,-20.06889 20.03543,-20.06888 h 48.21345 48.21344 l 10.33753,10.39852 10.33754,10.39852 v 43.78747 43.78747 h -8.37876 -8.37877 L 761.9487,769.30729 741.91328,749.23841 h -42.17812 -42.17813 l -20.03542,20.06888 -20.03543,20.06889 H 579.9908 542.49542 L 522.46,769.30729 502.42457,749.23841 h -42.17812 -42.17812 l -20.03543,20.06888 -20.03542,20.06889 H 340.5021 303.00672 L 282.97129,769.30729 262.93587,749.23841 H 220.08878 177.2417 l -20.03543,20.06888 -20.03542,20.06889 H 89.641564 42.112283 Z"
       id="path5261"
       transform="scale(0.26458333)" />
    <path
       style="opacity:0.45;fill:#00ffff;fill-opacity:1;stroke-width:1.33793"
       d="M 21.725104,918.8048 1.3379257,898.38574 V 864.61881 830.85188 H 19.751133 38.164341 l 20.035428,20.06888 20.035429,20.06889 h 42.178122 42.17812 l 20.03542,-20.06889 20.03543,-20.06888 h 37.49538 37.49538 l 20.03542,20.06888 20.03543,20.06889 h 42.17812 42.17812 l 20.03543,-20.06889 20.03542,-20.06888 h 37.49538 37.49539 l 20.03542,20.06888 20.03542,20.06889 h 42.84709 42.84708 l 20.03543,-20.06889 20.03542,-20.06888 h 47.54449 47.54448 l 10.33753,10.39852 10.33754,10.39852 v 43.78747 43.78747 h -8.37876 -8.37877 L 761.9487,919.15497 741.91328,899.08609 h -42.17812 -42.17813 l -20.03542,20.06888 -20.03543,20.06889 H 579.9908 542.49542 L 522.46,919.15497 502.42457,899.08609 h -42.17812 -42.17812 l -20.03543,20.06888 -20.03542,20.06889 H 340.5021 303.00672 L 282.97129,919.15497 262.93587,899.08609 H 220.08878 177.2417 l -20.03543,20.06888 -20.03542,20.06889 H 89.641564 42.112283 Z"
       id="path5300"
       transform="scale(0.26458333)" />
    <path
       style="opacity:0.45;fill:#00ffff;fill-opacity:1;stroke-width:1.33793"
       d="M 21.725104,1068.6525 1.3379257,1048.2334 v -33.7669 -33.76694 H 19.751133 38.164341 l 20.035428,20.06884 20.035429,20.0689 h 42.178122 42.17812 l 20.03542,-20.0689 20.03543,-20.06884 h 37.49538 37.49538 l 20.03542,20.06884 20.03543,20.0689 h 42.17812 42.17812 l 20.03543,-20.0689 20.03542,-20.06884 h 37.49538 37.49539 l 20.03542,20.06884 20.03542,20.0689 h 42.84709 42.84708 l 20.03543,-20.0689 20.03542,-20.06884 h 47.54449 47.54448 l 10.33753,10.39852 10.33754,10.39852 v 43.7875 43.7874 h -8.37876 -8.37877 l -20.03543,-20.0688 -20.03542,-20.0689 h -42.17812 -42.17813 l -20.03542,20.0689 -20.03543,20.0688 H 579.9908 542.49542 L 522.46,1069.0027 502.42457,1048.9338 h -42.17812 -42.17812 l -20.03543,20.0689 -20.03542,20.0688 h -38.16435 -38.16434 l -20.03542,-20.0688 -20.03543,-20.0689 H 219.41982 177.2417 l -20.03543,20.0689 -20.03542,20.0688 H 89.641564 42.112283 Z"
       id="path5339"
       transform="scale(0.26458333)" />
  </g>
</svg>
