<?xml version="1.0" encoding="UTF-8" standalone="no"?>
<svg
   width="331.48724"
   height="321.48444"
   viewBox="0 0 331.48724 321.48444"
   fill="none"
   version="1.1"
   id="svg8"
   sodipodi:docname="gumroad.svg"
   inkscape:version="1.1.2 (0a00cf5339, 2022-02-04)"
   xmlns:inkscape="http://www.inkscape.org/namespaces/inkscape"
   xmlns:sodipodi="http://sodipodi.sourceforge.net/DTD/sodipodi-0.dtd"
   xmlns="http://www.w3.org/2000/svg"
   xmlns:svg="http://www.w3.org/2000/svg">
  <defs
     id="defs12" />
  <sodipodi:namedview
     id="namedview10"
     pagecolor="#ffffff"
     bordercolor="#666666"
     borderopacity="1.0"
     inkscape:pageshadow="2"
     inkscape:pageopacity="0.0"
     inkscape:pagecheckerboard="0"
     showgrid="false"
     fit-margin-top="0"
     fit-margin-left="0"
     fit-margin-right="0"
     fit-margin-bottom="0"
     inkscape:zoom="1.1822825"
     inkscape:cx="121.37539"
     inkscape:cy="186.50364"
     inkscape:window-width="1920"
     inkscape:window-height="1011"
     inkscape:window-x="0"
     inkscape:window-y="32"
     inkscape:window-maximized="1"
     inkscape:current-layer="svg8" />
  <path
     d="m 188.52325,321.48445 c 78.957,0 142.964,-61.788 142.964,-138.008 0,-76.22 -64.007,-138.009 -142.964,-138.009 -78.957,0 -142.965,61.789 -142.965,138.009 0,76.22 64.008,138.008 142.965,138.008 z"
     fill="#000000"
     id="path2" />
  <path
     d="m 151.62725,292.56345 c 83.044,0 150.846,-65.055 150.846,-145.891 0,-80.835 -67.802,-145.8912 -150.846,-145.8912 -83.043,0 -150.846,65.0562 -150.846,145.8912 0,80.836 67.803,145.891 150.846,145.891 z"
     fill="#ff90e8"
     stroke="#000000"
     stroke-width="1.5625"
     id="path4" />
  <path
     d="m 140.28125,220.27545 c -42.217,0 -67.05,-34.11 -67.05,-76.54 0,-44.095 27.316,-79.869 79.465,-79.869 53.806,0 72.016,36.607 72.844,57.405 h -38.905 c -0.827,-11.647 -10.761,-29.118 -34.766,-29.118 -25.66,0 -42.216,22.463 -42.216,49.918 0,27.455 16.556,49.917 42.216,49.917 23.178,0 33.111,-18.303 37.25,-36.605 h -37.25 v -14.976 h 78.162 v 76.54 h -34.29 v -48.254 c -2.484,17.472 -13.245,51.582 -55.46,51.582 z"
     fill="#000000"
     id="path6" />
</svg>
