<?xml version="1.0" encoding="UTF-8" standalone="no"?>
<svg
   version="1.0"
   width="327.19424pt"
   height="332.55396pt"
   viewBox="0 0 327.19424 332.55396"
   preserveAspectRatio="xMidYMid meet"
   id="svg878"
   sodipodi:docname="Rose.svg"
   inkscape:version="1.1.2 (0a00cf5339, 2022-02-04)"
   xmlns:inkscape="http://www.inkscape.org/namespaces/inkscape"
   xmlns:sodipodi="http://sodipodi.sourceforge.net/DTD/sodipodi-0.dtd"
   xmlns="http://www.w3.org/2000/svg"
   xmlns:svg="http://www.w3.org/2000/svg">
  <defs
     id="defs882" />
  <sodipodi:namedview
     id="namedview880"
     borderopacity="1.0"
     showgrid="false"
     fit-margin-top="0"
     fit-margin-left="0"
     fit-margin-right="0"
     fit-margin-bottom="0"/>
  <g
     transform="matrix(0.1,0,0,-0.1,-135.26238,450.9477)"
     id="g876"
     fill="#FFFFFF">
    <path
      d="m 3335,4490 c -106,-27 -197,-67 -290,-125 l -85,-53 -77,44 c -144,82 -306,121 -456,110 -118,-8 -193,-28 -303,-81 -215,-104 -368,-277 -445,-505 -30,-87 -33,-106 -33,-225 -1,-106 3,-144 22,-208 22,-78 77,-197 114,-250 20,-28 20,-28 0,-75 -45,-104 -53,-235 -23,-354 28,-110 65,-174 145,-254 112,-111 219,-154 389,-154 100,0 188,20 243,57 14,9 26,14 27,12 1,-2 17,-35 36,-74 51,-103 144,-192 263,-249 125,-61 206,-79 348,-79 138,0 223,18 335,73 135,65 254,192 310,328 23,56 24,57 67,60 77,5 141,23 228,64 186,89 333,298 385,546 19,92 19,266 0,357 -32,155 -135,306 -256,374 -55,31 -56,31 -68,96 -32,179 -138,356 -271,457 -55,42 -172,96 -241,113 -91,21 -275,19 -364,-5 z m 306,-160 c 288,-90 444,-382 385,-720 -49,-282 -158,-445 -370,-552 -135,-68 -347,-91 -501,-53 -153,37 -309,141 -369,246 l -20,34 42,-37 c 91,-82 191,-113 362,-112 107,1 136,5 205,27 188,62 304,182 340,354 60,283 -76,522 -352,618 -74,26 -175,45 -238,45 h -40 l 40,35 c 56,50 119,86 195,112 88,30 231,31 321,3 z m -986,-62 c 39,-11 97,-36 130,-56 l 60,-36 -35,-9 c -194,-49 -300,-102 -412,-206 -123,-115 -201,-255 -228,-412 l -11,-64 -85,-39 c -46,-21 -104,-56 -128,-77 l -44,-39 -20,48 c -98,232 -23,537 180,729 176,165 384,222 593,161 z m 578,-244 c 121,-29 233,-108 277,-194 63,-123 43,-280 -47,-380 -37,-41 -106,-90 -126,-90 -2,0 -7,26 -10,59 -14,131 -85,258 -179,317 -96,61 -272,71 -379,22 -200,-91 -267,-329 -157,-555 74,-152 245,-291 448,-364 62,-22 63,-24 35,-30 -54,-12 -169,-9 -239,6 -269,57 -487,303 -512,578 -7,87 20,215 65,304 78,156 216,264 397,314 146,40 299,45 427,13 z m 1078,-492 c 75,-153 64,-374 -26,-553 -80,-161 -208,-277 -334,-304 -31,-7 -33,-5 -26,11 4,11 9,84 12,164 l 5,145 48,50 c 111,117 188,280 219,465 6,36 14,81 17,100 l 6,35 29,-35 c 16,-19 39,-54 50,-78 z m -1287,57 c 57,-16 148,-110 165,-170 7,-25 11,-57 9,-70 -3,-23 -8,-24 -76,-27 -47,-2 -95,3 -130,13 -146,42 -234,153 -169,212 55,51 120,64 201,42 z m -834,-366 c 61,-256 219,-428 497,-540 141,-57 198,-66 393,-67 192,0 291,16 427,70 72,28 198,97 208,114 3,5 16,15 27,21 21,11 21,10 15,-63 -22,-253 -164,-437 -392,-504 -41,-12 -92,-17 -160,-17 -173,1 -318,63 -433,186 -55,59 -108,157 -118,217 l -6,36 -36,-35 c -81,-76 -253,-131 -366,-116 -75,9 -164,54 -213,107 -150,165 -148,400 6,571 35,39 123,109 129,103 2,-2 11,-40 22,-83 z"
      id="path870"/>
    <path
      d="m 2034,2281 c -291,-79 -562,-343 -653,-636 -38,-122 -38,-335 1,-382 6,-7 42,-23 82,-35 62,-20 92,-23 241,-23 155,0 179,2 269,28 120,33 265,100 351,162 138,98 257,266 285,402 14,67 9,249 -8,278 -6,11 -12,14 -12,7 0,-24 -91,-195 -143,-271 -141,-204 -359,-360 -582,-416 -84,-21 -244,-36 -301,-28 l -41,5 9,57 c 62,414 348,708 712,734 101,7 104,2 34,-61 -94,-83 -600,-593 -595,-599 18,-17 230,98 362,197 216,162 465,419 465,480 0,20 -55,56 -132,88 -87,35 -241,41 -344,13 z"
      id="path872"/>
    <path
      d="m 4127,2158 c 210,-203 321,-408 340,-632 3,-42 3,-76 0,-76 -4,0 -25,28 -48,63 -146,216 -312,366 -524,472 -60,30 -116,55 -123,55 -7,0 40,-60 105,-132 231,-259 481,-563 471,-573 -7,-7 -154,15 -233,36 -271,70 -526,252 -785,559 -35,41 -68,77 -73,79 -17,7 -1,-141 23,-202 52,-137 212,-327 362,-428 216,-147 477,-217 703,-189 152,19 172,26 201,76 65,111 91,242 73,371 -39,279 -235,510 -503,592 -37,12 -72,21 -77,21 -4,0 35,-42 88,-92 z"
      id="path874"/>
  </g>
</svg>
