<?xml version="1.0" encoding="UTF-8" standalone="no"?>
<!-- Created with Inkscape (http://www.inkscape.org/) -->

<svg
   width="400"
   height="200"
   viewBox="0 0 105.83333 52.916669"
   version="1.1"
   id="svg5"
   inkscape:version="1.1.2 (0a00cf5339, 2022-02-04)"
   sodipodi:docname="UnionJack.svg"
   xmlns:inkscape="http://www.inkscape.org/namespaces/inkscape"
   xmlns:sodipodi="http://sodipodi.sourceforge.net/DTD/sodipodi-0.dtd"
   xmlns="http://www.w3.org/2000/svg"
   xmlns:svg="http://www.w3.org/2000/svg">
  <sodipodi:namedview
     id="namedview7"
     pagecolor="#ffffff"
     bordercolor="#666666"
     borderopacity="1.0"
     inkscape:pageshadow="2"
     inkscape:pageopacity="0.0"
     inkscape:pagecheckerboard="0"
     inkscape:document-units="mm"
     showgrid="true"
     fit-margin-top="0"
     fit-margin-left="0"
     fit-margin-right="0"
     fit-margin-bottom="0"
     showguides="false"
     inkscape:zoom="2.8284271"
     inkscape:cx="208.41973"
     inkscape:cy="66.291261"
     inkscape:window-width="1920"
     inkscape:window-height="1011"
     inkscape:window-x="0"
     inkscape:window-y="32"
     inkscape:window-maximized="1"
     inkscape:current-layer="layer1"
     units="px"
     height="400.0025px">
    <inkscape:grid
       type="xygrid"
       id="grid890"
       spacingx="0.13229167"
       spacingy="0.13229167"
       originx="-0.66139623"
       originy="-0.26458452" />
  </sodipodi:namedview>
  <defs
     id="defs2">
    <inkscape:path-effect
       effect="fillet_chamfer"
       id="path-effect52513"
       is_visible="true"
       lpeversion="1"
       satellites_param="F,0,0,1,0,0.66145795,0,1 @ F,0,0,1,0,0.13229154,0,1 @ F,0,0,1,0,0,0,1 @ F,0,0,1,0,0,0,1"
       unit="px"
       method="auto"
       mode="F"
       radius="0"
       chamfer_steps="1"
       flexible="false"
       use_knot_distance="true"
       apply_no_radius="true"
       apply_with_radius="true"
       only_selected="false"
       hide_knots="false" />
    <inkscape:path-effect
       effect="fillet_chamfer"
       id="path-effect51865"
       is_visible="true"
       lpeversion="1"
       satellites_param="F,0,0,1,0,0,0,1 @ F,0,0,1,0,0.26458413,0,1 @ F,0,0,1,0,0,0,1 @ F,0,0,1,0,0,0,1 @ F,0,0,1,0,0.26458315,0,1 @ F,0,0,1,0,0,0,1 @ F,0,0,1,0,0,0,1 @ F,0,0,1,0,0.26458316,0,1 @ F,0,0,1,0,0,0,1 @ F,0,0,1,0,0,0,1 @ F,0,0,1,0,0.26458413,0,1 @ F,0,0,1,0,0,0,1"
       unit="px"
       method="auto"
       mode="F"
       radius="0"
       chamfer_steps="1"
       flexible="false"
       use_knot_distance="true"
       apply_no_radius="true"
       apply_with_radius="true"
       only_selected="false"
       hide_knots="false" />
    <inkscape:path-effect
       effect="fillet_chamfer"
       id="path-effect43974"
       is_visible="true"
       lpeversion="1"
       satellites_param="F,0,0,1,0,0.66148044,0,1 @ F,0,0,1,0,0.53219236,0,1 @ F,0,0,1,0,0.17695033,0,1 @ F,0,0,1,0,0.26458732,0,1 @ F,0,0,1,0,0.13229139,0,1 @ F,0,0,1,0,0.26495037,0,1 @ F,0,0,1,0,0.26458343,0,1 @ F,0,0,1,0,0.26549767,0,1 @ F,0,0,1,0,0.26458343,0,1 @ F,0,0,1,0,0.26458343,0,1 @ F,0,0,1,0,0.9260408,0,1 @ F,0,0,1,0,0.39687585,0,1 @ F,0,0,1,0,0.41427197,0,1 @ F,0,0,1,0,0.5291669,0,1 @ F,0,0,1,0,0.66145945,0,1 @ F,0,0,1,0,0.92549584,0,1 @ F,0,0,1,0,0.36073996,0,1 @ F,0,0,1,0,0.5291669,0,1 @ F,0,0,1,0,0.13229135,0,1 @ F,0,0,1,0,0.52916702,0,1 @ F,0,0,1,0,0.39687914,0,1 @ F,0,0,1,0,0.3968751,0,1 @ F,0,0,1,0,0.56112994,0,1 @ F,0,0,1,0,0.13229715,0,1 @ F,0,0,1,0,0.66148044,0,1 @ F,0,0,1,0,0.26458131,0,1 @ F,0,0,1,0,0.66442859,0,1 @ F,0,0,1,0,0.66148044,0,1"
       unit="px"
       method="auto"
       mode="F"
       radius="0"
       chamfer_steps="1"
       flexible="false"
       use_knot_distance="true"
       apply_no_radius="true"
       apply_with_radius="true"
       only_selected="false"
       hide_knots="false" />
    <inkscape:path-effect
       effect="fillet_chamfer"
       id="path-effect43516"
       is_visible="true"
       lpeversion="1"
       satellites_param="F,0,0,1,0,0,0,1 @ F,0,0,1,0,0,0,1 @ F,0,0,1,0,0,0,1 @ F,0,0,1,0,0,0,1 @ F,0,0,1,0,0,0,1 @ F,0,0,1,0,0,0,1 @ F,0,0,1,0,0,0,1 @ F,0,0,1,0,0,0,1 @ F,0,0,1,0,0,0,1 @ F,0,0,1,0,0,0,1 @ F,0,0,1,0,0,0,1 @ F,0,0,1,0,0,0,1 @ F,0,0,1,0,0,0,1 @ F,0,0,1,0,0,0,1 @ F,0,0,1,0,0,0,1 @ F,0,0,1,0,0,0,1 @ F,0,0,1,0,0,0,1 @ F,0,0,1,0,0.5291669,0,1 @ F,0,0,1,0,0.13229135,0,1 @ F,0,0,1,0,0.71033988,0,1 @ F,0,0,1,0,0,0,1 @ F,0,0,1,0,0,0,1 @ F,0,0,1,0,0,0,1 @ F,0,0,1,0,0,0,1 @ F,0,0,1,0,0,0,1 @ F,0,0,1,0,0,0,1 @ F,0,0,1,0,0,0,1 @ F,0,0,1,0,0,0,1"
       unit="px"
       method="auto"
       mode="F"
       radius="0"
       chamfer_steps="1"
       flexible="false"
       use_knot_distance="true"
       apply_no_radius="true"
       apply_with_radius="true"
       only_selected="false"
       hide_knots="false" />
    <inkscape:path-effect
       effect="fillet_chamfer"
       id="path-effect43324"
       is_visible="true"
       lpeversion="1"
       satellites_param="F,0,0,1,0,0,0,1 @ F,0,0,1,0,0,0,1 @ F,0,0,1,0,0,0,1 @ F,0,0,1,0,0,0,1 @ F,0,0,1,0,0,0,1 @ F,0,0,1,0,0,0,1 @ F,0,0,1,0,0,0,1 @ F,0,0,1,0,0,0,1 @ F,0,0,1,0,0,0,1 @ F,0,0,1,0,0,0,1 @ F,0,0,1,0,0,0,1 @ F,0,0,1,0,0,0,1 @ F,0,0,1,0,0,0,1 @ F,0,0,1,0,0,0,1 @ F,0,0,1,0,0,0,1 @ F,0,0,1,0,0,0,1 @ F,0,0,1,0,0,0,1 @ F,0,0,1,0,0,0,1 @ F,0,0,1,0,0,0,1 @ F,0,0,1,0,0,0,1 @ F,0,0,1,0,0.39687914,0,1 @ F,0,0,1,0,0.3968751,0,1 @ F,0,0,1,0,0,0,1 @ F,0,0,1,0,0,0,1 @ F,0,0,1,0,0,0,1 @ F,0,0,1,0,0,0,1 @ F,0,0,1,0,0,0,1 @ F,0,0,1,0,0,0,1"
       unit="px"
       method="auto"
       mode="F"
       radius="0"
       chamfer_steps="1"
       flexible="false"
       use_knot_distance="true"
       apply_no_radius="true"
       apply_with_radius="true"
       only_selected="false"
       hide_knots="false" />
    <inkscape:path-effect
       effect="fillet_chamfer"
       id="path-effect41746"
       is_visible="true"
       lpeversion="1"
       satellites_param="F,0,0,1,0,0,0,1 @ F,0,0,1,0,0.23691894,0,1 @ F,0,0,1,0,0.66145817,0,1 @ F,0,0,1,0,0.13229164,0,1 @ F,0,0,1,0,0,0,1"
       unit="px"
       method="auto"
       mode="F"
       radius="0"
       chamfer_steps="1"
       flexible="false"
       use_knot_distance="true"
       apply_no_radius="true"
       apply_with_radius="true"
       only_selected="false"
       hide_knots="false" />
    <inkscape:path-effect
       effect="fillet_chamfer"
       id="path-effect35624"
       is_visible="true"
       lpeversion="1"
       satellites_param="F,0,1,1,0,0.13229324,0,1 @ F,0,1,1,0,0.13229324,0,1 @ F,0,0,1,0,0.13229324,0,1 @ F,0,0,1,0,0.53228526,0,1"
       unit="px"
       method="auto"
       mode="F"
       radius="0"
       chamfer_steps="1"
       flexible="false"
       use_knot_distance="true"
       apply_no_radius="true"
       apply_with_radius="true"
       only_selected="false"
       hide_knots="false" />
    <inkscape:path-effect
       effect="fillet_chamfer"
       id="path-effect34976"
       is_visible="true"
       lpeversion="1"
       satellites_param="F,0,0,1,0,0.26458326,0,1 @ F,0,0,1,0,0.35560482,0,1 @ F,0,0,1,0,0.29581524,0,1 @ F,0,0,1,0,0.13228868,0,1 @ F,0,0,1,0,0,0,1"
       unit="px"
       method="auto"
       mode="F"
       radius="0"
       chamfer_steps="1"
       flexible="false"
       use_knot_distance="true"
       apply_no_radius="true"
       apply_with_radius="true"
       only_selected="false"
       hide_knots="false" />
    <inkscape:path-effect
       effect="fillet_chamfer"
       id="path-effect33773"
       is_visible="true"
       lpeversion="1"
       satellites_param="IF,0,0,1,0,0,0,1 @ IF,0,0,1,0,0,0,1 @ F,0,0,1,0,0,0,1 @ F,0,0,1,0,0,0,1 @ F,0,0,1,0,0,0,1"
       unit="px"
       method="auto"
       mode="F"
       radius="0"
       chamfer_steps="1"
       flexible="false"
       use_knot_distance="true"
       apply_no_radius="true"
       apply_with_radius="true"
       only_selected="false"
       hide_knots="false" />
    <inkscape:path-effect
       effect="fillet_chamfer"
       id="path-effect33087"
       is_visible="true"
       lpeversion="1"
       satellites_param="F,0,0,1,0,0.18352754,0,1 @ F,0,0,1,0,0.53219236,0,1 @ F,0,0,1,0,0.13229251,0,1 @ F,0,0,1,0,0.26458245,0,1 @ F,0,0,1,0,0.26458245,0,1 @ F,0,0,1,0,0.26458245,0,1 @ F,0,0,1,0,0.3968751,0,1 @ F,0,0,1,0,0.26458702,0,1 @ F,0,0,1,0,0.75541891,0,1 @ F,0,0,1,0,0.3968751,0,1 @ F,0,0,1,0,0.9260408,0,1 @ F,0,0,1,0,0.39687585,0,1 @ F,0,0,1,0,0.41427197,0,1 @ F,0,0,1,0,0.9260408,0,1 @ F,0,0,1,0,0.9260408,0,1 @ F,0,0,1,0,0,0,1 @ F,0,0,1,0,0.41427197,0,1 @ F,0,0,1,0,0.41427197,0,1 @ F,0,0,1,0,0,0,1 @ F,0,0,1,0,0,0,1 @ F,0,0,1,0,0,0,1 @ F,0,0,1,0,0,0,1 @ F,0,0,1,0,0,0,1 @ F,0,0,1,0,0.13229315,0,1 @ F,0,1,1,0,0.13229315,0,1 @ F,0,0,1,0,0,0,1 @ F,0,0,1,0,0.54616533,0,1 @ F,0,0,1,0,0.13247717,0,1"
       unit="px"
       method="auto"
       mode="F"
       radius="0"
       chamfer_steps="1"
       flexible="false"
       use_knot_distance="true"
       apply_no_radius="true"
       apply_with_radius="true"
       only_selected="false"
       hide_knots="false" />
    <inkscape:path-effect
       effect="bspline"
       id="path-effect32064"
       is_visible="true"
       lpeversion="1"
       weight="33.333333"
       steps="2"
       helper_size="0"
       apply_no_weight="true"
       apply_with_weight="true"
       only_selected="false" />
  </defs>
  <g
     inkscape:label="Layer 1"
     inkscape:groupmode="layer"
     id="layer1"
     transform="translate(-0.66139823,-0.26458351)"
     style="display:inline">
    <path
       style="opacity:1;fill:none;stroke:#000000;stroke-width:0.262613px;stroke-linecap:butt;stroke-linejoin:miter;stroke-opacity:1"
       d="m 105.72674,18.030465 -21.86641,0.0479 A 0.12509879,0.12509879 76.646504 0 1 83.80408,17.841391 L 106.2059,6.6324536 a 0.28640342,0.28640342 121.70926 0 0 0.15825,-0.2561303 V 0.92375046 A 0.26458732,0.26458732 45 0 0 106.09956,0.65916314 H 94.649347 A 0.56182113,0.56182113 166.74999 0 0 94.398664,0.7181913 L 62.767584,16.488876 a 0.16396258,0.16396258 31.748998 0 1 -0.237122,-0.14673 L 62.529926,0.92374657 A 0.26459262,0.26459262 44.999005 0 0 62.265334,0.65916314 H 45.156417 A 0.2645747,0.2645747 134.90024 0 0 44.891844,0.9246592 l 0.05349,15.3588178 a 0.16319022,0.16319022 148.13495 0 1 -0.235927,0.146652 L 13.272263,0.77709242 A 1.124991,1.124991 13.234708 0 0 12.770832,0.65916228 l -10.7880989,7.9e-7 A 0.92604087,0.92604087 135 0 0 1.0566923,1.5852039 V 6.1563977 A 0.63912118,0.63912118 58.16091 0 0 1.4124191,6.7292533 L 23.984647,17.895841 a 0.09686847,0.09686847 103.16091 0 1 -0.04295,0.183693 H 1.5858622 a 0.5291669,0.5291669 135 0 0 -0.5291669,0.529167 v 16.360726 a 0.66147128,0.66147128 45.000512 0 0 0.6614594,0.661471 l 21.5576173,3.85e-4 a 0.21805109,0.21805109 76.743649 0 1 0.09734,0.41317 L 1.3821727,47.015306 a 0.58340278,0.58340278 121.75621 0 0 -0.3229646,0.521779 l -0.00227,4.985005 a 0.52892553,0.52892553 45.01307 0 0 0.5289255,0.529167 H 12.771493 a 0.56083367,0.56083367 166.72749 0 0 0.250637,-0.05912 L 44.417535,37.308152 a 0.32717099,0.32717099 31.727499 0 1 0.473384,0.292682 l -4e-6,15.053543 a 0.39687904,0.39687904 45.000007 0 0 0.396879,0.396879 h 16.845248 a 0.39688871,0.39688871 135.00098 0 0 0.396889,-0.396875 l 5.16e-4,-15.053239 a 0.34663664,0.34663664 148.29637 0 1 0.501796,-0.30996 l 31.366504,15.700857 a 0.55985413,0.55985413 13.295303 0 0 0.250601,0.05922 l 11.053342,-3.2e-5 a 0.66148009,0.66148009 134.99982 0 0 0.66148,-0.661482 l -2e-5,-4.968016 A 0.42767964,0.42767964 58.25706 0 0 106.1274,47.039031 L 83.791599,35.895845 a 0.15606079,0.15606079 103.29629 0 1 0.06988,-0.295707 l 21.841191,0.02984 a 0.6614813,0.6614813 135.07831 0 0 0.66238,-0.660576 l 0.0223,-16.278904 a 0.65913095,0.65913095 44.976416 0 0 -0.66058,-0.660031 z"
       id="path869"
       sodipodi:nodetypes="ccccccccccccccccccccccccccccc"
       inkscape:original-d="M 106.38822,18.029016 83.328139,18.079534 106.36415,6.5532736 V 0.65916314 H 94.517056 L 62.530471,16.607096 62.529917,0.65916314 H 44.890919 L 44.946251,16.548059 13.035415,0.65916226 1.0566923,0.65916314 V 6.5532736 L 24.355966,18.079534 H 1.0566923 V 35.630886 L 24.201265,35.6313 1.0593727,47.176345 1.0566923,53.051257 H 12.90378 l 31.987139,-15.97959 -4e-6,15.979589 h 17.639002 l 5.49e-4,-16.011244 31.986585,16.011245 11.847119,-3.4e-5 -2e-5,-5.894077 -23.167097,-11.557916 23.167097,0.03165 z"
       inkscape:path-effect="#path-effect43974" />
    <path
       style="fill:none;stroke:#000000;stroke-width:0.262613px;stroke-linecap:butt;stroke-linejoin:miter;stroke-opacity:1"
       d="M 48.445043,0.65916314 V 21.351416 A 0.26458413,0.26458413 135 0 1 48.180459,21.616 H 1.0566923 V 32.094419 H 48.18046 a 0.26458315,0.26458315 45 0 1 0.264583,0.264583 V 53.051258 H 58.975791 V 32.359002 a 0.26458316,0.26458316 135 0 1 0.264583,-0.264583 H 106.36414 V 21.616 H 59.240375 A 0.26458413,0.26458413 45 0 1 58.975791,21.351416 V 0.65916314 Z"
       id="path14993"
       inkscape:original-d="M 48.445043,0.65916314 V 21.616 H 1.0566923 V 32.094419 H 48.445043 V 53.051258 H 58.975791 V 32.094419 H 106.36414 V 21.616 H 58.975791 V 0.65916314 Z"
       inkscape:path-effect="#path-effect51865" />
    <path
       style="opacity:1;fill:none;stroke:#000000;stroke-width:0.262613px;stroke-linecap:butt;stroke-linejoin:miter;stroke-opacity:1"
       d="m 64.112816,18.079534 h 6.972674 a 0.56862962,0.56862962 166.90313 0 0 0.250998,-0.05839 L 106.36415,0.79014249 H 98.334445 L 64.044014,17.785791 a 0.15492905,0.15492905 76.817613 0 0 0.0688,0.293743 z"
       id="path14995"
       sodipodi:nodetypes="ccccc"
       inkscape:original-d="m 63.451358,18.079534 h 7.766424 L 106.36415,0.79014249 h -8.029705 z"
       inkscape:path-effect="#path-effect52513" />
    <path
       style="opacity:1;fill:none;stroke:#000000;stroke-width:0.262613px;stroke-linecap:butt;stroke-linejoin:miter;stroke-opacity:1"
       d="m 106.2325,52.658315 -0.0953,0.09485 a 0.32973153,0.32973153 170.83984 0 1 -0.3799,0.06126 L 71.941182,35.926417 a 0.15598344,0.15598344 103.26894 0 1 0.06969,-0.295532 l 7.104309,10e-7 a 0.56290028,0.56290028 13.22553 0 1 0.250735,0.05893 L 106.36415,49.12185 Z"
       id="path25326"
       sodipodi:nodetypes="cccccc"
       inkscape:original-d="m 106.2325,52.658315 -0.26326,0.26196 -34.619824,-17.28939 7.898059,10e-7 27.116675,13.490964 z"
       inkscape:path-effect="#path-effect41746" />
    <path
       style="opacity:1;fill:none;stroke:#000000;stroke-width:0.262613px;stroke-linecap:butt;stroke-linejoin:miter;stroke-opacity:1"
       d="M 1.2159484,1.1027773 1.2375525,1.074115 A 0.42733393,0.42733393 166.77243 0 1 1.7697334,0.94902292 L 35.806774,17.947368 a 0.06975843,0.06975843 103.26894 0 1 -0.03117,0.132167 l -7.469954,-1e-6 a 0.56288763,0.56288763 13.225532 0 1 -0.250729,-0.05893 L 1.0566923,4.5885702 l 2e-7,-3.0099234 A 0.79059601,0.79059601 108.50349 0 1 1.2159484,1.1027773 Z"
       id="path25326-7"
       sodipodi:nodetypes="cccccc"
       inkscape:original-d="M 1.0566925,1.3140635 1.4515954,0.79014249 36.071422,18.079535 28.173364,18.079534 1.0566923,4.5885702 Z"
       inkscape:path-effect="#path-effect34976" />
    <path
       style="opacity:1;fill:none;stroke:#000000;stroke-width:0.262613px;stroke-linecap:butt;stroke-linejoin:miter;stroke-opacity:1"
       d="M 9.0731952,52.992329 43.851033,35.689813 a 0.0310913,0.0310913 76.774469 0 0 -0.01385,-0.05893 h -7.765107 a 0.56101243,0.56101243 166.73139 0 0 -0.250648,0.05911 L 1.5328983,52.813443 a 0.12551904,0.12551904 76.731389 0 0 0.056079,0.237814 h 7.2334803 a 0.56290675,0.56290675 166.77447 0 0 0.2507373,-0.05893 z"
       id="path29356"
       sodipodi:nodetypes="ccccc"
       inkscape:original-d="M 8.9547511,53.051257 43.969477,35.630885 H 35.939784 L 1.0566923,53.051257 Z"
       inkscape:path-effect="#path-effect35624" />
    <path
       style="opacity:0.45;fill:#ff0000;fill-opacity:1;stroke-width:0.0928479"
       d="m 48.628248,42.502211 c 0,-7.930075 -0.02614,-10.380605 -0.111695,-10.465724 -0.08629,-0.08586 -5.475144,-0.111139 -23.688736,-0.111139 H 1.2507767 V 26.877721 21.830094 H 24.732642 c 21.102276,0 23.50283,-0.01461 23.688737,-0.144177 l 0.206869,-0.144178 V 11.173887 0.80603322 h 5.072833 5.072834 V 11.13283 c 0,10.203307 0.0021,10.329011 0.18616,10.51203 0.185175,0.184256 0.310264,0.185234 23.688736,0.185234 h 23.502579 v 5.047627 5.047627 H 82.608918 c -21.278136,0 -23.556536,0.01399 -23.688734,0.14554 -0.131221,0.130569 -0.146269,1.207229 -0.146269,10.465724 v 10.320181 h -5.072834 -5.072833 z"
       id="path53309" />
    <path
       style="opacity:0.45;fill:#ff0000;fill-opacity:1;stroke-width:0.0928479"
       d="m 81.289758,9.4569802 17.070692,-8.46788778 3.5395,0.0242416 3.5395,0.024242 -17.180614,8.4513018 -17.18062,8.4513022 -3.429574,-0.0077 -3.429577,-0.0077 z"
       id="path53681" />
    <path
       style="opacity:0.45;fill:#ff0000;fill-opacity:1;stroke-width:0.0928479"
       d="M 14.770576,11.197277 1.2507767,4.4647023 V 2.9309206 c 0,-2.17087191 -0.141357,-2.09577752 1.9716464,-1.0474163 0.937747,0.4652607 8.5533189,4.2675627 16.9234949,8.4495597 l 15.218499,7.603631 -3.537019,-0.0034 -3.537022,-0.0034 z"
       id="path53720" />
    <path
       style="opacity:0.45;fill:#ff0000;fill-opacity:1;stroke-width:0.0928479"
       d="m 2.0157471,52.805684 c 0.028248,-0.0281 7.6837152,-3.862449 17.0121489,-8.520764 l 16.960789,-8.469658 3.550667,0.0051 3.550667,0.0051 -17.080092,8.510519 -17.0800907,8.510518 -3.482725,0.0051 c -1.9154987,0.0028 -3.4596127,-0.01787 -3.4313642,-0.04598 z"
       id="path53759" />
    <path
       style="opacity:0.45;fill:#ff0000;fill-opacity:1;stroke-width:0.0928479"
       d="m 89.026022,44.259431 -16.799584,-8.39786 3.463812,-0.02428 3.46381,-0.02428 13.498664,6.715922 13.498666,6.715922 -0.009,0.902951 c -0.0134,1.313454 -0.11643,2.459272 -0.22346,2.486128 -0.0512,0.01284 -7.652895,-3.755682 -16.892668,-8.374504 z"
       id="path53798" />
    <path
       style="opacity:0.45;fill:#ffffff;fill-opacity:1;stroke-width:0.0928479"
       d="M 59.146234,42.576304 V 32.295815 h 23.502577 23.502579 v 1.478615 c 0,1.367072 -0.0136,1.485845 -0.18004,1.574487 -0.12122,0.06455 -3.80203,0.09588 -11.265544,0.09588 -10.177273,0 -11.090291,0.01242 -11.143935,0.151512 -0.03214,0.08333 -0.01777,0.218787 0.03192,0.301006 0.0497,0.08222 5.135012,2.670991 11.300705,5.752819 l 11.210354,5.603329 0.027,0.764092 c 0.0149,0.42025 0.004,0.764091 -0.0234,0.764091 -0.0277,0 -6.08282,-3.001265 -13.455734,-6.669474 l -13.405301,-6.669474 -3.744472,0.02421 -3.74447,0.02421 v 0.277311 c 0,0.275988 0.08012,0.317323 16.784109,8.659692 L 105.32669,52.8105 99.942116,52.83439 94.557538,52.85828 78.829807,44.984674 C 66.949298,39.037035 63.034322,37.116825 62.824992,37.134633 c -0.188192,0.01601 -0.314693,0.09788 -0.394216,0.255121 -0.09121,0.180352 -0.117404,1.915727 -0.118473,7.849292 l -0.0013,7.617749 H 60.72865 59.146301 Z"
       id="path53837" />
    <path
       style="opacity:0.45;fill:#ffffff;fill-opacity:1;stroke-width:0.0928479"
       d="m 26.919434,44.307711 c 12.38019,-6.163257 17.144492,-8.577406 17.125323,-8.677684 -0.02314,-0.12101 -0.560499,-0.138926 -4.16729,-0.138926 h -4.14073 L 18.566734,44.08133 c -9.4435,4.724624 -17.2034735,8.590228 -17.2443848,8.590228 -0.040911,0 -0.06328,-1.211724 -0.049709,-2.692718 l 0.024676,-2.69272 11.1473728,-5.573348 c 11.653633,-5.826464 11.478091,-5.729903 11.144167,-6.130254 -0.100472,-0.12046 -1.489353,-0.137723 -11.080207,-0.137723 -9.8443821,0 -10.9802895,-0.01488 -11.1116047,-0.145543 -0.12033,-0.119732 -0.1462675,-0.398934 -0.1462675,-1.574487 v -1.42895 H 24.753354 48.255931 V 42.578544 52.86127 l -1.559082,-0.02538 -1.559082,-0.02538 -0.02383,-7.680516 c -0.0219,-7.066297 -0.03641,-7.69437 -0.181403,-7.853784 -0.09434,-0.103731 -0.25289,-0.162174 -0.395045,-0.145624 -0.1306,0.01522 -7.307592,3.559831 -15.948868,7.876942 l -15.711415,7.849291 -1.554836,-0.0052 -1.5548351,-0.0052 z"
       id="path54320" />
    <path
       style="opacity:0.45;fill:#ffffff;fill-opacity:1;stroke-width:0.0928479"
       d="m 1.2507767,19.934704 c 0,-1.412856 0.013231,-1.531968 0.1800398,-1.620798 0.1212629,-0.06457 3.8598601,-0.09587 11.4517005,-0.09587 10.17963,0 11.277121,-0.01416 11.328009,-0.146107 0.03099,-0.08036 -0.0017,-0.199936 -0.07273,-0.265728 -0.07099,-0.06579 -5.176313,-2.611528 -11.345158,-5.657193 C 6.6237914,9.103337 1.5032549,6.5490848 1.4136658,6.4728867 1.2842054,6.3627769 1.2507767,6.1852198 1.2507767,5.6076992 V 4.8810539 L 14.654098,11.549542 28.05742,18.218031 h 3.940494 c 2.167272,0 3.966945,-0.02632 3.999272,-0.05849 0.03233,-0.03217 0.01885,-0.13271 -0.02994,-0.223427 -0.04941,-0.09186 -7.593838,-3.913103 -17.027406,-8.6243584 L 2.0011497,0.85234173 7.420163,0.82391546 12.839176,0.79548919 28.787087,8.7232161 c 11.013643,5.4748969 16.00302,7.9103229 16.126025,7.8714769 0.173591,-0.05482 0.178114,-0.256021 0.178114,-7.9224554 V 0.80603322 h 1.582352 1.582353 V 11.13283 21.459626 H 24.753354 1.2507767 Z"
       id="path54359" />
    <path
       style="opacity:0.45;fill:#ffffff;fill-opacity:1;stroke-width:0.0928479"
       d="m 59.208287,21.397881 c -0.03413,-0.03396 -0.06205,-4.681017 -0.06205,-10.326796 V 0.80603322 h 1.58235 1.582353 V 8.5456421 c 0,5.1579929 0.03214,7.7993639 0.09635,7.9187539 0.053,0.09853 0.184017,0.179146 0.291157,0.179146 0.10714,0 7.341435,-3.564571 16.076211,-7.9212673 l 15.881408,-7.92126677 1.570921,0.0256669 1.570924,0.0256669 -17.00319,8.42400657 C 64.482071,17.358237 63.792652,17.709926 63.819139,17.936039 l 0.02761,0.235683 3.752997,0.02421 3.752997,0.02421 15.095604,-7.422752 C 94.75093,6.714878 102.58126,2.858744 103.84908,2.2282048 L 106.1542,1.08177 106.1295,3.7769613 106.1048,6.4721525 94.868925,12.090395 c -6.179728,3.090033 -11.257063,5.670339 -11.282969,5.734013 -0.02591,0.06367 -0.02298,0.178288 0.0065,0.254697 0.04721,0.12242 1.378809,0.138926 11.207882,0.138926 h 11.154302 l 0.1449,0.205842 c 0.11579,0.164496 0.14489,0.490049 0.14489,1.620798 v 1.414955 H 82.75742 c -12.917886,0 -23.51499,-0.02779 -23.549117,-0.06174 z"
       id="path54398" />
    <path
       style="fill:none;stroke:#000000;stroke-width:0.262613px;stroke-linecap:butt;stroke-linejoin:miter;stroke-opacity:1"
       d="M 0.9250602,0.52818103 V 53.182234 H 106.49578 V 0.52818103 Z"
       id="path55261" />
    <path
       style="opacity:0.45;fill:#003fff;fill-opacity:1;stroke-width:0.0328267"
       d="M 1.073087,12.395467 V 6.6425774 l 0.086054,0.085626 c 0.04733,0.047095 1.4504693,0.7608914 3.1180877,1.5862148 1.6676187,0.8253235 6.7245433,3.3269528 11.2376103,5.5591758 l 8.205577,4.058585 -11.20282,0.01637 -11.2028203,0.01637 -0.1208444,0.09172 -0.1208444,0.09172 z"
       id="path55300" />
    <path
       style="opacity:0.45;fill:#003fff;fill-opacity:1;stroke-width:0.0928479"
       d="m 1.0646177,41.228106 v -5.701197 l 0.2068698,0.144175 c 0.1843444,0.128478 1.3980242,0.144395 11.1462715,0.146169 l 10.939402,0.0021 -11.076462,5.551658 c -6.0920542,3.053413 -11.1078764,5.553176 -11.1462717,5.555031 -0.038395,0.0018 -0.06981,-2.562167 -0.06981,-5.697826 z"
       id="path55339" />
    <path
       style="opacity:0.45;fill:#003fff;fill-opacity:1;stroke-width:0.0928479"
       d="m 19.028963,50.207545 c 9.230276,-4.63823 25.496499,-12.725177 25.595646,-12.725177 0.05996,0 0.100708,2.720582 0.116522,7.779838 l 0.02433,7.779837 -15.683898,-0.0024 -15.683898,-0.0024 z"
       id="path55378" />
    <path
       style="opacity:0.45;fill:#003fff;fill-opacity:1;stroke-width:0.0928479"
       d="M 29.174629,8.4883068 13.583812,0.72365781 29.147831,0.718537 44.711848,0.713416 l 0.0268,7.7566744 c 0.01474,4.2661706 0.0268,7.7625676 0.0268,7.7697696 0,0.0072 -7.01587,-3.480996 -15.590821,-7.7515534 z"
       id="path55417" />
    <path
       style="opacity:0.45;fill:#003fff;fill-opacity:1;stroke-width:0.0928479"
       d="M 62.683254,8.4932447 V 0.71341621 l 15.614087,0.002425 15.614091,0.002425 L 90.14171,2.6215171 C 85.484625,4.9727809 62.794095,16.273073 62.729939,16.273073 c -0.02567,0 -0.04669,-3.500922 -0.04669,-7.7798283 z"
       id="path55456" />
    <path
       style="opacity:0.45;fill:#003fff;fill-opacity:1;stroke-width:0.0928479"
       d="m 62.661042,45.305204 c 0.0208,-6.617554 0.04363,-7.744212 0.15779,-7.787799 0.109946,-0.04198 24.629698,12.139187 29.696408,14.752879 l 1.489271,0.768249 -15.683899,0.0018 -15.683896,0.0018 0.02433,-7.73684 z"
       id="path55495" />
    <path
       style="opacity:0.45;fill:#003fff;fill-opacity:1;stroke-width:0.0928479"
       d="m 95.214543,41.391821 -11.076461,-5.53025 10.936842,-0.04631 c 6.015266,-0.02546 11.010146,-0.08202 11.099736,-0.125681 0.15422,-0.07515 0.16288,0.221639 0.16288,5.580177 0,3.11275 -0.0105,5.657919 -0.0233,5.655928 -0.0128,-0.0021 -5.00768,-2.492229 -11.099732,-5.533865 z"
       id="path55534" />
    <path
       style="opacity:0.45;fill:#003fff;fill-opacity:1;stroke-width:0.0928479"
       d="m 106.05831,17.918115 c -0.14742,-0.05677 -4.21685,-0.07431 -11.103458,-0.04785 l -10.870756,0.04176 11.0882,-5.550408 c 6.098514,-3.0527233 11.105864,-5.5328282 11.127454,-5.5113438 0.0216,0.021483 0.0285,2.5406995 0.0153,5.5982558 l -0.024,5.559193 z"
       id="path55573" />
    <path
       style="opacity:0.45;fill:#fe0100;fill-opacity:1;stroke-width:0.353553"
       d="M 53.128415,41.069098 2.3121361,15.733126 2.3051166,10.54123 c -0.00721,-5.3338698 0.2834761,-7.0056961 1.2181105,-7.0056961 0.2945385,0 28.8169769,14.1508171 63.3831959,31.4462601 l 62.847677,31.446261 -12.9047,-0.01149 -12.9047,-0.01149 z"
       id="path2793"
       transform="matrix(0.26458333,0,0,0.26458333,0.66139823,0.26458351)" />
    <path
       style="opacity:0.45;fill:#fe0100;fill-opacity:1;stroke-width:0.353553"
       d="m 181.4957,159.48197 c -0.0676,-21.56826 -0.25538,-39.34758 -0.41742,-39.50959 -0.16204,-0.16201 -40.45387,-0.33556 -89.537398,-0.38568 L 2.2980971,119.49558 V 100.59566 81.695735 L 91.128387,81.594898 c 71.567403,-0.08124 88.984883,-0.189144 89.625783,-0.555221 l 0.7955,-0.454383 V 41.353309 2.1213204 h 18.89284 18.89284 L 219.446,41.17649 c 0.10465,36.936377 0.14491,39.089411 0.74196,39.686368 0.60212,0.602028 4.74026,0.635714 89.5374,0.728904 l 88.90609,0.0977 v 18.903738 18.90373 l -89.07779,0.0904 c -72.51157,0.0736 -89.16326,0.1759 -89.53739,0.54993 -0.37015,0.37005 -0.48208,8.06044 -0.57502,39.50959 l -0.1154,39.05011 H 200.47217 181.6185 Z"
       id="path2906"
       transform="matrix(0.26458333,0,0,0.26458333,0.66139823,0.26458351)" />
    <path
       style="opacity:0.45;fill:#fe0100;fill-opacity:1;stroke-width:0.353553"
       d="m 7.0710679,198.36925 c -0.548808,-0.21581 13.4794751,-7.37327 62.6631071,-31.97173 l 63.370215,-31.69368 12.99732,0.0308 12.99732,0.0308 -64.117225,31.96582 -64.117226,31.96582 -11.543202,-0.0249 C 12.972615,198.65848 7.4599766,198.5222 7.0710679,198.36927 Z"
       id="path2945"
       transform="matrix(0.26458333,0,0,0.26458333,0.66139823,0.26458351)" />
    <path
       style="opacity:0.45;fill:#fe0100;fill-opacity:1;stroke-width:0.353553"
       d="m 334.42505,166.2002 -62.89604,-31.43614 12.37437,-0.1185 12.37436,-0.11849 51.08847,25.34179 51.08846,25.3418 -0.0794,4.35669 c -0.0919,5.0406 -0.38385,8.069 -0.778,8.069 -0.1519,0 -28.5794,-14.14627 -63.17223,-31.43615 z"
       id="path2984"
       transform="matrix(0.26458333,0,0,0.26458333,0.66139823,0.26458351)" />
    <path
       style="opacity:0.45;fill:#fe0100;fill-opacity:1;stroke-width:0.353553"
       d="m 248.01771,63.134351 c 3.5974,-1.812831 32.40661,-16.123275 64.02045,-31.80099 l 57.47973,-28.5049339 6.51344,0.043073 c 3.58239,0.02369 9.25336,0.1430143 12.60215,0.265165 l 6.08872,0.2220923 -64.16529,31.5546406 -64.16529,31.55464 -12.45732,-0.01882 -12.45733,-0.01882 z"
       id="path3023"
       transform="matrix(0.26458333,0,0,0.26458333,0.66139823,0.26458351)" />
    <path
       style="opacity:0.45;fill:#0002ff;fill-opacity:1;stroke-width:0.353553"
       d="M 234.58268,30.935922 V 1.767767 l 58.60147,0.025366 58.60148,0.025366 -58.30367,29.142788 c -32.06702,16.028535 -58.43768,29.142789 -58.60148,29.142789 -0.16379,0 -0.2978,-13.12567 -0.2978,-29.168154 z"
       id="path3062"
       transform="matrix(0.26458333,0,0,0.26458333,0.66139823,0.26458351)" />
    <path
       style="opacity:0.45;fill:#0002ff;fill-opacity:1;stroke-width:0.353553"
       d="M 107.83379,30.900008 C 75.943269,15.036901 49.784737,1.9926931 49.703715,1.9128806 49.622692,1.8330681 75.834257,1.767767 107.95164,1.767767 h 58.39523 v 28.991378 c 0,15.945258 -0.11932,28.989466 -0.26516,28.987129 -0.14584,-0.0025 -26.35741,-12.98316 -58.24792,-28.846266 z"
       id="path3397"
       transform="matrix(0.26458333,0,0,0.26458333,0.66139823,0.26458351)" />
    <path
       style="opacity:0.45;fill:#0002ff;fill-opacity:1;stroke-width:0.353553"
       d="M 1.5908506,45.84409 C 1.5909281,34.109374 1.7269812,24.742289 1.8963963,24.807663 3.2083374,25.31392 85.676668,66.292368 85.57937,66.389666 85.510109,66.458923 66.584329,66.624217 43.522076,66.75698 L 1.5907109,66.998368 Z"
       id="path3436"
       transform="matrix(0.26458333,0,0,0.26458333,0.66139823,0.26458351)" />
    <path
       style="opacity:0.45;fill:#0002ff;fill-opacity:1;stroke-width:0.353553"
       d="M 1.8212859,171.21376 C 1.6946233,168.57271 1.5909903,159.05379 1.5909903,150.06061 v -16.35124 l 1.1490485,0.32812 c 0.6513006,0.18598 18.5712282,0.43966 41.3680632,0.58562 l 40.219014,0.25751 -41.137769,20.56753 -41.1377655,20.56752 z"
       id="path3475"
       transform="matrix(0.26458333,0,0,0.26458333,0.66139823,0.26458351)" />
    <path
       style="opacity:0.45;fill:#0002ff;fill-opacity:1;stroke-width:0.353553"
       d="m 107.22502,170.1587 c 32.13906,-16.05386 58.5495,-29.07407 58.68987,-28.9338 0.14036,0.14027 0.30111,13.28798 0.35723,29.21712 l 0.10201,28.96209 -58.79188,-0.0283 -58.791882,-0.0283 z"
       id="path3514"
       transform="matrix(0.26458333,0,0,0.26458333,0.66139823,0.26458351)" />
    <path
       style="opacity:0.45;fill:#0002ff;fill-opacity:1;stroke-width:0.353553"
       d="m 234.65927,170.44204 c 0.0551,-15.92914 0.20185,-29.06367 0.32611,-29.18784 0.33905,-0.33881 93.21861,45.64114 112.02728,55.45901 l 5.12652,2.67597 -58.79004,0.007 -58.79005,0.007 z"
       id="path3553"
       transform="matrix(0.26458333,0,0,0.26458333,0.66139823,0.26458351)" />
    <path
       style="opacity:0.45;fill:#0002ff;fill-opacity:1;stroke-width:0.353553"
       d="m 357.46145,155.29833 -40.89893,-20.41771 41.12286,-0.35355 c 22.61756,-0.19446 41.2024,-0.30063 41.29962,-0.23595 0.25719,0.1711 0.44998,39.57841 0.19853,40.58024 -0.1166,0.46457 -0.34951,0.84468 -0.51757,0.84468 -0.16807,0 -18.7101,-9.18797 -41.20451,-20.41771 z"
       id="path3592"
       transform="matrix(0.26458333,0,0,0.26458333,0.66139823,0.26458351)" />
    <path
       style="opacity:0.45;fill:#0002ff;fill-opacity:1;stroke-width:0.353553"
       d="m 357.69922,66.468038 -41.10901,-0.176777 40.93223,-20.434157 c 22.51273,-11.238787 41.02881,-20.426755 41.14686,-20.417708 0.47353,0.03629 0.59256,7.746424 0.37141,24.058079 l -0.23248,17.14734 z"
       id="path3631"
       transform="matrix(0.26458333,0,0,0.26458333,0.66139823,0.26458351)" />
  </g>
</svg>
