<?xml version="1.0" encoding="UTF-8" standalone="no"?>
<!-- Created with Inkscape (http://www.inkscape.org/) -->

<svg
   version="1.1"
   id="svg824"
   width="439.88748"
   height="444.05518"
   viewBox="0 0 439.88748 444.05518"
   sodipodi:docname="Rose.svg"
   inkscape:version="1.4.2 (ebf0e940d0, 2025-05-08)"
   xmlns:inkscape="http://www.inkscape.org/namespaces/inkscape"
   xmlns:sodipodi="http://sodipodi.sourceforge.net/DTD/sodipodi-0.dtd"
   xmlns="http://www.w3.org/2000/svg"
   xmlns:svg="http://www.w3.org/2000/svg">
  <sodipodi:namedview
     id="namedview1"
     pagecolor="#ffffff"
     bordercolor="#000000"
     borderopacity="0.25"
     inkscape:showpageshadow="2"
     inkscape:pageopacity="0.0"
     inkscape:pagecheckerboard="0"
     inkscape:deskcolor="#d1d1d1"
     inkscape:zoom="1.8015779"
     inkscape:cx="219.80731"
     inkscape:cy="185.9481"
     inkscape:window-width="1920"
     inkscape:window-height="1011"
     inkscape:window-x="0"
     inkscape:window-y="0"
     inkscape:window-maximized="1"
     inkscape:current-layer="g830" />
  <defs
     id="defs828" />
  <g
     id="g830"
     transform="translate(-370.27528,-214.83165)">
    <path
       style="fill:none;stroke:#000000;stroke-width:1px;stroke-linecap:butt;stroke-linejoin:miter;stroke-opacity:1"
       d="m 436.04842,391.18279 c 0,0 -25.75466,32.08653 4.52633,82.64446 30.281,50.55794 93.05346,16.45966 93.05346,16.45966 0,0 17.81513,58.64031 87.70239,53.83493 69.88725,-4.80538 84.92269,-60.2269 84.92269,-60.2269 0,0 67.72108,3.82407 89.5893,-80.63008 21.86822,-84.45415 -41.61785,-100.2693 -41.61785,-100.2693 0,0 -10.40711,-55.77437 -43.30699,-77.21345 -32.89989,-21.43909 -88.63676,-3.24085 -88.63676,-3.24085 l -36.00691,20.05099 c 0,0 -63.11813,-46.81287 -117.54146,-6.31939 -54.42334,40.49347 -81.24986,95.51517 -32.6842,154.90993 z"
       id="path1062" />
    <path
       style="fill:none;stroke:#000000;stroke-width:1px;stroke-linecap:butt;stroke-linejoin:miter;stroke-opacity:1"
       d="m 479.03689,354.12813 c 0,0 -30.95147,10.86862 -30.40897,18.92479 0.54249,8.05618 -32.98033,-38.51986 11.53652,-96.4414 44.51685,-57.92154 113.09809,-21.00803 110.29919,-16.17167 -2.79889,4.83635 -72.89349,-0.23426 -91.42674,93.68828 z"
       id="path1420" />
    <path
       style="fill:none;stroke:#000000;stroke-width:1px;stroke-linecap:butt;stroke-linejoin:miter;stroke-opacity:1"
       d="m 563.15073,348.78503 c 0,0 9.75142,-21.16079 35.47217,-10.1087 25.72076,11.05209 20.49431,35.50629 20.49431,35.50629 0,0 -50.07253,1.06737 -55.96648,-25.39759 z"
       id="path1623" />
    <path
       style="fill:none;stroke:#000000;stroke-width:1px;stroke-linecap:butt;stroke-linejoin:miter;stroke-opacity:1"
       d="m 604.53724,259.94593 c 0,0 74.16126,-0.0429 83.71519,56.99464 9.55394,57.03752 -38.25149,77.54655 -57.5525,80.53246 -19.301,2.98591 -63.25751,-6.24025 -68.74531,-16.47138"
       id="path2699" />
    <path
       style="fill:none;stroke:#000000;stroke-width:1px;stroke-linecap:butt;stroke-linejoin:miter;stroke-opacity:1"
       d="m 561.95462,381.00165 c 0,0 8.12247,37.20977 78.34593,39.36662 68.44748,2.1023 91.05636,-75.58828 92.97993,-99.3532 1.92357,-23.76493 -24.71306,-99.38796 -86.36207,-85.25046 -65.40848,14.99964 -42.38117,24.18132 -42.38117,24.18132"
       id="path2701" />
    <path
       style="fill:none;stroke:#000000;stroke-width:1px;stroke-linecap:butt;stroke-linejoin:miter;stroke-opacity:1"
       d="m 635.81973,367.58492 c 0,0 0.75398,-53.28447 -51.31595,-56.13593 -52.06993,-2.85146 -53.98707,51.68958 -44.46628,77.19736 9.52079,25.50779 66.85256,52.80706 66.85256,52.80706 0,0 -67.54224,21.71359 -96.60316,-58.12178 -29.06092,-79.83538 60.08286,-105.39004 60.08286,-105.39004 0,0 73.44205,-9.26021 91.08967,31.86779 17.64763,41.12801 -25.6397,57.77554 -25.6397,57.77554 z"
       id="path3211" />
    <path
       style="fill:none;stroke:#000000;stroke-width:1px;stroke-linecap:butt;stroke-linejoin:miter;stroke-opacity:1"
       d="m 718.17776,417.45643 -3.81349,43.31156 c 0,0 68.43134,-18.74437 60.66231,-79.45227 -8.1249,-63.48865 -19.53693,-48.26018 -19.53693,-48.26018 0,0 -12.22644,72.88928 -37.31189,84.40089 z"
       id="path3531" />
    <path
       style="fill:none;stroke:#000000;stroke-width:1px;stroke-linecap:butt;stroke-linejoin:miter;stroke-opacity:1"
       d="m 480.85453,375.24794 c 0,0 -45.25952,30.33276 -32.08763,62.08358 13.17189,31.75082 37.38732,67.52946 97.15557,23.48889"
       id="path4093" />
    <path
       style="fill:none;stroke:#000000;stroke-width:1px;stroke-linecap:butt;stroke-linejoin:miter;stroke-opacity:1"
       d="m 545.92247,460.82041 c 0,0 15.8725,67.35717 85.36088,57.21791 65.62987,-9.57625 63.30483,-79.52936 63.30483,-79.52936 0,0 -91.51499,55.23295 -154.02309,14.09958 -64.26693,-42.29076 -39.90309,-32.01017 -59.71056,-77.3606"
       id="path4095" />
    <path
       style="fill:none;stroke:#000000;stroke-width:1px;stroke-linecap:butt;stroke-linejoin:miter;stroke-opacity:1"
       d="m 415.60769,615.78555 86.83862,-86.73173 c 0,0 -56.43874,-5.49125 -83.43077,38.50757 -26.99203,43.99882 -23.22547,65.11426 -23.22547,65.11426 0,0 57.25736,5.94066 100.47916,-30.9635 43.2218,-36.90416 41.96244,-64.59532 41.96244,-64.59532 0,0 17.2738,52.30573 -22.62518,80.47239 -39.89898,28.16665 -104.12695,53.18555 -135.80987,29.94943 -31.68293,-23.23612 30.23889,-106.13035 30.23889,-106.13035 0,0 61.47369,-59.13588 116.87144,-18.06734"
       id="path4719" />
    <path
       style="fill:none;stroke:#000000;stroke-width:1px;stroke-linecap:butt;stroke-linejoin:miter;stroke-opacity:1"
       d="m 415.60769,615.78555 c 0,0 76.86193,-38.45828 111.29926,-92.44459"
       id="path4721" />
    <path
       style="fill:none;stroke:#000000;stroke-width:1px;stroke-linecap:butt;stroke-linejoin:miter;stroke-opacity:1"
       d="m 695.18908,544.82188 77.79943,94.04889 c 0,0 -66.95597,-5.43495 -114.76759,-57.79328 -47.81162,-52.35833 -32.22183,-31.49629 -27.89491,-7.15177 4.32692,24.34451 66.70135,83.77946 112.64294,84.2794 45.94159,0.49995 55.37685,2.19167 65.18276,-33.27702 9.80592,-35.46868 -31.18554,-87.38115 -39.2398,-92.54671 -36.99389,-23.72586 -50.85567,-26.27612 -8.33702,15.02304 36.74857,35.69458 27.42555,78.04822 27.42555,78.04822 0,0 -50.36582,-73.26407 -92.81136,-80.63077 z"
       id="path4985" />
    <path
       style="opacity:1;fill:#80ff80;stroke-width:0.542495;fill-opacity:1"
       d="m 402.2604,655.27568 c -12.96042,-1.86763 -24.39716,-8.29646 -28.04906,-15.76694 -7.7913,-15.93823 2.68385,-47.15181 29.222,-87.07501 6.80704,-10.24029 9.18153,-12.76186 18.18948,-19.31616 7.5456,-5.49027 14.59733,-9.72489 22.40973,-13.4572 25.95936,-12.40189 49.62876,-13.26628 70.92629,-2.59017 4.49675,2.25415 9.91156,5.5699 10.40817,6.37345 0.40147,0.64958 -6.16729,9.70115 -12.44808,17.1531 -6.16572,7.31541 -21.14217,22.06122 -29.55546,29.10029 -8.51683,7.1257 -20.25707,15.87499 -31.02306,23.11963 -9.44798,6.35772 -29.51458,18.57574 -30.50839,18.57574 -0.31989,0 18.05538,-18.6382 40.83393,-41.41821 l 41.41555,-41.41821 -3.71344,-0.34476 c -4.46925,-0.41493 -16.54557,0.38656 -23.2598,1.54373 -18.95607,3.26699 -35.18582,11.15314 -47.12771,22.8997 -7.88194,7.75301 -13.78934,16.73865 -22.0315,33.51171 -8.71011,17.72537 -13.01234,32.00827 -13.01234,43.19945 v 4.2689 l 9.62929,-0.006 c 30.6436,-0.0185 59.32486,-8.18249 81.4602,-23.18731 7.13627,-4.83745 12.23525,-9.08886 20.32643,-16.94775 11.75655,-11.41903 20.31376,-22.53903 25.81671,-33.54855 2.87267,-5.74724 5.98618,-14.28635 5.98618,-16.41774 0,-3.00826 1.07808,0.22703 1.91575,5.7491 1.77735,11.71662 1.00283,25.63053 -1.99307,35.8047 -3.07698,10.44954 -9.7438,20.77947 -17.97694,27.85444 -10.76752,9.25283 -35.74935,23.37936 -54.64014,30.89749 -24.11594,9.59762 -47.11135,13.7609 -63.20072,11.44238 z"
       id="path5659" />
    <path
       style="opacity:1;fill:#80ff80;stroke-width:0.542495;fill-opacity:1"
       d="m 737.5226,657.165 c -19.40917,-2.75451 -40.69717,-12.98546 -62.38698,-29.98298 -17.55687,-13.75869 -34.49772,-32.40781 -40.68157,-44.78376 -1.7278,-3.4579 -2.94106,-6.99938 -4.09879,-11.96426 -0.90449,-3.87885 -2.11378,-8.63924 -2.68731,-10.57867 -0.57353,-1.93942 -1.39697,-5.05198 -1.82986,-6.91681 -0.67731,-2.91774 -0.67982,-3.3906 -0.0181,-3.3906 1.19193,0 12.17989,10.90019 25.38402,25.18126 6.59817,7.13631 14.55995,15.27798 17.69287,18.09259 22.7431,20.43244 51.17319,35.13308 83.0018,42.91861 9.24995,2.26262 21.42505,4.31739 22.02526,3.71719 0.188,-0.18801 -3.45143,-4.93175 -8.08763,-10.54165 -4.6362,-5.60991 -21.85618,-26.43242 -38.26661,-46.27227 -16.41043,-19.83985 -29.74934,-36.16026 -29.64202,-36.26758 0.43172,-0.43172 9.15116,2.8386 13.54194,5.07905 11.38349,5.80856 22.14717,14.07363 36.01606,27.65553 13.10623,12.83503 27.66301,29.74724 37.48599,43.55159 1.75673,2.46875 3.3244,4.27771 3.48373,4.01992 0.82675,-1.33771 1.51799,-11.3568 1.2124,-17.57302 -0.96674,-19.66519 -7.83232,-37.68819 -20.31237,-53.32252 -1.66722,-2.08861 -7.96764,-8.80199 -14.00094,-14.91863 -11.63084,-11.79151 -16.57834,-17.38914 -18.95702,-21.44805 -1.91464,-3.26709 -1.31335,-3.95339 2.3869,-2.72436 6.53694,2.17123 27.08667,14.02141 31.93206,18.41392 7.6023,6.89174 19.94719,24.74321 27.05414,39.12197 6.94924,14.05968 10.34596,25.35527 10.94113,36.38414 0.35046,6.49407 -0.28591,10.69981 -2.90843,19.22164 -4.09496,13.30648 -8.98448,20.57235 -16.07774,23.89169 -6.55488,3.0674 -9.0327,3.3505 -30.7744,3.51616 -10.8906,0.083 -20.53346,0.0469 -21.42858,-0.0801 z"
       id="path5698" />
    <path
       style="opacity:1;fill:#ff8080;fill-opacity:1;stroke-width:0.542495"
       d="m 601.99367,543.04548 c -14.38223,-1.81878 -27.40628,-6.67543 -38.06856,-14.19569 -6.21003,-4.38002 -14.77027,-12.92695 -19.08518,-19.05552 -3.40432,-4.83522 -8.72535,-14.7272 -9.91322,-18.42899 -0.35904,-1.1189 -0.72546,-2.03436 -0.81426,-2.03436 -0.0888,0 -2.07028,0.86989 -4.40331,1.93308 -6.60337,3.00926 -16.10643,6.11075 -23.54927,7.68573 -5.92625,1.25405 -8.03846,1.436 -16.5577,1.42629 -8.83656,-0.0101 -10.27699,-0.14819 -15.15115,-1.45273 -16.6424,-4.45426 -27.68282,-14.31126 -37.39372,-33.38552 -10.01425,-19.67008 -12.80732,-38.91386 -8.18974,-56.42588 1.34717,-5.10911 4.64548,-12.83828 6.72449,-15.75798 0.61425,-0.86263 1.11681,-1.86303 1.11681,-2.22313 0,-0.36009 -0.97772,-1.82249 -2.17272,-3.24979 -3.49905,-4.17923 -9.92232,-14.09336 -12.87506,-19.87229 -17.07306,-33.41435 -12.43453,-66.87589 13.78767,-99.46183 10.26926,-12.76146 29.82343,-29.93901 42.21852,-37.08726 22.25327,-12.83347 48.48336,-14.2104 77.14038,-4.04943 7.37958,2.61659 21.36146,9.48206 27.27779,13.3941 3.37848,2.23394 4.23989,2.58716 5.1537,2.11322 0.60347,-0.31298 8.92808,-4.91595 18.49915,-10.22883 16.74177,-9.29332 17.64731,-9.72133 23.8698,-11.28232 32.3289,-8.11014 60.14781,-6.80403 78.47964,3.68464 13.33611,7.63034 25.64726,23.3782 34.59942,44.25802 3.40658,7.94544 7.50407,20.16741 9.47975,28.27611 l 1.47012,6.03381 2.00357,0.60028 c 3.51256,1.05239 12.66619,5.82759 16.87297,8.80217 10.4493,7.38862 18.98107,19.02796 23.24353,31.70962 2.74872,8.17799 3.55419,14.01249 3.55535,25.75341 10e-4,9.02672 -0.22545,12.43656 -1.20184,18.10576 -6.07224,35.25705 -21.31143,62.78791 -43.50659,78.59824 -8.95243,6.37711 -21.79732,12.02433 -32.28951,14.19599 -3.42466,0.70883 -13.54853,1.93907 -15.957,1.93907 -0.63929,0 -1.16036,0.7403 -1.62283,2.30561 -1.12328,3.80189 -5.16428,11.75551 -8.6133,16.95298 -14.03572,21.15097 -35.472,34.52006 -63.04277,39.31768 -7.56581,1.31654 -24.62075,1.92321 -31.08493,1.10574 z m 33.41256,-24.92299 c 31.07442,-6.20771 51.03983,-26.92237 57.87083,-60.04256 1.15357,-5.5931 2.62805,-20.041 2.09926,-20.5698 -0.16727,-0.16726 -1.85502,0.60484 -3.75056,1.71579 -9.89088,5.79689 -31.12658,14.87974 -44.6999,19.11888 -33.20988,10.37191 -61.12913,11.44766 -85.60756,3.29853 -8.86817,-2.95231 -15.2964,-6.40349 -28.99975,-15.56933 -23.67337,-15.83456 -33.99326,-24.5041 -37.52663,-31.52539 -0.95327,-1.89429 -2.46353,-6.2885 -3.35612,-9.76492 -4.19315,-16.33132 -9.0535,-29.91931 -10.70195,-29.91931 -2.65152,0 -18.58127,14.77971 -24.31531,22.55988 -9.76721,13.25253 -12.97867,26.55138 -9.15911,37.92836 2.00594,5.97489 7.71028,17.44733 11.61747,23.36477 17.77296,26.91714 42.89771,30.54371 75.34126,10.87494 3.20985,-1.94596 7.05185,-4.41332 8.53779,-5.48302 l 2.70171,-1.94491 1.45844,4.3404 c 3.9216,11.67088 11.59729,24.21289 19.9648,32.62231 11.52323,11.58095 23.83498,17.66217 40.98528,20.24411 0.89512,0.13477 6.14377,0.17143 11.66366,0.0815 7.574,-0.12341 11.46894,-0.44975 15.87639,-1.33023 z m 83.76393,-58.13641 c 15.32501,-5.36711 31.89396,-16.15118 40.90992,-26.62665 13.83956,-16.07992 18.36069,-32.79372 15.1627,-56.05382 -3.38017,-24.58528 -8.0784,-40.7718 -13.04795,-44.9534 -2.04123,-1.71759 -5.3246,-1.95579 -6.62458,-0.4806 -0.46014,0.52215 -1.60733,4.73327 -2.54931,9.35805 -2.12306,10.42348 -4.7509,20.46928 -7.98529,30.52646 -7.41484,23.05606 -15.7662,37.66439 -24.89655,43.5494 l -2.73612,1.76358 -1.76826,20.80542 c -0.97253,11.44297 -1.89675,21.47675 -2.05381,22.29727 -0.15756,0.82311 -0.0424,1.49186 0.25681,1.49186 0.29831,0 2.6979,-0.7549 5.33244,-1.67757 z M 601.5311,443.51986 c 8.49944,-1.69476 8.56082,-1.38279 -1.27651,-6.48863 -26.32041,-13.66103 -47.69405,-29.75254 -55.8274,-42.03064 -2.78988,-4.21159 -5.06419,-10.08124 -6.54099,-16.88124 -1.35732,-6.24989 -1.69035,-21.31328 -0.60837,-27.5173 4.03579,-23.14098 16.69326,-35.88434 37.93811,-38.19553 10.45042,-1.13689 22.1239,0.91294 31.56525,5.54275 16.43139,8.05754 25.74181,23.65236 28.2306,47.28581 0.18067,1.71564 0.56316,3.11935 0.84998,3.11935 0.85373,0 5.91392,-2.68115 9.9791,-5.28744 4.65839,-2.98662 12.92825,-11.29205 15.3639,-15.42997 0.99083,-1.68333 2.45406,-4.85114 3.25162,-7.03959 1.32969,-3.64857 1.45039,-4.65472 1.45346,-12.11642 0.004,-9.03793 -0.69861,-12.27435 -4.41377,-20.33925 -6.23528,-13.53555 -19.50288,-22.93258 -39.47132,-27.95631 -12.51674,-3.149 -30.11536,-4.57545 -44.27162,-3.58841 -8.79154,0.61298 -11.81985,1.49364 -22.56493,6.56208 -23.62241,11.14265 -40.79905,28.13399 -47.60746,47.09386 -3.39826,9.4634 -4.62702,22.96583 -3.07238,33.76149 1.81365,12.59437 8.04888,29.38128 15.61635,42.0434 3.56674,5.96797 9.17478,12.96599 14.58002,18.19373 11.9856,11.59202 25.82839,18.10335 43.05295,20.25113 4.16374,0.51919 19.39938,-0.1107 23.77341,-0.98287 z m 54.34593,-23.37181 c 30.58297,-4.89024 54.91157,-27.66583 69.62959,-65.18481 6.63767,-16.92065 9.66068,-33.80654 7.97447,-44.54363 -1.60944,-10.24831 -4.87497,-20.5546 -9.74723,-30.76319 -13.60224,-28.50005 -34.4033,-44.88159 -58.69004,-46.2204 -7.68623,-0.4237 -14.28696,0.4736 -26.79789,3.64289 C 613.10513,243.44763 600,249.63066 600,255.12341 c 0,3.64612 2.9621,5.81063 7.97487,5.82751 11.59457,0.039 31.43897,4.86583 43.1876,10.50462 20.72284,9.946 32.91207,25.53078 36.42986,46.5781 1.01565,6.07679 1.19283,18.48106 0.33908,23.73851 -3.44453,21.21133 -16.00171,37.4966 -37.07261,48.07904 -9.958,5.00122 -19.03919,7.2555 -29.22808,7.2555 -21.27541,0 -50.27408,-7.51605 -57.55827,-14.9183 -1.69273,-1.72015 -2.07852,-1.90601 -2.3715,-1.14251 -0.93129,2.42691 4.57519,11.54613 10.45907,17.32116 10.54859,10.35343 24.93123,16.93117 44.65734,20.42355 12.72394,2.25269 29.75862,2.8447 39.05967,1.35746 z m -206.45428,-47.4669 c 1.13997,-3.97483 8.27886,-8.77675 21.03215,-14.1471 4.26517,-1.79604 8.09962,-3.44686 8.52098,-3.66848 0.44402,-0.23353 1.40491,-3.19617 2.28549,-7.04668 4.341,-18.98194 12.42678,-36.90692 22.423,-49.70853 4.79024,-6.1346 14.4315,-15.19858 20.43973,-19.21588 10.53134,-7.0416 20.43493,-11.0528 36.49644,-14.78198 5.07427,-1.17815 9.54123,-2.40375 9.92658,-2.72356 3.98137,-3.30424 -11.80351,-12.04325 -28.10146,-15.55785 -31.34689,-6.75987 -59.84905,2.70267 -79.8257,26.50164 -22.01361,26.22568 -30.86792,57.38627 -23.99977,84.46133 2.14215,8.44459 7.59491,18.60862 9.6208,17.93333 0.36179,-0.1206 0.89358,-1.04141 1.18176,-2.04624 z m 170.64958,-3.399 c 0,-9.41155 -2.52228,-16.26734 -8.22939,-22.36826 -6.69904,-7.1613 -17.70961,-12.15418 -26.87049,-12.18476 -8.33244,-0.0278 -16.25191,4.05494 -20.61653,10.62853 -1.58703,2.39024 -1.86606,3.21718 -1.57815,4.67714 1.58853,8.05527 10.7518,15.98424 23.28304,20.14678 7.70005,2.55776 19.80551,4.48355 28.99344,4.61241 l 5.01808,0.0704 z"
       id="path5737" />
  </g>
</svg>
