<?xml version="1.0" encoding="UTF-8" standalone="no"?>
<svg
   width="880"
   height="880"
   viewBox="0 0 880 880"
   fill="none"
   version="1.1"
   id="svg87"
   sodipodi:docname="Group 324936.svg"
   inkscape:version="1.4.3 (0d15f75042, 2025-12-25)"
   xmlns:inkscape="http://www.inkscape.org/namespaces/inkscape"
   xmlns:sodipodi="http://sodipodi.sourceforge.net/DTD/sodipodi-0.dtd"
   xmlns="http://www.w3.org/2000/svg"
   xmlns:svg="http://www.w3.org/2000/svg">
  <sodipodi:namedview
     id="namedview87"
     pagecolor="#ffffff"
     bordercolor="#000000"
     borderopacity="0.25"
     inkscape:showpageshadow="2"
     inkscape:pageopacity="0.0"
     inkscape:pagecheckerboard="0"
     inkscape:deskcolor="#d1d1d1"
     inkscape:zoom="0.76408787"
     inkscape:cx="403.095"
     inkscape:cy="459.37125"
     inkscape:window-width="1920"
     inkscape:window-height="1011"
     inkscape:window-x="0"
     inkscape:window-y="0"
     inkscape:window-maximized="1"
     inkscape:current-layer="svg87" />
  <g
     id="g87"
     transform="translate(0.91549683,7.8307622)">
    <path
       d="m 603.466,607.235 v -57.514 l 15.224,-220.47 -27.629,-64.844 -436.993,-56.95 -31.576,34.959 v 387.373 l 39.471,42.29 z"
       fill="url(#paint0_radial_5725_876)"
       id="path1"
       style="fill:url(#paint0_radial_5725_876)" />
    <path
       d="m 603.466,607.235 v -57.514 l 15.224,-220.47 -27.629,-64.844 -436.993,-56.95 -31.576,34.959 v 387.373 l 39.471,42.29 z"
       fill="#23263b"
       fill-opacity="0.31"
       id="path2" />
    <path
       d="m 448.962,285.849 -69.919,63.152 24.81,7.894 45.109,-42.853 z"
       fill="#23263b"
       id="path3" />
    <path
       fill-rule="evenodd"
       clip-rule="evenodd"
       d="m 372.074,352.974 c 9.472,-7.316 19.358,-4.835 28.23,0.889 10.457,6.748 19.506,18 24.81,23.031 8.414,8.924 13.752,16.563 16.859,23.159 11.36,24.118 -7.107,34.303 -14.17,42.481 -7.197,8.333 -99.608,85.029 -144.914,122.336 -37.904,32.262 -102.818,87.199 -144.448,119.991 -3.047,-1.087 -6.119,-2.329 -9.181,-3.747 C 110.073,672.231 98.3748,653.552 94.2715,635.825 121.227,604.189 163.656,556.563 212.907,504.111 288.521,423.582 366.292,358.364 372.074,352.974 Z"
       fill="#23263b"
       id="path4" />
    <path
       fill-rule="evenodd"
       clip-rule="evenodd"
       d="m 499.394,208.77 c 54.827,-37.773 143.566,-19.378 151.069,-17.164 6.001,1.772 7.262,5.807 4.391,7.082 -9.134,4.77 -30.891,26.697 -44.845,76.243 -17.442,61.934 -56.224,88.302 -68.954,90.745 -12.73,2.443 -37.368,8.52 -54.643,-2.779 l -43.329,41.386 c 11.36,24.117 -7.107,34.302 -14.17,42.48 -7.196,8.333 -99.607,85.03 -144.913,122.337 -35.678,30.367 -95.287,80.82 -136.883,113.989 -8.771,-1.587 -18.437,-4.306 -28.021,-8.743 -14.575,-6.748 -21.797,-19.147 -25.2486,-32.488 26.8646,-31.613 69.9736,-80.059 120.1696,-133.517 75.615,-80.53 153.386,-145.748 159.167,-151.137 9.472,-7.316 19.358,-4.835 28.23,0.889 l 42.625,-40.881 c 0.176,-23.556 11.493,-78.223 55.355,-108.442 z"
       fill="#23263b"
       id="path5" />
    <g
       filter="url(#filter0_i_5725_876)"
       id="g6">
      <path
         fill-rule="evenodd"
         clip-rule="evenodd"
         d="m 518.754,212.563 c 54.827,-37.773 149.069,-18.337 156.572,-16.122 6.001,1.771 1.76,4.765 -1.112,6.04 -9.134,4.77 -30.892,26.697 -44.845,76.244 -17.442,61.934 -56.224,88.301 -68.953,90.744 -12.73,2.442 -37.368,8.519 -54.644,-2.779 l -43.329,41.387 c 11.36,24.117 -7.106,34.301 -14.169,42.48 -7.196,8.332 -99.607,85.03 -144.914,122.337 -35.088,29.865 -95.944,80.923 -139.18,115.276 -11.638,-0.787 -26.767,-3.53 -41.697,-10.442 C 112.481,673.097 104.514,665.804 98.5968,657.372 128.27,622.895 180.62,568.32 233.377,512.133 c 75.615,-80.53 153.388,-145.748 159.168,-151.137 9.472,-7.315 19.358,-4.835 28.23,0.89 l 42.625,-40.88 c 0.175,-23.556 11.492,-78.224 55.354,-108.443 z"
         fill="url(#paint1_linear_5725_876)"
         id="path6"
         style="fill:url(#paint1_linear_5725_876)" />
    </g>
    <path
       fill-rule="evenodd"
       clip-rule="evenodd"
       d="m 392.545,360.995 c 9.472,-7.315 19.358,-4.835 28.23,0.89 10.457,6.747 19.506,18 24.81,23.03 8.413,8.925 13.752,16.564 16.859,23.16 11.36,24.117 -7.107,34.302 -14.17,42.481 -7.196,8.332 -99.607,85.028 -144.913,122.336 -34.972,29.766 -95.538,80.583 -138.746,114.933 -10.982,-1.116 -24.381,-3.966 -37.625,-10.097 -11.151,-5.162 -19.771,-13.634 -25.843,-23.304 30.061,-34.592 80.953,-87.681 132.231,-142.292 75.615,-80.53 153.387,-145.748 159.167,-151.137 z"
       fill="url(#paint2_linear_5725_876)"
       fill-opacity="0.5"
       id="path7"
       style="fill:url(#paint2_linear_5725_876)" />
    <path
       fill-rule="evenodd"
       clip-rule="evenodd"
       d="m 137.829,196.756 c 14.802,-5.866 33.869,-3.294 72.003,1.85 l 320.499,43.232 c 29.91,4.035 44.865,6.052 56.123,13.191 9.92,6.29 17.81,15.316 22.718,25.988 5.569,12.111 5.569,27.202 5.569,57.382 v 200.615 c 0,30.358 0,45.537 -5.618,57.694 -4.95,10.71 -12.905,19.753 -22.898,26.027 -11.342,7.121 -26.398,9.054 -56.509,12.921 l -320.499,41.157 c -37.948,4.873 -56.922,7.31 -71.64,1.4 -12.922,-5.189 -23.677,-14.65 -30.47,-26.806 -7.7357,-13.845 -7.7359,-32.976 -7.7359,-71.236 V 295.166 c 0,-38.479 -1e-4,-57.72 7.7929,-71.604 6.842,-12.19 17.67,-21.655 30.665,-26.806 z m 50.739,22.09 c -21.095,-2.725 -31.643,-4.088 -39.825,-0.807 -7.184,2.88 -13.162,8.137 -16.939,14.892 -4.302,7.694 -4.302,18.33 -4.302,39.6 v 329.332 c 0,21.17 0,31.755 4.275,39.431 3.755,6.741 9.7,11.996 16.851,14.893 8.144,3.3 18.649,1.999 39.658,-0.604 L 547.33,611.112 c 16.703,-2.069 25.054,-3.103 31.365,-7.02 5.561,-3.451 10.002,-8.442 12.784,-14.366 3.156,-6.723 3.213,-15.139 3.327,-31.969 l 1.606,-238.268 c 0.114,-16.958 0.172,-25.438 -2.929,-32.236 -2.732,-5.988 -7.152,-11.051 -12.717,-14.565 -6.318,-3.989 -14.728,-5.075 -31.547,-7.248 z"
       fill="url(#paint3_linear_5725_876)"
       id="path8"
       style="fill:url(#paint3_linear_5725_876)" />
    <path
       fill-rule="evenodd"
       clip-rule="evenodd"
       d="m 128.809,196.726 c 14.801,-5.867 33.869,-3.295 72.003,1.849 l 320.5,43.233 c 29.909,4.034 44.864,6.052 56.123,13.19 9.92,6.29 17.809,15.316 22.716,25.988 5.57,12.112 5.57,27.202 5.57,57.382 v 202.374 c 0,29.788 0,44.682 -5.462,56.694 -4.814,10.585 -12.557,19.572 -22.316,25.896 -11.073,7.176 -25.804,9.376 -55.264,13.777 l -339.854,50.758 c -27.47,0.898 -41.206,1.346 -52.146,-2.58 -16.47,-5.91 -29.601,-18.62 -36.0462,-34.887 -4.2813,-10.807 -4.2812,-24.549 -4.2812,-52.034 v -303.23 c 0,-38.48 -1e-4,-57.72 7.7929,-71.605 6.8415,-12.189 17.6695,-21.654 30.6645,-26.805 z m 50.739,22.09 c -21.095,-2.726 -31.642,-4.088 -39.824,-0.808 -7.184,2.88 -13.164,8.137 -16.941,14.892 -4.301,7.695 -4.302,18.33 -4.302,39.6 v 329.332 c 0,21.17 0.001,31.756 4.277,39.432 3.754,6.74 9.7,11.995 16.85,14.892 8.144,3.3 18.649,1.999 39.659,-0.603 L 538.31,611.081 c 16.703,-2.069 25.055,-3.102 31.366,-7.019 5.561,-3.452 10,-8.442 12.782,-14.367 3.157,-6.723 3.214,-15.138 3.327,-31.968 l 1.608,-238.269 c 0.114,-16.958 0.171,-25.438 -2.93,-32.235 -2.732,-5.989 -7.152,-11.051 -12.718,-14.566 -6.318,-3.989 -14.728,-5.075 -31.547,-7.248 z"
       fill="url(#paint4_linear_5725_876)"
       id="path9"
       style="fill:url(#paint4_linear_5725_876)" />
    <path
       d="m 604.591,563.833 c -2.819,24.246 -9.585,36.651 -29.32,40.034 l -400.342,43.417 c -13.533,0 -41.726,-3.383 -41.726,-38.906"
       stroke="#131838"
       stroke-width="19.1713"
       id="path10" />
    <g
       filter="url(#filter1_ii_5725_876)"
       id="g11">
      <path
         fill-rule="evenodd"
         clip-rule="evenodd"
         d="m 153.679,196.702 c 14.822,-5.857 33.912,-3.251 72.092,1.959 l 321.625,43.89 c 29.862,4.074 44.793,6.113 56.031,13.255 9.902,6.294 17.775,15.315 22.673,25.978 5.557,12.101 5.558,27.17 5.558,57.308 v 206.021 c 0,30.317 0,45.476 -5.607,57.622 -4.94,10.702 -12.881,19.74 -22.857,26.018 -11.322,7.125 -26.354,9.077 -56.419,12.983 l -321.627,41.783 c -37.991,4.936 -56.987,7.404 -71.724,1.504 -12.939,-5.18 -23.71,-14.642 -30.514,-26.806 -7.749,-13.855 -7.75,-33.01 -7.75,-71.321 V 295.201 c 0,-38.533 0.001,-57.8 7.808,-71.693 6.854,-12.198 17.698,-21.664 30.711,-26.806 z m 50.818,22.485 c -21.119,-2.76 -31.678,-4.14 -39.871,-0.865 -7.193,2.875 -13.182,8.133 -16.965,14.893 -4.309,7.699 -4.309,18.348 -4.309,39.647 v 314.71 c 0,20.864 0,31.297 4.196,38.917 3.685,6.693 9.529,11.941 16.577,14.891 8.025,3.357 18.398,2.242 39.143,0.012 l 359.12,-38.6 c 16.928,-1.82 25.391,-2.73 31.807,-6.603 5.653,-3.412 10.183,-8.402 13.034,-14.357 3.235,-6.76 3.324,-15.273 3.501,-32.297 l 2.382,-228.863 c 0.177,-16.992 0.266,-25.488 -2.819,-32.306 -2.718,-6.006 -7.132,-11.088 -12.699,-14.62 -6.319,-4.009 -14.744,-5.11 -31.594,-7.312 z"
         fill="url(#paint5_linear_5725_876)"
         id="path11"
         style="fill:url(#paint5_linear_5725_876)" />
    </g>
    <path
       d="m 656.206,192.708 c -7.501,-2.214 -101.745,-21.652 -156.572,16.121 -11.25,8.001 -36.006,30.993 -45.028,58.961 -9.022,27.968 54.034,76.95 86.689,97.945 12.73,-2.443 51.512,-28.81 68.954,-90.744 13.954,-49.547 35.711,-71.474 44.845,-76.244 2.871,-1.275 7.113,-4.268 1.112,-6.039 z"
       fill="#23263b"
       id="path12" />
    <path
       d="m 456.861,221.559 c -19.848,22.554 -19.923,69.167 -17.48,89.654 5.827,-4.135 17.48,-16.014 17.48,-30.449 0,-18.043 45.109,-62.025 54.131,-72.738 7.217,-8.571 47.364,-16.352 66.536,-19.171 7.706,-1.128 84.579,5.229 65.408,1.123 -91.348,-19.563 -161.265,3.388 -186.075,31.581 z"
       fill="#23263b"
       id="path13" />
    <path
       d="m 456.861,221.559 c -19.848,22.554 -19.923,69.167 -17.48,89.654 5.827,-4.135 17.48,-16.014 17.48,-30.449 0,-18.043 45.109,-62.025 54.131,-72.738 7.217,-8.571 47.364,-16.352 66.536,-19.171 7.706,-1.128 84.579,5.229 65.408,1.123 -91.348,-19.563 -161.265,3.388 -186.075,31.581 z"
       fill="url(#paint6_linear_5725_876)"
       fill-opacity="0.2"
       id="path14"
       style="fill:url(#paint6_linear_5725_876)" />
    <g
       filter="url(#filter2_i_5725_876)"
       id="g15">
      <path
         d="m 518.501,212.564 c -43.862,30.219 -55.179,84.886 -55.354,108.442 l 42.372,45.685 c 17.275,11.299 41.914,5.221 54.644,2.779 12.729,-2.443 51.511,-28.81 68.953,-90.744 13.954,-49.548 35.711,-71.474 44.845,-76.244 2.871,-1.275 7.113,-4.269 1.112,-6.04 -7.501,-2.214 -101.744,-21.652 -156.572,16.122 z"
         fill="#ff1300"
         id="path15" />
    </g>
    <path
       d="m 518.501,212.564 c -43.862,30.219 -55.179,84.886 -55.354,108.442 l 42.372,45.685 c 17.275,11.299 41.914,5.221 54.644,2.779 12.729,-2.443 51.511,-28.81 68.953,-90.744 13.954,-49.548 35.711,-71.474 44.845,-76.244 2.871,-1.275 7.113,-4.269 1.112,-6.04 -7.501,-2.214 -101.744,-21.652 -156.572,16.122 z"
       fill="url(#paint7_linear_5725_876)"
       id="path16"
       style="fill:url(#paint7_linear_5725_876)" />
    <path
       d="m 462.498,408.207 c -6.766,-11.728 -23.87,-29.885 -31.576,-37.215 l 38.342,-44.545 c 9.022,12.631 28.194,31.952 36.651,40.034 z"
       fill="url(#paint8_linear_5725_876)"
       fill-opacity="0.59"
       id="path17"
       style="fill:url(#paint8_linear_5725_876)" />
    <g
       filter="url(#filter3_i_5725_876)"
       id="g18">
      <path
         d="m 518.501,212.564 c -43.862,30.219 -55.179,84.886 -55.354,108.442 l 42.372,45.685 c 17.275,11.299 41.914,5.221 54.644,2.779 12.729,-2.443 51.511,-28.81 68.953,-90.744 13.954,-49.548 35.711,-71.474 44.845,-76.244 2.871,-1.275 7.113,-4.269 1.112,-6.04 -7.501,-2.214 -101.744,-21.652 -156.572,16.122 z"
         fill="#ff1300"
         fill-opacity="0.01"
         id="path18" />
    </g>
    <path
       d="m 463.626,320.807 -42.854,41.162 -26.449,-26.449 -0.052,-0.052 -0.564,-0.564 44.545,-39.47 z"
       fill="url(#paint9_linear_5725_876)"
       fill-opacity="0.15"
       id="path19"
       style="fill:url(#paint9_linear_5725_876)" />
    <path
       fill-rule="evenodd"
       clip-rule="evenodd"
       d="m 340.707,338.861 c 42.854,-25.937 67.287,7.328 74.43,15.222 l -32.704,3.392 -98.676,80.632 -140.405,158.359 v -64.85 c 70.57,-80.491 167.29,-174.559 197.355,-192.755 z"
       fill="#23263b"
       id="path20" />
    <path
       fill-rule="evenodd"
       clip-rule="evenodd"
       d="m 340.707,338.861 c 42.854,-25.937 67.287,7.328 74.43,15.222 l -32.704,3.392 -98.676,80.632 -140.405,158.359 v -64.85 c 70.57,-80.491 167.29,-174.559 197.355,-192.755 z"
       fill="url(#paint10_linear_5725_876)"
       fill-opacity="0.2"
       id="path21"
       style="fill:url(#paint10_linear_5725_876)" />
    <path
       d="M 349.161,535.077 234.697,630.933 174.364,637.7 C 141.66,636.572 143.915,620.784 143.352,592.027 V 531.13 l 84.015,-89.654 z"
       fill="url(#paint11_linear_5725_876)"
       fill-opacity="0.41"
       id="path22"
       style="fill:url(#paint11_linear_5725_876)" />
    <path
       d="m 41.9365,0 2.7598,9.76562e-4 V 0.00195312 L 208.979,43.3086 c 10.313,2.7499 14.713,3.9938 29.562,19.6348 14.85,15.6413 42.853,44.3016 54.999,56.6766 L 86.8711,67.9551 10.3125,294.245 0,178.747 V 172.56 L 37.125,5.5 39.1865,2.75 Z"
       fill="url(#paint12_linear_5725_876)"
       id="path23"
       style="fill:url(#paint12_linear_5725_876)" />
    <path
       d="m 41.9365,0 2.7598,9.76562e-4 V 0.00195312 L 208.979,43.3086 c 10.313,2.7499 14.713,3.9938 29.562,19.6348 14.85,15.6413 42.853,44.3016 54.999,56.6766 L 86.8711,67.9551 10.3125,294.245 0,178.747 V 172.56 L 37.125,5.5 39.1865,2.75 Z"
       fill="url(#paint13_linear_5725_876)"
       fill-opacity="0.2"
       id="path24"
       style="fill:url(#paint13_linear_5725_876)" />
    <g
       filter="url(#filter4_ii_5725_876)"
       id="g24">
      <rect
         x="66.851601"
         y="62.9473"
         width="244.409"
         height="247.92599"
         rx="15.1248"
         transform="rotate(14,66.8516,62.9473)"
         fill="url(#paint14_linear_5725_876)"
         id="rect24"
         style="fill:url(#paint14_linear_5725_876)" />
    </g>
    <path
       d="M 508.369,567.376 553.99,765.93 v 0 c 13.891,60.459 20.836,90.688 24.14,93.776 5.773,5.397 9.978,5.965 16.976,2.294 4.005,-2.101 21.264,-34.113 55.784,-98.137 24.948,-46.272 63.086,-73.779 115.145,-88.569 v 0 c 49.426,-14.042 74.138,-21.063 77.114,-24.892 4.72,-6.076 4.726,-12.042 0.02,-18.128 -2.967,-3.836 -25.56,-10.311 -70.748,-23.259 L 535.927,541.247 c -10.341,-2.963 -15.512,-4.444 -19.256,-3.57 -5.206,1.216 -9.351,5.147 -10.843,10.281 -1.072,3.692 0.132,8.934 2.541,19.418 z"
       fill="#141938"
       id="path25" />
    <path
       d="m 508.369,563.341 45.621,198.554 v 0 c 13.891,60.458 20.836,90.687 24.14,93.775 5.773,5.397 9.978,5.966 16.976,2.295 4.005,-2.101 21.264,-34.113 55.784,-98.137 24.948,-46.273 63.086,-73.779 115.145,-88.569 v 0 c 49.426,-14.042 74.138,-21.063 77.114,-24.893 4.72,-6.075 4.726,-12.041 0.02,-18.127 -2.967,-3.837 -25.56,-10.311 -70.748,-23.259 L 535.927,537.212 c -10.341,-2.963 -15.512,-4.445 -19.256,-3.57 -5.206,1.216 -9.351,5.146 -10.843,10.28 -1.072,3.693 0.132,8.935 2.541,19.419 z"
       fill="#141938"
       id="path26" />
    <path
       d="M 508.369,559.306 553.99,757.86 v 0 c 13.891,60.458 20.836,90.687 24.14,93.775 5.773,5.397 9.978,5.966 16.976,2.294 4.005,-2.1 21.264,-34.112 55.784,-98.137 24.948,-46.272 63.086,-73.778 115.145,-88.568 v 0 c 49.426,-14.042 74.138,-21.063 77.114,-24.893 4.72,-6.075 4.726,-12.041 0.02,-18.127 -2.967,-3.837 -25.56,-10.311 -70.748,-23.259 L 535.927,533.177 c -10.341,-2.963 -15.512,-4.445 -19.256,-3.57 -5.206,1.216 -9.351,5.146 -10.843,10.28 -1.072,3.693 0.132,8.935 2.541,19.419 z"
       fill="#141938"
       id="path27" />
    <path
       d="m 508.369,555.271 45.621,198.554 v 0 c 13.891,60.458 20.836,90.687 24.14,93.775 5.773,5.397 9.978,5.965 16.976,2.294 4.005,-2.1 21.264,-34.112 55.784,-98.137 24.948,-46.272 63.086,-73.779 115.145,-88.568 v -10e-4 c 49.426,-14.041 74.138,-21.062 77.114,-24.892 4.72,-6.076 4.726,-12.041 0.02,-18.127 -2.967,-3.837 -25.56,-10.311 -70.748,-23.26 L 535.927,529.142 c -10.341,-2.963 -15.512,-4.445 -19.256,-3.57 -5.206,1.216 -9.351,5.146 -10.843,10.28 -1.072,3.693 0.132,8.935 2.541,19.419 z"
       fill="#141938"
       id="path28" />
    <path
       d="M 508.369,551.236 553.99,749.79 v 0 c 13.891,60.458 20.836,90.687 24.14,93.775 5.773,5.397 9.978,5.965 16.976,2.294 4.005,-2.1 21.264,-34.112 55.784,-98.137 24.948,-46.272 63.086,-73.779 115.145,-88.568 v -10e-4 c 49.426,-14.041 74.138,-21.062 77.114,-24.892 4.72,-6.076 4.726,-12.041 0.02,-18.127 -2.967,-3.837 -25.56,-10.311 -70.748,-23.259 L 535.927,525.107 c -10.341,-2.963 -15.512,-4.445 -19.256,-3.57 -5.206,1.216 -9.351,5.146 -10.843,10.28 -1.072,3.693 0.132,8.935 2.541,19.419 z"
       fill="#141938"
       id="path29" />
    <path
       d="m 508.369,547.201 45.621,198.554 v 0 c 13.891,60.458 20.836,90.687 24.14,93.775 5.773,5.397 9.978,5.965 16.976,2.294 4.005,-2.1 21.264,-34.112 55.784,-98.137 24.948,-46.272 63.086,-73.779 115.145,-88.569 v 0 c 49.426,-14.041 74.138,-21.062 77.114,-24.892 4.72,-6.076 4.726,-12.041 0.02,-18.127 -2.967,-3.837 -25.56,-10.311 -70.748,-23.26 L 535.927,521.072 c -10.341,-2.963 -15.512,-4.445 -19.256,-3.57 -5.206,1.216 -9.351,5.146 -10.843,10.28 -1.072,3.693 0.132,8.935 2.541,19.419 z"
       fill="#141938"
       id="path30" />
    <path
       d="M 508.369,543.165 553.99,741.72 v 0 c 13.891,60.458 20.836,90.687 24.14,93.775 5.773,5.397 9.978,5.965 16.976,2.294 4.005,-2.101 21.264,-34.113 55.784,-98.137 24.948,-46.272 63.086,-73.779 115.145,-88.569 v 0 c 49.426,-14.042 74.138,-21.062 77.114,-24.892 4.72,-6.076 4.726,-12.041 0.02,-18.128 -2.967,-3.836 -25.56,-10.31 -70.748,-23.259 L 535.927,517.037 c -10.341,-2.963 -15.512,-4.445 -19.256,-3.57 -5.206,1.216 -9.351,5.146 -10.843,10.28 -1.072,3.693 0.132,8.935 2.541,19.418 z"
       fill="#141938"
       id="path31" />
    <path
       d="m 508.369,539.131 45.621,198.554 v 0 c 13.891,60.458 20.836,90.687 24.14,93.775 5.773,5.397 9.978,5.965 16.976,2.294 4.005,-2.1 21.264,-34.113 55.784,-98.137 24.948,-46.272 63.086,-73.779 115.145,-88.569 v 0 c 49.426,-14.041 74.138,-21.062 77.114,-24.892 4.72,-6.076 4.726,-12.041 0.02,-18.128 -2.967,-3.836 -25.56,-10.31 -70.748,-23.259 L 535.927,513.002 c -10.341,-2.963 -15.512,-4.445 -19.256,-3.57 -5.206,1.216 -9.351,5.146 -10.843,10.28 -1.072,3.693 0.132,8.935 2.541,19.419 z"
       fill="#141938"
       id="path32" />
    <path
       d="M 508.369,535.095 553.99,733.65 v 0 c 13.891,60.458 20.836,90.687 24.14,93.775 5.773,5.397 9.978,5.965 16.976,2.294 4.005,-2.101 21.264,-34.113 55.784,-98.137 24.948,-46.272 63.086,-73.779 115.145,-88.569 v 0 c 49.426,-14.042 74.138,-21.062 77.114,-24.892 4.72,-6.076 4.726,-12.041 0.02,-18.128 -2.967,-3.836 -25.56,-10.31 -70.748,-23.259 L 535.927,508.967 c -10.341,-2.964 -15.512,-4.445 -19.256,-3.57 -5.206,1.216 -9.351,5.146 -10.843,10.28 -1.072,3.692 0.132,8.934 2.541,19.418 z"
       fill="#141938"
       id="path33" />
    <path
       d="m 508.369,531.06 45.621,198.554 v 10e-4 c 13.891,60.458 20.836,90.687 24.14,93.775 5.773,5.397 9.978,5.965 16.976,2.294 4.005,-2.101 21.264,-34.113 55.784,-98.137 24.948,-46.272 63.086,-73.779 115.145,-88.569 v 0 c 49.426,-14.042 74.138,-21.063 77.114,-24.892 4.72,-6.076 4.726,-12.041 0.02,-18.128 -2.967,-3.836 -25.56,-10.311 -70.748,-23.259 L 535.927,504.931 c -10.341,-2.963 -15.512,-4.444 -19.256,-3.57 -5.206,1.217 -9.351,5.147 -10.843,10.281 -1.072,3.692 0.132,8.934 2.541,19.418 z"
       fill="#141938"
       id="path34" />
    <path
       d="m 508.369,527.025 45.621,198.554 v 0 c 13.891,60.459 20.836,90.688 24.14,93.775 5.773,5.398 9.978,5.966 16.976,2.295 4.005,-2.101 21.264,-34.113 55.784,-98.137 24.948,-46.272 63.086,-73.779 115.145,-88.569 v 0 c 49.426,-14.042 74.138,-21.063 77.114,-24.893 4.72,-6.075 4.726,-12.041 0.02,-18.127 -2.967,-3.837 -25.56,-10.311 -70.748,-23.259 L 535.927,500.896 c -10.341,-2.963 -15.512,-4.444 -19.256,-3.57 -5.206,1.216 -9.351,5.146 -10.843,10.281 -1.072,3.692 0.132,8.934 2.541,19.418 z"
       fill="#141938"
       id="path35" />
    <path
       d="m 508.369,522.99 45.621,198.554 v 0 c 13.891,60.459 20.836,90.688 24.14,93.776 5.773,5.397 9.978,5.965 16.976,2.294 4.005,-2.101 21.264,-34.113 55.784,-98.137 24.948,-46.272 63.086,-73.779 115.145,-88.569 v 0 c 49.426,-14.042 74.138,-21.063 77.114,-24.892 4.72,-6.076 4.726,-12.042 0.02,-18.128 -2.967,-3.836 -25.56,-10.311 -70.748,-23.259 L 535.927,496.861 c -10.341,-2.963 -15.512,-4.444 -19.256,-3.57 -5.206,1.216 -9.351,5.147 -10.843,10.281 -1.072,3.692 0.132,8.934 2.541,19.418 z"
       fill="#141938"
       id="path36" />
    <path
       d="m 508.369,518.955 45.621,198.554 v 0 c 13.891,60.458 20.836,90.687 24.14,93.775 5.773,5.397 9.978,5.966 16.976,2.295 4.005,-2.101 21.264,-34.113 55.784,-98.137 24.948,-46.273 63.086,-73.779 115.145,-88.569 v 0 c 49.426,-14.042 74.138,-21.063 77.114,-24.893 4.72,-6.075 4.726,-12.041 0.02,-18.127 -2.967,-3.837 -25.56,-10.311 -70.748,-23.259 L 535.927,492.826 c -10.341,-2.963 -15.512,-4.445 -19.256,-3.57 -5.206,1.216 -9.351,5.146 -10.843,10.28 -1.072,3.693 0.132,8.935 2.541,19.419 z"
       fill="#141938"
       id="path37" />
    <g
       filter="url(#filter5_di_5725_876)"
       id="g38">
      <path
         d="m 508.369,513.575 45.621,198.554 v 0 c 13.891,60.458 20.836,90.687 24.14,93.775 5.773,5.397 9.978,5.966 16.976,2.294 4.005,-2.1 21.264,-34.112 55.784,-98.136 24.948,-46.273 63.086,-73.779 115.145,-88.569 v 0 c 49.426,-14.042 74.138,-21.063 77.114,-24.893 4.72,-6.075 4.726,-12.041 0.02,-18.127 -2.967,-3.837 -25.56,-10.311 -70.748,-23.259 L 535.927,487.446 c -10.341,-2.963 -15.512,-4.445 -19.256,-3.57 -5.206,1.216 -9.351,5.146 -10.843,10.28 -1.072,3.693 0.132,8.935 2.541,19.419 z"
         fill="url(#paint15_linear_5725_876)"
         id="path38"
         style="fill:url(#paint15_linear_5725_876)" />
    </g>
  </g>
  <defs
     id="defs87">
    <filter
       id="filter0_i_5725_876"
       x="98.597702"
       y="189.481"
       width="579.77002"
       height="506.58301"
       filterUnits="userSpaceOnUse"
       color-interpolation-filters="sRGB">
      <feFlood
         flood-opacity="0"
         result="BackgroundImageFix"
         id="feFlood38" />
      <feBlend
         mode="normal"
         in="SourceGraphic"
         in2="BackgroundImageFix"
         result="shape"
         id="feBlend38" />
      <feColorMatrix
         in="SourceAlpha"
         type="matrix"
         values="0 0 0 0 0 0 0 0 0 0 0 0 0 0 0 0 0 0 127 0"
         result="hardAlpha"
         id="feColorMatrix38" />
      <feOffset
         dy="7.89406"
         id="feOffset38" />
      <feGaussianBlur
         stdDeviation="9.58565"
         id="feGaussianBlur38" />
      <feComposite
         in2="hardAlpha"
         operator="arithmetic"
         k2="-1"
         k3="1"
         id="feComposite38"
         k1="0"
         k4="0" />
      <feColorMatrix
         type="matrix"
         values="0 0 0 0 1 0 0 0 0 0.21383 0 0 0 0 0.21383 0 0 0 0.41 0"
         id="feColorMatrix39" />
      <feBlend
         mode="normal"
         in2="shape"
         result="effect1_innerShadow_5725_876"
         id="feBlend39" />
    </filter>
    <filter
       id="filter1_ii_5725_876"
       x="115.16"
       y="189.978"
       width="516.49597"
       height="503"
       filterUnits="userSpaceOnUse"
       color-interpolation-filters="sRGB">
      <feFlood
         flood-opacity="0"
         result="BackgroundImageFix"
         id="feFlood39" />
      <feBlend
         mode="normal"
         in="SourceGraphic"
         in2="BackgroundImageFix"
         result="shape"
         id="feBlend40" />
      <feColorMatrix
         in="SourceAlpha"
         type="matrix"
         values="0 0 0 0 0 0 0 0 0 0 0 0 0 0 0 0 0 0 127 0"
         result="hardAlpha"
         id="feColorMatrix40" />
      <feOffset
         dy="4.51089"
         id="feOffset40" />
      <feGaussianBlur
         stdDeviation="3.49594"
         id="feGaussianBlur40" />
      <feComposite
         in2="hardAlpha"
         operator="arithmetic"
         k2="-1"
         k3="1"
         id="feComposite40"
         k1="0"
         k4="0" />
      <feColorMatrix
         type="matrix"
         values="0 0 0 0 1 0 0 0 0 0.538123 0 0 0 0 0.538123 0 0 0 0.25 0"
         id="feColorMatrix41" />
      <feBlend
         mode="normal"
         in2="shape"
         result="effect1_innerShadow_5725_876"
         id="feBlend41" />
      <feColorMatrix
         in="SourceAlpha"
         type="matrix"
         values="0 0 0 0 0 0 0 0 0 0 0 0 0 0 0 0 0 0 127 0"
         result="hardAlpha"
         id="feColorMatrix42" />
      <feOffset
         dy="-3.38317"
         id="feOffset42" />
      <feGaussianBlur
         stdDeviation="3.77787"
         id="feGaussianBlur42" />
      <feComposite
         in2="hardAlpha"
         operator="arithmetic"
         k2="-1"
         k3="1"
         id="feComposite42"
         k1="0"
         k4="0" />
      <feColorMatrix
         type="matrix"
         values="0 0 0 0 0 0 0 0 0 0 0 0 0 0 0 0 0 0 0.25 0"
         id="feColorMatrix43" />
      <feBlend
         mode="normal"
         in2="effect1_innerShadow_5725_876"
         result="effect2_innerShadow_5725_876"
         id="feBlend43" />
    </filter>
    <filter
       id="filter2_i_5725_876"
       x="460.89301"
       y="189.483"
       width="217.224"
       height="205.248"
       filterUnits="userSpaceOnUse"
       color-interpolation-filters="sRGB">
      <feFlood
         flood-opacity="0"
         result="BackgroundImageFix"
         id="feFlood43" />
      <feBlend
         mode="normal"
         in="SourceGraphic"
         in2="BackgroundImageFix"
         result="shape"
         id="feBlend44" />
      <feColorMatrix
         in="SourceAlpha"
         type="matrix"
         values="0 0 0 0 0 0 0 0 0 0 0 0 0 0 0 0 0 0 127 0"
         result="hardAlpha"
         id="feColorMatrix44" />
      <feOffset
         dx="-2.25545"
         dy="21.4267"
         id="feOffset44" />
      <feGaussianBlur
         stdDeviation="16.0701"
         id="feGaussianBlur44" />
      <feComposite
         in2="hardAlpha"
         operator="arithmetic"
         k2="-1"
         k3="1"
         id="feComposite44"
         k1="0"
         k4="0" />
      <feColorMatrix
         type="matrix"
         values="0 0 0 0 1 0 0 0 0 0.579515 0 0 0 0 0.579515 0 0 0 0.39 0"
         id="feColorMatrix45" />
      <feBlend
         mode="normal"
         in2="shape"
         result="effect1_innerShadow_5725_876"
         id="feBlend45" />
    </filter>
    <filter
       id="filter3_i_5725_876"
       x="452.99899"
       y="159.034"
       width="225.118"
       height="214.269"
       filterUnits="userSpaceOnUse"
       color-interpolation-filters="sRGB">
      <feFlood
         flood-opacity="0"
         result="BackgroundImageFix"
         id="feFlood45" />
      <feBlend
         mode="normal"
         in="SourceGraphic"
         in2="BackgroundImageFix"
         result="shape"
         id="feBlend46" />
      <feColorMatrix
         in="SourceAlpha"
         type="matrix"
         values="0 0 0 0 0 0 0 0 0 0 0 0 0 0 0 0 0 0 127 0"
         result="hardAlpha"
         id="feColorMatrix46" />
      <feOffset
         dx="-10.1495"
         dy="-30.4485"
         id="feOffset46" />
      <feGaussianBlur
         stdDeviation="16.0701"
         id="feGaussianBlur46" />
      <feComposite
         in2="hardAlpha"
         operator="arithmetic"
         k2="-1"
         k3="1"
         id="feComposite46"
         k1="0"
         k4="0" />
      <feColorMatrix
         type="matrix"
         values="0 0 0 0 0 0 0 0 0 0 0 0 0 0 0 0 0 0 0.22 0"
         id="feColorMatrix47" />
      <feBlend
         mode="normal"
         in2="shape"
         result="effect1_innerShadow_5725_876"
         id="feBlend47" />
    </filter>
    <filter
       id="filter4_ii_5725_876"
       x="0.453269"
       y="46.903599"
       width="305.84"
       height="323.52701"
       filterUnits="userSpaceOnUse"
       color-interpolation-filters="sRGB">
      <feFlood
         flood-opacity="0"
         result="BackgroundImageFix"
         id="feFlood47" />
      <feBlend
         mode="normal"
         in="SourceGraphic"
         in2="BackgroundImageFix"
         result="shape"
         id="feBlend48" />
      <feColorMatrix
         in="SourceAlpha"
         type="matrix"
         values="0 0 0 0 0 0 0 0 0 0 0 0 0 0 0 0 0 0 127 0"
         result="hardAlpha"
         id="feColorMatrix48" />
      <feOffset
         dx="-9.62486"
         dy="-19.2497"
         id="feOffset48" />
      <feGaussianBlur
         stdDeviation="12.9248"
         id="feGaussianBlur48" />
      <feComposite
         in2="hardAlpha"
         operator="arithmetic"
         k2="-1"
         k3="1"
         id="feComposite48"
         k1="0"
         k4="0" />
      <feColorMatrix
         type="matrix"
         values="0 0 0 0 0 0 0 0 0 0 0 0 0 0 0 0 0 0 0.25 0"
         id="feColorMatrix49" />
      <feBlend
         mode="normal"
         in2="shape"
         result="effect1_innerShadow_5725_876"
         id="feBlend49" />
      <feColorMatrix
         in="SourceAlpha"
         type="matrix"
         values="0 0 0 0 0 0 0 0 0 0 0 0 0 0 0 0 0 0 127 0"
         result="hardAlpha"
         id="feColorMatrix50" />
      <feOffset
         dx="5.49992"
         dy="10.9998"
         id="feOffset50" />
      <feGaussianBlur
         stdDeviation="9.62486"
         id="feGaussianBlur50" />
      <feComposite
         in2="hardAlpha"
         operator="arithmetic"
         k2="-1"
         k3="1"
         id="feComposite50"
         k1="0"
         k4="0" />
      <feColorMatrix
         type="matrix"
         values="0 0 0 0 1 0 0 0 0 1 0 0 0 0 1 0 0 0 0.29 0"
         id="feColorMatrix51" />
      <feBlend
         mode="normal"
         in2="effect1_innerShadow_5725_876"
         result="effect2_innerShadow_5725_876"
         id="feBlend51" />
    </filter>
    <filter
       id="filter5_di_5725_876"
       x="473.95999"
       y="473.673"
       width="404.20901"
       height="389.858"
       filterUnits="userSpaceOnUse"
       color-interpolation-filters="sRGB">
      <feFlood
         flood-opacity="0"
         result="BackgroundImageFix"
         id="feFlood51" />
      <feColorMatrix
         in="SourceAlpha"
         type="matrix"
         values="0 0 0 0 0 0 0 0 0 0 0 0 0 0 0 0 0 0 127 0"
         result="hardAlpha"
         id="feColorMatrix52" />
      <feOffset
         dy="21.5205"
         id="feOffset52" />
      <feGaussianBlur
         stdDeviation="15.7368"
         id="feGaussianBlur52" />
      <feComposite
         in2="hardAlpha"
         operator="out"
         id="feComposite52" />
      <feColorMatrix
         type="matrix"
         values="0 0 0 0 0 0 0 0 0 0 0 0 0 0 0 0 0 0 0.25 0"
         id="feColorMatrix53" />
      <feBlend
         mode="normal"
         in2="BackgroundImageFix"
         result="effect1_dropShadow_5725_876"
         id="feBlend53" />
      <feBlend
         mode="normal"
         in="SourceGraphic"
         in2="effect1_dropShadow_5725_876"
         result="shape"
         id="feBlend54" />
      <feColorMatrix
         in="SourceAlpha"
         type="matrix"
         values="0 0 0 0 0 0 0 0 0 0 0 0 0 0 0 0 0 0 127 0"
         result="hardAlpha"
         id="feColorMatrix54" />
      <feOffset
         dx="14.7953"
         dy="12.1053"
         id="feOffset54" />
      <feGaussianBlur
         stdDeviation="11.1637"
         id="feGaussianBlur54" />
      <feComposite
         in2="hardAlpha"
         operator="arithmetic"
         k2="-1"
         k3="1"
         id="feComposite54"
         k1="0"
         k4="0" />
      <feColorMatrix
         type="matrix"
         values="0 0 0 0 1 0 0 0 0 1 0 0 0 0 1 0 0 0 0.25 0"
         id="feColorMatrix55" />
      <feBlend
         mode="normal"
         in2="shape"
         result="effect2_innerShadow_5725_876"
         id="feBlend55" />
    </filter>
    <radialGradient
       id="paint0_radial_5725_876"
       cx="0"
       cy="0"
       r="1"
       gradientUnits="userSpaceOnUse"
       gradientTransform="matrix(-11.840994,352.41313,-376.36361,-12.645724,370.591,439.768)">
      <stop
         stop-color="#D91000"
         id="stop55" />
      <stop
         offset="0.417019"
         stop-color="#880A00"
         id="stop56" />
      <stop
         offset="1"
         stop-color="#23263B"
         id="stop57" />
    </radialGradient>
    <linearGradient
       id="paint1_linear_5725_876"
       x1="402.72"
       y1="446.54401"
       x2="89.2136"
       y2="786.55103"
       gradientUnits="userSpaceOnUse">
      <stop
         stop-color="#FF1300"
         id="stop58" />
      <stop
         offset="1"
         stop-color="#990B00"
         id="stop59" />
    </linearGradient>
    <linearGradient
       id="paint2_linear_5725_876"
       x1="154.05499"
       y1="543.52802"
       x2="264.009"
       y2="659.68298"
       gradientUnits="userSpaceOnUse">
      <stop
         offset="0.450058"
         stop-opacity="0"
         id="stop60" />
      <stop
         offset="1"
         id="stop61" />
    </linearGradient>
    <linearGradient
       id="paint3_linear_5725_876"
       x1="357.056"
       y1="193.39101"
       x2="357.056"
       y2="681.68103"
       gradientUnits="userSpaceOnUse">
      <stop
         stop-color="#23263B"
         id="stop62" />
      <stop
         offset="1"
         stop-color="#0D1437"
         id="stop63" />
    </linearGradient>
    <linearGradient
       id="paint4_linear_5725_876"
       x1="348.03601"
       y1="193.36"
       x2="348.03601"
       y2="688.48102"
       gradientUnits="userSpaceOnUse">
      <stop
         stop-color="#23263B"
         id="stop64" />
      <stop
         offset="1"
         stop-color="#0D1437"
         id="stop65" />
    </linearGradient>
    <linearGradient
       id="paint5_linear_5725_876"
       x1="373.80301"
       y1="193.36099"
       x2="373.409"
       y2="669.82397"
       gradientUnits="userSpaceOnUse">
      <stop
         stop-color="#FF1300"
         id="stop66" />
      <stop
         offset="1"
         stop-color="#CA0F00"
         id="stop67" />
    </linearGradient>
    <linearGradient
       id="paint6_linear_5725_876"
       x1="510.42801"
       y1="226.065"
       x2="483.36301"
       y2="198.436"
       gradientUnits="userSpaceOnUse">
      <stop
         stop-opacity="0"
         id="stop68" />
      <stop
         offset="1"
         id="stop69" />
    </linearGradient>
    <linearGradient
       id="paint7_linear_5725_876"
       x1="485.05899"
       y1="342.784"
       x2="604.59802"
       y2="227.192"
       gradientUnits="userSpaceOnUse">
      <stop
         stop-color="#FF1300"
         id="stop70" />
      <stop
         offset="0.587911"
         stop-color="#FF1300"
         stop-opacity="0"
         id="stop71" />
    </linearGradient>
    <linearGradient
       id="paint8_linear_5725_876"
       x1="454.04001"
       y1="349.00101"
       x2="483.36099"
       y2="386.78"
       gradientUnits="userSpaceOnUse">
      <stop
         stop-color="#800000"
         stop-opacity="0"
         id="stop72" />
      <stop
         offset="1"
         stop-color="#800000"
         id="stop73" />
    </linearGradient>
    <linearGradient
       id="paint9_linear_5725_876"
       x1="440.508"
       y1="338.85101"
       x2="423.02802"
       y2="313.47699"
       gradientUnits="userSpaceOnUse">
      <stop
         stop-opacity="0"
         id="stop74" />
      <stop
         offset="1"
         id="stop75" />
    </linearGradient>
    <linearGradient
       id="paint10_linear_5725_876"
       x1="245.97501"
       y1="486.02899"
       x2="199.174"
       y2="438.10101"
       gradientUnits="userSpaceOnUse">
      <stop
         stop-opacity="0"
         id="stop76" />
      <stop
         offset="1"
         id="stop77" />
    </linearGradient>
    <linearGradient
       id="paint11_linear_5725_876"
       x1="159.70399"
       y1="622.47498"
       x2="281.49799"
       y2="483.76501"
       gradientUnits="userSpaceOnUse">
      <stop
         id="stop78" />
      <stop
         offset="1"
         stop-opacity="0"
         id="stop79" />
    </linearGradient>
    <linearGradient
       id="paint12_linear_5725_876"
       x1="45.270699"
       y1="47.373001"
       x2="77.964302"
       y2="34.7701"
       gradientUnits="userSpaceOnUse">
      <stop
         stop-color="#1A1E39"
         id="stop80" />
      <stop
         offset="1"
         stop-color="#2E3569"
         id="stop81" />
    </linearGradient>
    <linearGradient
       id="paint13_linear_5725_876"
       x1="242.118"
       y1="82.068703"
       x2="256.16299"
       y2="69.006104"
       gradientUnits="userSpaceOnUse">
      <stop
         stop-opacity="0"
         id="stop82" />
      <stop
         offset="1"
         id="stop83" />
    </linearGradient>
    <linearGradient
       id="paint14_linear_5725_876"
       x1="189.056"
       y1="62.9473"
       x2="189.056"
       y2="310.87299"
       gradientUnits="userSpaceOnUse">
      <stop
         stop-color="#FF1200"
         id="stop84" />
      <stop
         offset="1"
         stop-color="#9E0B00"
         id="stop85" />
    </linearGradient>
    <linearGradient
       id="paint15_linear_5725_876"
       x1="615.67297"
       y1="637.88202"
       x2="730.67297"
       y2="775.07501"
       gradientUnits="userSpaceOnUse">
      <stop
         stop-color="#E51000"
         id="stop86" />
      <stop
         offset="1"
         stop-color="#680801"
         id="stop87" />
    </linearGradient>
  </defs>
</svg>
